<svg width="2974" height="1058" xmlns="http://www.w3.org/2000/svg" xmlns:xlink="http://www.w3.org/1999/xlink" xml:space="preserve" overflow="hidden"><g transform="translate(-242 -1144)"><rect x="2659.5" y="1551.5" width="325" height="325" stroke="#000000" stroke-width="9.16667" fill="#FFFFFF"/><path d="M2781.1 1676.46 2838.6 1676.46 2834.29 1695.64 2828.29 1695.64C2828.13 1692.02 2827.81 1689.29 2827.35 1687.46 2826.9 1685.62 2826.34 1684.36 2825.7 1683.67 2825.05 1682.99 2824.28 1682.53 2823.39 1682.3 2822.49 1682.07 2821.21 1681.96 2819.54 1681.96L2799.17 1681.96 2792.04 1714.71 2803.98 1714.71C2806.94 1714.71 2809.2 1714.01 2810.76 1712.61 2812.32 1711.22 2813.9 1708.91 2815.48 1705.71L2821.17 1705.71 2815.54 1729.71 2810.23 1729.71C2810.23 1726.37 2810.02 1724.11 2809.6 1722.92 2809.19 1721.74 2808.57 1720.99 2807.76 1720.67 2806.95 1720.36 2805.48 1720.21 2803.35 1720.21L2790.85 1720.21 2782.85 1756.27 2801.35 1756.27C2803.81 1756.27 2805.76 1756.02 2807.2 1755.52 2808.64 1755.02 2809.99 1754.21 2811.26 1753.08 2812.53 1751.96 2813.8 1750.38 2815.07 1748.36 2816.34 1746.34 2817.85 1743.6 2819.6 1740.14L2825.67 1740.14 2820.17 1761.77 2764.73 1761.77 2765.42 1758.71C2767 1758.46 2768.19 1758.05 2768.98 1757.49 2769.77 1756.92 2770.44 1756.14 2770.98 1755.14 2771.52 1754.14 2772.02 1752.92 2772.48 1751.49 2772.94 1750.05 2773.63 1747.27 2774.54 1743.14L2785.17 1695.02C2786.08 1690.85 2786.54 1687.5 2786.54 1684.96 2786.54 1683 2786.05 1681.63 2785.07 1680.86 2784.09 1680.09 2782.54 1679.64 2780.42 1679.52Z" fill-rule="evenodd"/><text fill="#000000" fill-opacity="0" font-family="Arial,Arial_MSFontService,sans-serif" font-size="85.3125" x="2764.73" y="1751.1">𝐸</text><path d="M2984.5 1773.5 2932.5 1715.5 2984.5 1657.5Z" stroke="#000000" stroke-width="9.16667" fill="#FFFFFF" fill-rule="evenodd"/><path d="M1.98758e-05-4.58333 60.3048-4.58307 60.3047 4.58359-1.98758e-05 4.58333ZM55.7215-13.7498 83.2214 0.000360892 55.7214 13.7502Z" transform="matrix(-1 0 0 1 3067.72 1715.5)"/><path d="M2826.08 1315.49 2826.31 1529.34 2817.15 1529.35 2816.92 1315.51ZM2835.48 1524.75 2821.76 1552.26 2807.98 1524.78Z"/><path d="M2827.08 1876.5 2827.08 2008.73 2817.92 2008.73 2817.92 1876.5ZM2836.25 2004.14 2822.5 2031.64 2808.75 2004.14Z"/><path d="M2759.69 1201.85C2757.47 1201.85 2755.14 1201.9 2752.71 1202.01L2745.4 1234.56 2750.99 1234.56C2755.32 1234.56 2758.82 1234.11 2761.49 1233.21 2764.16 1232.32 2766.34 1230.93 2768.04 1229.05 2769.74 1227.17 2771.06 1224.94 2771.99 1222.36 2772.92 1219.79 2773.39 1216.96 2773.39 1213.88 2773.39 1209.72 2772.33 1206.68 2770.22 1204.75 2768.1 1202.81 2764.6 1201.85 2759.69 1201.85ZM2737.19 1197.12 2760.87 1197.12C2765.13 1197.12 2768.63 1197.45 2771.37 1198.11 2774.11 1198.78 2776.37 1199.8 2778.14 1201.17 2779.91 1202.55 2781.24 1204.3 2782.11 1206.41 2782.99 1208.52 2783.43 1210.98 2783.43 1213.77 2783.43 1219.14 2782.16 1223.8 2779.62 1227.73 2777.07 1231.67 2773.63 1234.57 2769.28 1236.44 2764.93 1238.3 2759.71 1239.23 2753.62 1239.23 2749.97 1239.23 2746.92 1239.16 2744.49 1239.01L2741.05 1254.8C2740.73 1256.27 2740.51 1257.4 2740.38 1258.19 2740.26 1258.98 2740.15 1259.83 2740.06 1260.74 2739.97 1261.65 2739.92 1262.47 2739.92 1263.18 2739.92 1264.29 2740.1 1265.16 2740.46 1265.79 2740.82 1266.42 2741.36 1266.87 2742.07 1267.16 2742.79 1267.44 2744.02 1267.66 2745.78 1267.8L2745.19 1270.43 2723.11 1270.43 2723.7 1267.8C2725.06 1267.59 2726.08 1267.24 2726.77 1266.76 2727.45 1266.27 2728.02 1265.6 2728.48 1264.74 2728.95 1263.88 2729.38 1262.83 2729.77 1261.6 2730.17 1260.36 2730.76 1257.97 2731.55 1254.43L2740.68 1213.07C2741.46 1209.49 2741.86 1206.66 2741.86 1204.59 2741.86 1202.83 2741.45 1201.61 2740.62 1200.93 2739.8 1200.25 2738.46 1199.86 2736.59 1199.75Z" fill-rule="evenodd"/><text fill="#000000" fill-opacity="0" font-family="Arial,Arial_MSFontService,sans-serif" font-size="73.3154" x="2723.11" y="1261.27">𝑃</text><path d="M2798.7 1197.12 2854.77 1197.12 2850.58 1216.03 2845.43 1216.03C2845.43 1212.55 2845.34 1209.95 2845.16 1208.21 2844.98 1206.47 2844.64 1205.15 2844.14 1204.24 2843.64 1203.32 2843.02 1202.7 2842.28 1202.36 2841.55 1202.02 2840.25 1201.85 2838.39 1201.85L2830.44 1201.85 2818.79 1254.8C2818.46 1256.2 2818.24 1257.31 2818.11 1258.14 2817.99 1258.96 2817.88 1259.83 2817.79 1260.74 2817.7 1261.65 2817.66 1262.47 2817.66 1263.18 2817.66 1264.29 2817.84 1265.16 2818.19 1265.79 2818.55 1266.42 2819.09 1266.87 2819.81 1267.16 2820.52 1267.44 2821.76 1267.66 2823.51 1267.8L2822.92 1270.43 2800.31 1270.43 2800.9 1267.8C2802.33 1267.59 2803.39 1267.3 2804.07 1266.94 2804.75 1266.59 2805.35 1266.03 2805.87 1265.28 2806.39 1264.53 2806.91 1263.34 2807.43 1261.73 2807.94 1260.12 2808.56 1257.69 2809.28 1254.43L2820.77 1201.85 2813.95 1201.85C2811.73 1201.85 2809.96 1202.17 2808.63 1202.81 2807.31 1203.46 2805.98 1204.66 2804.66 1206.41 2803.33 1208.17 2801.72 1211.1 2799.83 1215.22L2794.67 1215.22Z" fill-rule="evenodd"/><text fill="#000000" fill-opacity="0" font-family="Arial,Arial_MSFontService,sans-serif" font-size="73.3154" x="2794.67" y="1261.27">𝑇</text><path d="M2866.34 1251.99C2863.84 1255.61 2861.35 1259.21 2858.86 1262.78 2856.38 1266.34 2853.87 1269.92 2851.34 1273.52L2851.34 1273.99 2866.34 1273.99 2866.34 1266.14C2866.34 1265.25 2866.36 1264.16 2866.38 1262.85 2866.41 1261.55 2866.44 1260.23 2866.48 1258.89 2866.52 1257.55 2866.57 1256.27 2866.62 1255.06 2866.67 1253.85 2866.72 1252.83 2866.77 1251.99ZM2867.48 1242.85 2873.69 1242.85 2873.69 1273.99 2874.39 1273.99C2875.46 1273.99 2876.33 1273.93 2876.99 1273.83 2877.65 1273.73 2878.19 1273.51 2878.59 1273.19 2878.99 1272.86 2879.33 1272.4 2879.61 1271.82 2879.88 1271.23 2880.17 1270.47 2880.49 1269.53L2883.81 1269.53C2883.73 1270.97 2883.64 1272.39 2883.55 1273.79 2883.46 1275.2 2883.38 1276.63 2883.3 1278.09L2873.69 1278.09 2873.69 1283.21C2873.69 1284.72 2873.72 1285.89 2873.79 1286.72 2873.85 1287.55 2874.05 1288.21 2874.37 1288.67 2874.7 1289.14 2875.18 1289.49 2875.82 1289.73 2876.46 1289.96 2877.35 1290.24 2878.49 1290.55L2878.49 1292.89 2861.62 1292.89 2861.62 1290.55C2862.4 1290.34 2863.06 1290.15 2863.61 1289.98 2864.16 1289.81 2864.61 1289.62 2864.98 1289.4 2865.34 1289.18 2865.61 1288.92 2865.78 1288.62 2865.95 1288.32 2866.08 1287.94 2866.17 1287.48 2866.26 1287.03 2866.31 1286.45 2866.33 1285.76 2866.34 1285.07 2866.34 1284.22 2866.34 1283.21L2866.34 1278.09 2844.35 1278.09 2844.35 1275C2848.23 1269.61 2852.09 1264.25 2855.92 1258.93 2859.74 1253.6 2863.6 1248.24 2867.48 1242.85Z" fill-rule="evenodd"/><text fill="#000000" fill-opacity="0" font-family="Arial,Arial_MSFontService,sans-serif" font-size="50.0391" x="2844.35" y="1286.64">4</text><path d="M2766.08 2083.28C2769.34 2083.28 2772.36 2083.48 2775.13 2083.87 2777.91 2084.27 2781 2084.98 2784.4 2086.02L2781.18 2100.58 2776.02 2100.58C2775.73 2096.17 2774.78 2093 2773.15 2091.05 2771.52 2089.09 2768.89 2088.12 2765.28 2088.12 2760.34 2088.12 2755.74 2090.59 2751.5 2095.53 2747.26 2100.47 2743.9 2107 2741.43 2115.11 2738.96 2123.22 2737.72 2130.75 2737.72 2137.69 2737.72 2143.14 2738.69 2147.15 2740.62 2149.72 2742.56 2152.3 2745.53 2153.59 2749.54 2153.59 2752.23 2153.59 2754.57 2153.19 2756.58 2152.38 2758.58 2151.58 2760.46 2150.22 2762.22 2148.3 2763.97 2146.39 2765.71 2143.71 2767.43 2140.27L2772.58 2140.27 2769.31 2155.53C2762.61 2157.39 2755.59 2158.32 2748.25 2158.32 2741.52 2158.32 2736.4 2156.38 2732.89 2152.52 2729.38 2148.65 2727.63 2142.99 2727.63 2135.54 2727.63 2130.28 2728.57 2124.21 2730.45 2117.34 2732.33 2110.46 2734.98 2104.43 2738.42 2099.24 2741.86 2094.04 2745.92 2090.09 2750.61 2087.37 2755.31 2084.64 2760.46 2083.28 2766.08 2083.28Z" fill-rule="evenodd"/><text fill="#000000" fill-opacity="0" font-family="Arial,Arial_MSFontService,sans-serif" font-size="75.0342" x="2727.63" y="2148.94">𝐶</text><path d="M2798.88 2084.14 2854.96 2084.14 2850.77 2103.05 2845.61 2103.05C2845.61 2099.58 2845.52 2096.97 2845.34 2095.23 2845.17 2093.5 2844.82 2092.17 2844.32 2091.26 2843.82 2090.35 2843.2 2089.72 2842.47 2089.38 2841.74 2089.04 2840.44 2088.87 2838.58 2088.87L2830.63 2088.87 2818.97 2141.83C2818.65 2143.23 2818.43 2144.34 2818.3 2145.16 2818.18 2145.98 2818.07 2146.85 2817.98 2147.76 2817.89 2148.68 2817.84 2149.49 2817.84 2150.21 2817.84 2151.32 2818.02 2152.19 2818.38 2152.81 2818.74 2153.44 2819.28 2153.9 2819.99 2154.18 2820.71 2154.47 2821.94 2154.68 2823.7 2154.83L2823.11 2157.46 2800.5 2157.46 2801.09 2154.83C2802.52 2154.61 2803.57 2154.33 2804.26 2153.97 2804.94 2153.61 2805.54 2153.05 2806.05 2152.3 2806.57 2151.55 2807.09 2150.37 2807.61 2148.76 2808.13 2147.15 2808.75 2144.71 2809.47 2141.45L2820.96 2088.87 2814.14 2088.87C2811.92 2088.87 2810.15 2089.19 2808.82 2089.84 2807.5 2090.48 2806.17 2091.68 2804.85 2093.44 2803.52 2095.19 2801.91 2098.13 2800.01 2102.24L2794.86 2102.24Z" fill-rule="evenodd"/><text fill="#000000" fill-opacity="0" font-family="Arial,Arial_MSFontService,sans-serif" font-size="73.3154" x="2794.86" y="2148.29">𝑇</text><path d="M2866.53 2139.02C2864.03 2142.64 2861.54 2146.23 2859.05 2149.8 2856.56 2153.37 2854.06 2156.95 2851.53 2160.54L2851.53 2161.01 2866.53 2161.01 2866.53 2153.16C2866.53 2152.27 2866.54 2151.18 2866.57 2149.88 2866.6 2148.58 2866.63 2147.25 2866.67 2145.91 2866.71 2144.57 2866.75 2143.3 2866.81 2142.09 2866.86 2140.87 2866.91 2139.85 2866.96 2139.02ZM2867.66 2129.88 2873.88 2129.88 2873.88 2161.01 2874.58 2161.01C2875.65 2161.01 2876.51 2160.96 2877.18 2160.85 2877.84 2160.75 2878.37 2160.54 2878.78 2160.21 2879.18 2159.88 2879.52 2159.43 2879.79 2158.84 2880.07 2158.26 2880.36 2157.5 2880.67 2156.56L2883.99 2156.56C2883.91 2157.99 2883.83 2159.41 2883.74 2160.82 2883.65 2162.22 2883.56 2163.65 2883.48 2165.11L2873.88 2165.11 2873.88 2170.23C2873.88 2171.74 2873.91 2172.91 2873.97 2173.75 2874.04 2174.58 2874.23 2175.23 2874.56 2175.7 2874.88 2176.17 2875.37 2176.52 2876 2176.75 2876.64 2176.99 2877.53 2177.26 2878.68 2177.57L2878.68 2179.92 2861.81 2179.92 2861.81 2177.57C2862.59 2177.37 2863.25 2177.18 2863.8 2177.01 2864.34 2176.84 2864.8 2176.64 2865.16 2176.42 2865.53 2176.2 2865.8 2175.94 2865.97 2175.64 2866.13 2175.34 2866.26 2174.96 2866.36 2174.51 2866.45 2174.05 2866.5 2173.48 2866.51 2172.79 2866.53 2172.1 2866.53 2171.25 2866.53 2170.23L2866.53 2165.11 2844.54 2165.11 2844.54 2162.03C2848.42 2156.64 2852.27 2151.28 2856.1 2145.95 2859.93 2140.63 2863.78 2135.27 2867.66 2129.88Z" fill-rule="evenodd"/><text fill="#000000" fill-opacity="0" font-family="Arial,Arial_MSFontService,sans-serif" font-size="50.0391" x="2844.54" y="2173.66">4</text><path d="M3103.35 1682.63 3124.83 1682.63 3124.24 1685.27C3122.88 1685.55 3121.91 1685.88 3121.32 1686.23 3120.73 1686.59 3120.2 1687.13 3119.73 1687.84 3119.27 1688.56 3118.78 1689.68 3118.28 1691.2 3117.78 1692.72 3117.15 1695.2 3116.4 1698.64L3112.59 1715.77 3114.36 1715.77C3115.86 1715.77 3117.23 1715.52 3118.47 1715.02 3119.7 1714.52 3121.15 1713.61 3122.79 1712.28 3124.44 1710.96 3127.06 1708.52 3130.66 1704.98 3134.26 1701.43 3136.82 1698.74 3138.34 1696.9 3139.86 1695.05 3140.97 1693.46 3141.67 1692.11 3142.37 1690.77 3142.72 1689.55 3142.72 1688.44 3142.72 1687.54 3142.36 1686.82 3141.65 1686.26 3140.93 1685.71 3139.91 1685.37 3138.58 1685.27L3139.18 1682.63 3162.22 1682.63 3161.63 1685.27C3160.19 1685.48 3158.57 1686.22 3156.77 1687.5 3154.96 1688.77 3152.19 1691.25 3148.47 1694.93L3127.63 1715.24 3139.07 1742.74C3140.25 1745.57 3141.23 1747.61 3141.99 1748.86 3142.76 1750.11 3143.69 1751.11 3144.76 1751.84 3145.84 1752.58 3147.16 1753.07 3148.74 1753.32L3148.14 1755.95 3127.41 1755.95 3128 1753.32C3129.94 1753.14 3130.9 1752.28 3130.9 1750.74 3130.9 1749.77 3130.71 1748.67 3130.31 1747.44 3129.92 1746.2 3129.45 1744.92 3128.92 1743.6L3121.93 1726.52C3121.11 1724.48 3120.39 1723.04 3119.79 1722.22 3119.18 1721.4 3118.53 1720.82 3117.85 1720.5 3117.17 1720.18 3116.12 1720.02 3114.68 1720.02L3111.68 1720.02 3107.22 1740.32C3106.75 1742.47 3106.45 1744.16 3106.3 1745.4 3106.16 1746.63 3106.09 1747.73 3106.09 1748.7 3106.09 1750.31 3106.49 1751.45 3107.3 1752.11 3108.1 1752.77 3109.46 1753.18 3111.35 1753.32L3110.76 1755.95 3089.28 1755.95 3089.87 1753.32C3091.23 1753.1 3092.25 1752.75 3092.93 1752.27 3093.61 1751.79 3094.18 1751.12 3094.65 1750.26 3095.11 1749.4 3095.54 1748.35 3095.94 1747.11 3096.33 1745.88 3096.92 1743.49 3097.71 1739.94L3106.84 1698.59C3107.63 1695.01 3108.02 1692.12 3108.02 1689.94 3108.02 1688.26 3107.6 1687.08 3106.76 1686.42 3105.92 1685.76 3104.59 1685.37 3102.76 1685.27Z" fill-rule="evenodd"/><text fill="#000000" fill-opacity="0" font-family="Arial,Arial_MSFontService,sans-serif" font-size="73.3154" x="3089.28" y="1746.79">𝐾</text><rect x="1930.5" y="1551.5" width="325" height="325" stroke="#000000" stroke-width="9.16667" fill="#FFFFFF"/><path d="M2051.89 1676.46 2109.39 1676.46 2105.08 1695.64 2099.08 1695.64C2098.91 1692.02 2098.6 1689.29 2098.14 1687.46 2097.68 1685.62 2097.13 1684.36 2096.49 1683.67 2095.84 1682.99 2095.07 1682.53 2094.17 1682.3 2093.28 1682.07 2092 1681.96 2090.33 1681.96L2069.96 1681.96 2062.83 1714.71 2074.77 1714.71C2077.73 1714.71 2079.99 1714.01 2081.55 1712.61 2083.11 1711.22 2084.68 1708.91 2086.27 1705.71L2091.96 1705.71 2086.33 1729.71 2081.02 1729.71C2081.02 1726.37 2080.81 1724.11 2080.39 1722.92 2079.98 1721.74 2079.36 1720.99 2078.55 1720.67 2077.74 1720.36 2076.27 1720.21 2074.14 1720.21L2061.64 1720.21 2053.64 1756.27 2072.14 1756.27C2074.6 1756.27 2076.55 1756.02 2077.99 1755.52 2079.42 1755.02 2080.78 1754.21 2082.05 1753.08 2083.32 1751.96 2084.59 1750.38 2085.86 1748.36 2087.13 1746.34 2088.64 1743.6 2090.39 1740.14L2096.46 1740.14 2090.96 1761.77 2035.52 1761.77 2036.21 1758.71C2037.79 1758.46 2038.98 1758.05 2039.77 1757.49 2040.56 1756.92 2041.23 1756.14 2041.77 1755.14 2042.31 1754.14 2042.81 1752.92 2043.27 1751.49 2043.73 1750.05 2044.41 1747.27 2045.33 1743.14L2055.96 1695.02C2056.87 1690.85 2057.33 1687.5 2057.33 1684.96 2057.33 1683 2056.84 1681.63 2055.86 1680.86 2054.88 1680.09 2053.33 1679.64 2051.21 1679.52Z" fill-rule="evenodd"/><text fill="#000000" fill-opacity="0" font-family="Arial,Arial_MSFontService,sans-serif" font-size="85.3125" x="2035.52" y="1751.1">𝐸</text><path d="M2255.5 1773.5 2203.5 1715.5 2255.5 1657.5Z" stroke="#000000" stroke-width="9.16667" fill="#FFFFFF" fill-rule="evenodd"/><path d="M1.98758e-05-4.58333 60.3048-4.58307 60.3047 4.58359-1.98758e-05 4.58333ZM55.7215-13.7498 83.2214 0.000360892 55.7214 13.7502Z" transform="matrix(-1 0 0 1 2338.72 1715.5)"/><path d="M2097.08 1315.49 2097.31 1529.34 2088.15 1529.35 2087.92 1315.51ZM2106.48 1524.75 2092.76 1552.26 2078.98 1524.78Z"/><path d="M4.58333-1.06616e-05 4.58364 132.228-4.58303 132.228-4.58333 1.06616e-05ZM13.7503 127.645 0.000360892 155.145-13.7497 127.645Z" transform="matrix(-1 0 0 1 2092.5 1876.5)"/><path d="M2028.87 1201.85C2026.65 1201.85 2024.33 1201.9 2021.89 1202.01L2014.59 1234.56 2020.17 1234.56C2024.5 1234.56 2028.01 1234.11 2030.67 1233.21 2033.34 1232.32 2035.52 1230.93 2037.23 1229.05 2038.93 1227.17 2040.24 1224.94 2041.17 1222.36 2042.1 1219.79 2042.57 1216.96 2042.57 1213.88 2042.57 1209.72 2041.51 1206.68 2039.4 1204.75 2037.29 1202.81 2033.78 1201.85 2028.87 1201.85ZM2006.37 1197.12 2030.05 1197.12C2034.32 1197.12 2037.82 1197.45 2040.56 1198.11 2043.29 1198.78 2045.55 1199.8 2047.32 1201.17 2049.1 1202.55 2050.42 1204.3 2051.3 1206.41 2052.17 1208.52 2052.61 1210.98 2052.61 1213.77 2052.61 1219.14 2051.34 1223.8 2048.8 1227.73 2046.26 1231.67 2042.81 1234.57 2038.46 1236.44 2034.11 1238.3 2028.89 1239.23 2022.8 1239.23 2019.15 1239.23 2016.11 1239.16 2013.67 1239.01L2010.24 1254.8C2009.91 1256.27 2009.69 1257.4 2009.56 1258.19 2009.44 1258.98 2009.33 1259.83 2009.24 1260.74 2009.15 1261.65 2009.11 1262.47 2009.11 1263.18 2009.11 1264.29 2009.29 1265.16 2009.64 1265.79 2010 1266.42 2010.54 1266.87 2011.26 1267.16 2011.97 1267.44 2013.21 1267.66 2014.96 1267.8L2014.37 1270.43 1992.3 1270.43 1992.89 1267.8C1994.25 1267.59 1995.27 1267.24 1995.95 1266.76 1996.63 1266.27 1997.2 1265.6 1997.67 1264.74 1998.13 1263.88 1998.56 1262.83 1998.96 1261.6 1999.35 1260.36 1999.94 1257.97 2000.73 1254.43L2009.86 1213.07C2010.65 1209.49 2011.04 1206.66 2011.04 1204.59 2011.04 1202.83 2010.63 1201.61 2009.81 1200.93 2008.98 1200.25 2007.64 1199.86 2005.78 1199.75Z" fill-rule="evenodd"/><text fill="#000000" fill-opacity="0" font-family="Arial,Arial_MSFontService,sans-serif" font-size="73.3154" x="1992.3" y="1261.27">𝑃</text><path d="M2067.88 1197.12 2123.96 1197.12 2119.77 1216.03 2114.61 1216.03C2114.61 1212.55 2114.52 1209.95 2114.34 1208.21 2114.16 1206.47 2113.82 1205.15 2113.32 1204.24 2112.82 1203.32 2112.2 1202.7 2111.47 1202.36 2110.73 1202.02 2109.44 1201.85 2107.57 1201.85L2099.62 1201.85 2087.97 1254.8C2087.65 1256.2 2087.42 1257.31 2087.3 1258.14 2087.17 1258.96 2087.06 1259.83 2086.98 1260.74 2086.89 1261.65 2086.84 1262.47 2086.84 1263.18 2086.84 1264.29 2087.02 1265.16 2087.38 1265.79 2087.74 1266.42 2088.27 1266.87 2088.99 1267.16 2089.71 1267.44 2090.94 1267.66 2092.7 1267.8L2092.1 1270.43 2069.49 1270.43 2070.08 1267.8C2071.52 1267.59 2072.57 1267.3 2073.25 1266.94 2073.93 1266.59 2074.53 1266.03 2075.05 1265.28 2075.57 1264.53 2076.09 1263.34 2076.61 1261.73 2077.13 1260.12 2077.75 1257.69 2078.46 1254.43L2089.96 1201.85 2083.14 1201.85C2080.92 1201.85 2079.14 1202.17 2077.82 1202.81 2076.49 1203.46 2075.17 1204.66 2073.84 1206.41 2072.52 1208.17 2070.91 1211.1 2069.01 1215.22L2063.85 1215.22Z" fill-rule="evenodd"/><text fill="#000000" fill-opacity="0" font-family="Arial,Arial_MSFontService,sans-serif" font-size="73.3154" x="2063.85" y="1261.27">𝑇</text><path d="M2136.82 1242.31C2138.91 1242.31 2140.85 1242.53 2142.66 1242.97 2144.47 1243.41 2146.04 1244.08 2147.37 1244.98 2148.7 1245.88 2149.73 1247 2150.47 1248.34 2151.22 1249.68 2151.59 1251.24 2151.59 1253.01 2151.59 1254.68 2151.35 1256.15 2150.89 1257.42 2150.42 1258.7 2149.69 1259.86 2148.72 1260.9 2147.74 1261.94 2146.54 1262.89 2145.12 1263.73 2143.7 1264.58 2142.07 1265.39 2140.22 1266.17L2140.22 1266.64C2141.97 1266.96 2143.59 1267.46 2145.1 1268.15 2146.61 1268.84 2147.94 1269.71 2149.07 1270.76 2150.2 1271.82 2151.09 1273.04 2151.74 1274.42 2152.4 1275.8 2152.72 1277.32 2152.72 1278.99 2152.72 1281.07 2152.33 1283 2151.55 1284.79 2150.77 1286.57 2149.6 1288.11 2148.03 1289.42 2146.47 1290.72 2144.54 1291.73 2142.25 1292.46 2139.96 1293.19 2137.28 1293.56 2134.21 1293.56 2131.78 1293.56 2129.32 1293.32 2126.82 1292.83 2124.32 1292.35 2121.95 1291.72 2119.71 1290.94L2119.71 1282.5 2124.75 1282.5C2125.17 1283.8 2125.66 1284.92 2126.24 1285.84 2126.81 1286.77 2127.48 1287.52 2128.25 1288.11 2129.02 1288.69 2129.9 1289.12 2130.9 1289.38 2131.91 1289.64 2133.05 1289.77 2134.32 1289.77 2137.68 1289.77 2140.23 1288.97 2141.96 1287.37 2143.69 1285.76 2144.56 1283.34 2144.56 1280.08 2144.56 1276.62 2143.42 1273.99 2141.14 1272.21 2138.86 1270.43 2135.48 1269.53 2131 1269.53L2127.56 1269.53 2127.56 1265.78C2130.3 1265.65 2132.66 1265.27 2134.65 1264.63 2136.65 1263.99 2138.31 1263.17 2139.64 1262.15 2140.96 1261.14 2141.95 1259.95 2142.6 1258.6 2143.25 1257.24 2143.58 1255.8 2143.58 1254.26 2143.58 1251.76 2142.84 1249.79 2141.35 1248.34 2139.87 1246.9 2137.72 1246.17 2134.91 1246.17 2132.54 1246.17 2130.55 1246.83 2128.95 1248.13 2127.35 1249.43 2126.12 1251.37 2125.26 1253.95L2120.3 1253.95 2120.3 1246.25C2123.37 1244.95 2126.27 1243.97 2128.99 1243.3 2131.71 1242.64 2134.32 1242.31 2136.82 1242.31Z" fill-rule="evenodd"/><text fill="#000000" fill-opacity="0" font-family="Arial,Arial_MSFontService,sans-serif" font-size="51.25" x="2119.71" y="1287.15">3</text><path d="M2035.27 2083.28C2038.53 2083.28 2041.54 2083.48 2044.32 2083.87 2047.09 2084.27 2050.18 2084.98 2053.58 2086.02L2050.36 2100.58 2045.2 2100.58C2044.92 2096.17 2043.96 2093 2042.33 2091.05 2040.7 2089.09 2038.08 2088.12 2034.46 2088.12 2029.52 2088.12 2024.93 2090.59 2020.68 2095.53 2016.44 2100.47 2013.08 2107 2010.61 2115.11 2008.14 2123.22 2006.91 2130.75 2006.91 2137.69 2006.91 2143.14 2007.87 2147.15 2009.81 2149.72 2011.74 2152.3 2014.71 2153.59 2018.72 2153.59 2021.41 2153.59 2023.75 2153.19 2025.76 2152.38 2027.77 2151.58 2029.65 2150.22 2031.4 2148.3 2033.15 2146.39 2034.89 2143.71 2036.61 2140.27L2041.77 2140.27 2038.49 2155.53C2031.79 2157.39 2024.78 2158.32 2017.43 2158.32 2010.7 2158.32 2005.58 2156.38 2002.07 2152.52 1998.56 2148.65 1996.81 2142.99 1996.81 2135.54 1996.81 2130.28 1997.75 2124.21 1999.63 2117.34 2001.51 2110.46 2004.17 2104.43 2007.61 2099.24 2011.04 2094.04 2015.11 2090.09 2019.8 2087.37 2024.49 2084.64 2029.65 2083.28 2035.27 2083.28Z" fill-rule="evenodd"/><text fill="#000000" fill-opacity="0" font-family="Arial,Arial_MSFontService,sans-serif" font-size="75.0342" x="1996.81" y="2148.94">𝐶</text><path d="M2068.07 2084.14 2124.14 2084.14 2119.95 2103.05 2114.8 2103.05C2114.8 2099.58 2114.71 2096.97 2114.53 2095.23 2114.35 2093.5 2114.01 2092.17 2113.51 2091.26 2113.01 2090.35 2112.39 2089.72 2111.65 2089.38 2110.92 2089.04 2109.62 2088.87 2107.76 2088.87L2099.81 2088.87 2088.16 2141.83C2087.83 2143.23 2087.61 2144.34 2087.48 2145.16 2087.36 2145.98 2087.25 2146.85 2087.16 2147.76 2087.07 2148.68 2087.03 2149.49 2087.03 2150.21 2087.03 2151.32 2087.21 2152.19 2087.56 2152.81 2087.92 2153.44 2088.46 2153.9 2089.18 2154.18 2089.89 2154.47 2091.13 2154.68 2092.88 2154.83L2092.29 2157.46 2069.68 2157.46 2070.27 2154.83C2071.7 2154.61 2072.76 2154.33 2073.44 2153.97 2074.12 2153.61 2074.72 2153.05 2075.24 2152.3 2075.76 2151.55 2076.28 2150.37 2076.8 2148.76 2077.32 2147.15 2077.93 2144.71 2078.65 2141.45L2090.14 2088.87 2083.32 2088.87C2081.1 2088.87 2079.33 2089.19 2078 2089.84 2076.68 2090.48 2075.35 2091.68 2074.03 2093.44 2072.7 2095.19 2071.09 2098.13 2069.2 2102.24L2064.04 2102.24Z" fill-rule="evenodd"/><text fill="#000000" fill-opacity="0" font-family="Arial,Arial_MSFontService,sans-serif" font-size="73.3154" x="2064.04" y="2148.29">𝑇</text><path d="M2137.01 2129.33C2139.09 2129.33 2141.04 2129.55 2142.85 2130 2144.66 2130.44 2146.23 2131.11 2147.56 2132.01 2148.88 2132.91 2149.92 2134.03 2150.66 2135.37 2151.4 2136.71 2151.77 2138.26 2151.77 2140.03 2151.77 2141.7 2151.54 2143.17 2151.07 2144.45 2150.6 2145.72 2149.88 2146.88 2148.9 2147.93 2147.93 2148.97 2146.73 2149.91 2145.31 2150.76 2143.89 2151.6 2142.26 2152.42 2140.41 2153.2L2140.41 2153.67C2142.15 2153.98 2143.78 2154.48 2145.29 2155.17 2146.8 2155.86 2148.12 2156.73 2149.26 2157.79 2150.39 2158.84 2151.28 2160.06 2151.93 2161.44 2152.58 2162.82 2152.91 2164.34 2152.91 2166.01 2152.91 2168.09 2152.52 2170.03 2151.74 2171.81 2150.95 2173.6 2149.78 2175.14 2148.22 2176.44 2146.66 2177.74 2144.73 2178.76 2142.44 2179.49 2140.15 2180.22 2137.47 2180.58 2134.39 2180.58 2131.97 2180.58 2129.51 2180.34 2127.01 2179.86 2124.51 2179.38 2122.14 2178.75 2119.9 2177.96L2119.9 2169.53 2124.94 2169.53C2125.36 2170.83 2125.85 2171.94 2126.42 2172.87 2127 2173.79 2127.67 2174.55 2128.44 2175.13 2129.2 2175.72 2130.09 2176.14 2131.09 2176.4 2132.09 2176.66 2133.23 2176.79 2134.51 2176.79 2137.87 2176.79 2140.41 2175.99 2142.15 2174.39 2143.88 2172.79 2144.74 2170.36 2144.74 2167.1 2144.74 2163.64 2143.6 2161.02 2141.33 2159.23 2139.05 2157.45 2135.67 2156.56 2131.19 2156.56L2127.75 2156.56 2127.75 2152.81C2130.49 2152.68 2132.85 2152.29 2134.84 2151.66 2136.83 2151.02 2138.49 2150.19 2139.82 2149.18 2141.15 2148.16 2142.14 2146.97 2142.79 2145.62 2143.44 2144.27 2143.77 2142.82 2143.77 2141.28 2143.77 2138.78 2143.02 2136.81 2141.54 2135.37 2140.06 2133.92 2137.91 2133.2 2135.1 2133.2 2132.73 2133.2 2130.74 2133.85 2129.14 2135.15 2127.54 2136.45 2126.31 2138.39 2125.45 2140.97L2120.49 2140.97 2120.49 2133.28C2123.56 2131.97 2126.46 2130.99 2129.18 2130.33 2131.9 2129.66 2134.51 2129.33 2137.01 2129.33Z" fill-rule="evenodd"/><text fill="#000000" fill-opacity="0" font-family="Arial,Arial_MSFontService,sans-serif" font-size="51.25" x="2119.9" y="2174.18">3</text><path d="M2374.14 1682.63 2395.62 1682.63 2395.03 1685.27C2393.67 1685.55 2392.69 1685.88 2392.1 1686.23 2391.51 1686.59 2390.98 1687.13 2390.52 1687.84 2390.05 1688.56 2389.57 1689.68 2389.07 1691.2 2388.57 1692.72 2387.94 1695.2 2387.19 1698.64L2383.38 1715.77 2385.15 1715.77C2386.65 1715.77 2388.02 1715.52 2389.26 1715.02 2390.49 1714.52 2391.93 1713.61 2393.58 1712.28 2395.23 1710.96 2397.85 1708.52 2401.45 1704.98 2405.05 1701.43 2407.61 1698.74 2409.13 1696.9 2410.65 1695.05 2411.76 1693.46 2412.46 1692.11 2413.16 1690.77 2413.51 1689.55 2413.51 1688.44 2413.51 1687.54 2413.15 1686.82 2412.43 1686.26 2411.72 1685.71 2410.7 1685.37 2409.37 1685.27L2409.96 1682.63 2433 1682.63 2432.41 1685.27C2430.98 1685.48 2429.36 1686.22 2427.55 1687.5 2425.74 1688.77 2422.98 1691.25 2419.25 1694.93L2398.41 1715.24 2409.86 1742.74C2411.04 1745.57 2412.01 1747.61 2412.78 1748.86 2413.55 1750.11 2414.47 1751.11 2415.55 1751.84 2416.62 1752.58 2417.95 1753.07 2419.52 1753.32L2418.93 1755.95 2398.2 1755.95 2398.79 1753.32C2400.72 1753.14 2401.69 1752.28 2401.69 1750.74 2401.69 1749.77 2401.49 1748.67 2401.1 1747.44 2400.71 1746.2 2400.24 1744.92 2399.7 1743.6L2392.72 1726.52C2391.9 1724.48 2391.18 1723.04 2390.57 1722.22 2389.96 1721.4 2389.32 1720.82 2388.64 1720.5 2387.96 1720.18 2386.9 1720.02 2385.47 1720.02L2382.46 1720.02 2378 1740.32C2377.54 1742.47 2377.23 1744.16 2377.09 1745.4 2376.95 1746.63 2376.88 1747.73 2376.88 1748.7 2376.88 1750.31 2377.28 1751.45 2378.09 1752.11 2378.89 1752.77 2380.24 1753.18 2382.14 1753.32L2381.55 1755.95 2360.07 1755.95 2360.66 1753.32C2362.02 1753.1 2363.04 1752.75 2363.72 1752.27 2364.4 1751.79 2364.97 1751.12 2365.44 1750.26 2365.9 1749.4 2366.33 1748.35 2366.73 1747.11 2367.12 1745.88 2367.71 1743.49 2368.5 1739.94L2377.63 1698.59C2378.42 1695.01 2378.81 1692.12 2378.81 1689.94 2378.81 1688.26 2378.39 1687.08 2377.55 1686.42 2376.71 1685.76 2375.37 1685.37 2373.55 1685.27Z" fill-rule="evenodd"/><text fill="#000000" fill-opacity="0" font-family="Arial,Arial_MSFontService,sans-serif" font-size="73.3154" x="2360.07" y="1746.79">𝐾</text><rect x="1197.5" y="1551.5" width="324" height="325" stroke="#000000" stroke-width="9.16667" fill="#FFFFFF"/><path d="M1318.57 1676.46 1376.07 1676.46 1371.76 1695.64 1365.76 1695.64C1365.59 1692.02 1365.28 1689.29 1364.82 1687.46 1364.36 1685.62 1363.81 1684.36 1363.16 1683.67 1362.52 1682.99 1361.75 1682.53 1360.85 1682.3 1359.96 1682.07 1358.67 1681.96 1357.01 1681.96L1336.63 1681.96 1329.51 1714.71 1341.45 1714.71C1344.4 1714.71 1346.66 1714.01 1348.23 1712.61 1349.79 1711.22 1351.36 1708.91 1352.95 1705.71L1358.63 1705.71 1353.01 1729.71 1347.7 1729.71C1347.7 1726.37 1347.49 1724.11 1347.07 1722.92 1346.65 1721.74 1346.04 1720.99 1345.23 1720.67 1344.41 1720.36 1342.95 1720.21 1340.82 1720.21L1328.32 1720.21 1320.32 1756.27 1338.82 1756.27C1341.28 1756.27 1343.23 1756.02 1344.66 1755.52 1346.1 1755.02 1347.46 1754.21 1348.73 1753.08 1350 1751.96 1351.27 1750.38 1352.54 1748.36 1353.81 1746.34 1355.32 1743.6 1357.07 1740.14L1363.13 1740.14 1357.63 1761.77 1302.2 1761.77 1302.88 1758.71C1304.47 1758.46 1305.65 1758.05 1306.45 1757.49 1307.24 1756.92 1307.9 1756.14 1308.45 1755.14 1308.99 1754.14 1309.49 1752.92 1309.95 1751.49 1310.4 1750.05 1311.09 1747.27 1312.01 1743.14L1322.63 1695.02C1323.55 1690.85 1324.01 1687.5 1324.01 1684.96 1324.01 1683 1323.52 1681.63 1322.54 1680.86 1321.56 1680.09 1320.01 1679.64 1317.88 1679.52Z" fill-rule="evenodd"/><text fill="#000000" fill-opacity="0" font-family="Arial,Arial_MSFontService,sans-serif" font-size="85.3125" x="1302.2" y="1751.1">𝐸</text><path d="M1521.5 1773.5 1470.5 1715.5 1521.5 1657.5Z" stroke="#000000" stroke-width="9.16667" fill="#FFFFFF" fill-rule="evenodd"/><path d="M1.98758e-05-4.58333 60.3048-4.58307 60.3047 4.58359-1.98758e-05 4.58333ZM55.7215-13.7498 83.2214 0.000360892 55.7214 13.7502Z" transform="matrix(-1 0 0 1 1604.72 1715.5)"/><path d="M1364.08 1315.5 1364.15 1529.34 1354.98 1529.35 1354.92 1315.5ZM1373.31 1524.76 1359.57 1552.26 1345.81 1524.77Z"/><path d="M4.58333-1.06616e-05 4.58364 132.228-4.58303 132.228-4.58333 1.06616e-05ZM13.7503 127.645 0.000360892 155.145-13.7497 127.645Z" transform="matrix(-1 0 0 1 1359.5 1876.5)"/><path d="M1295.74 1201.85C1293.52 1201.85 1291.19 1201.9 1288.76 1202.01L1281.45 1234.56 1287.04 1234.56C1291.37 1234.56 1294.87 1234.11 1297.54 1233.21 1300.2 1232.32 1302.39 1230.93 1304.09 1229.05 1305.79 1227.17 1307.11 1224.94 1308.04 1222.36 1308.97 1219.79 1309.43 1216.96 1309.43 1213.88 1309.43 1209.72 1308.38 1206.68 1306.27 1204.75 1304.15 1202.81 1300.64 1201.85 1295.74 1201.85ZM1273.23 1197.12 1296.92 1197.12C1301.18 1197.12 1304.68 1197.45 1307.42 1198.11 1310.16 1198.78 1312.42 1199.8 1314.19 1201.17 1315.96 1202.55 1317.28 1204.3 1318.16 1206.41 1319.04 1208.52 1319.48 1210.98 1319.48 1213.77 1319.48 1219.14 1318.21 1223.8 1315.66 1227.73 1313.12 1231.67 1309.68 1234.57 1305.33 1236.44 1300.97 1238.3 1295.76 1239.23 1289.67 1239.23 1286.02 1239.23 1282.97 1239.16 1280.54 1239.01L1277.1 1254.8C1276.78 1256.27 1276.55 1257.4 1276.43 1258.19 1276.3 1258.98 1276.2 1259.83 1276.11 1260.74 1276.02 1261.65 1275.97 1262.47 1275.97 1263.18 1275.97 1264.29 1276.15 1265.16 1276.51 1265.79 1276.87 1266.42 1277.4 1266.87 1278.12 1267.16 1278.84 1267.44 1280.07 1267.66 1281.83 1267.8L1281.24 1270.43 1259.16 1270.43 1259.75 1267.8C1261.11 1267.59 1262.13 1267.24 1262.81 1266.76 1263.49 1266.27 1264.07 1265.6 1264.53 1264.74 1265 1263.88 1265.43 1262.83 1265.82 1261.6 1266.21 1260.36 1266.81 1257.97 1267.59 1254.43L1276.72 1213.07C1277.51 1209.49 1277.91 1206.66 1277.91 1204.59 1277.91 1202.83 1277.49 1201.61 1276.67 1200.93 1275.85 1200.25 1274.5 1199.86 1272.64 1199.75Z" fill-rule="evenodd"/><text fill="#000000" fill-opacity="0" font-family="Arial,Arial_MSFontService,sans-serif" font-size="73.3154" x="1259.16" y="1261.27">𝑃</text><path d="M1334.75 1197.12 1390.82 1197.12 1386.63 1216.03 1381.47 1216.03C1381.47 1212.55 1381.38 1209.95 1381.21 1208.21 1381.03 1206.47 1380.69 1205.15 1380.18 1204.24 1379.68 1203.32 1379.07 1202.7 1378.33 1202.36 1377.6 1202.02 1376.3 1201.85 1374.44 1201.85L1366.49 1201.85 1354.83 1254.8C1354.51 1256.2 1354.29 1257.31 1354.16 1258.14 1354.04 1258.96 1353.93 1259.83 1353.84 1260.74 1353.75 1261.65 1353.71 1262.47 1353.71 1263.18 1353.71 1264.29 1353.88 1265.16 1354.24 1265.79 1354.6 1266.42 1355.14 1266.87 1355.85 1267.16 1356.57 1267.44 1357.81 1267.66 1359.56 1267.8L1358.97 1270.43 1336.36 1270.43 1336.95 1267.8C1338.38 1267.59 1339.44 1267.3 1340.12 1266.94 1340.8 1266.59 1341.4 1266.03 1341.92 1265.28 1342.44 1264.53 1342.95 1263.34 1343.47 1261.73 1343.99 1260.12 1344.61 1257.69 1345.33 1254.43L1356.82 1201.85 1350 1201.85C1347.78 1201.85 1346.01 1202.17 1344.68 1202.81 1343.36 1203.46 1342.03 1204.66 1340.71 1206.41 1339.38 1208.17 1337.77 1211.1 1335.87 1215.22L1330.72 1215.22Z" fill-rule="evenodd"/><text fill="#000000" fill-opacity="0" font-family="Arial,Arial_MSFontService,sans-serif" font-size="73.3154" x="1330.72" y="1261.27">𝑇</text><path d="M1403.77 1242.31C1406.47 1242.31 1408.78 1242.61 1410.7 1243.23 1412.61 1243.84 1414.17 1244.66 1415.37 1245.71 1416.56 1246.75 1417.43 1248 1417.96 1249.46 1418.5 1250.91 1418.77 1252.49 1418.77 1254.18 1418.77 1255.2 1418.69 1256.14 1418.55 1257.01 1418.41 1257.89 1418.16 1258.75 1417.81 1259.59 1417.46 1260.44 1416.99 1261.29 1416.42 1262.15 1415.85 1263.01 1415.13 1263.92 1414.27 1264.89 1413.62 1265.72 1412.78 1266.68 1411.73 1267.78 1410.69 1268.87 1409.55 1270.04 1408.32 1271.29 1407.08 1272.54 1405.78 1273.84 1404.43 1275.2 1403.08 1276.55 1401.76 1277.89 1400.48 1279.22 1399.21 1280.55 1398.04 1281.84 1396.97 1283.09 1395.9 1284.34 1395.03 1285.48 1394.35 1286.53L1408.8 1286.53C1410.03 1286.53 1411 1286.48 1411.73 1286.39 1412.46 1286.3 1413.07 1286.1 1413.55 1285.78 1414.03 1285.47 1414.44 1285 1414.78 1284.36 1415.12 1283.72 1415.51 1282.84 1415.95 1281.72L1419.59 1281.72C1419.46 1283.57 1419.33 1285.43 1419.21 1287.31 1419.1 1289.18 1418.97 1291.04 1418.84 1292.89L1385.76 1292.89 1385.76 1290.86C1386.38 1289.46 1387.11 1288.07 1387.94 1286.7 1388.78 1285.33 1389.72 1283.95 1390.76 1282.54 1391.8 1281.14 1392.98 1279.68 1394.31 1278.19 1395.64 1276.69 1397.11 1275.13 1398.73 1273.52 1401.17 1271.07 1403.17 1268.98 1404.7 1267.25 1406.24 1265.52 1407.45 1263.97 1408.34 1262.62 1409.22 1261.27 1409.83 1260.02 1410.15 1258.87 1410.48 1257.72 1410.64 1256.5 1410.64 1255.2 1410.64 1253.87 1410.45 1252.65 1410.07 1251.53 1409.7 1250.41 1409.16 1249.46 1408.45 1248.67 1407.75 1247.89 1406.86 1247.28 1405.78 1246.84 1404.7 1246.4 1403.45 1246.17 1402.05 1246.17 1399.62 1246.17 1397.59 1246.83 1395.95 1248.15 1394.31 1249.46 1393.04 1251.37 1392.12 1253.87L1387.01 1253.87 1387.01 1246.25C1390.34 1244.87 1393.41 1243.87 1396.21 1243.24 1399.01 1242.62 1401.53 1242.31 1403.77 1242.31Z" fill-rule="evenodd"/><text fill="#000000" fill-opacity="0" font-family="Arial,Arial_MSFontService,sans-serif" font-size="50.5859" x="1385.76" y="1286.57">2</text><path d="M1301.95 2083.28C1305.2 2083.28 1308.22 2083.48 1311 2083.87 1313.77 2084.27 1316.86 2084.98 1320.26 2086.02L1317.04 2100.58 1311.88 2100.58C1311.6 2096.17 1310.64 2093 1309.01 2091.05 1307.38 2089.09 1304.76 2088.12 1301.14 2088.12 1296.2 2088.12 1291.61 2090.59 1287.36 2095.53 1283.12 2100.47 1279.76 2107 1277.29 2115.11 1274.82 2123.22 1273.59 2130.75 1273.59 2137.69 1273.59 2143.14 1274.55 2147.15 1276.49 2149.72 1278.42 2152.3 1281.39 2153.59 1285.4 2153.59 1288.09 2153.59 1290.43 2153.19 1292.44 2152.38 1294.44 2151.58 1296.32 2150.22 1298.08 2148.3 1299.83 2146.39 1301.57 2143.71 1303.29 2140.27L1308.44 2140.27 1305.17 2155.53C1298.47 2157.39 1291.45 2158.32 1284.11 2158.32 1277.38 2158.32 1272.26 2156.38 1268.75 2152.52 1265.24 2148.65 1263.49 2142.99 1263.49 2135.54 1263.49 2130.28 1264.43 2124.21 1266.31 2117.34 1268.19 2110.46 1270.85 2104.43 1274.28 2099.24 1277.72 2094.04 1281.79 2090.09 1286.48 2087.37 1291.17 2084.64 1296.32 2083.28 1301.95 2083.28Z" fill-rule="evenodd"/><text fill="#000000" fill-opacity="0" font-family="Arial,Arial_MSFontService,sans-serif" font-size="75.0342" x="1263.49" y="2148.94">𝐶</text><path d="M1334.75 2084.14 1390.82 2084.14 1386.63 2103.05 1381.47 2103.05C1381.47 2099.58 1381.39 2096.97 1381.21 2095.23 1381.03 2093.5 1380.69 2092.17 1380.19 2091.26 1379.68 2090.35 1379.07 2089.72 1378.33 2089.38 1377.6 2089.04 1376.3 2088.87 1374.44 2088.87L1366.49 2088.87 1354.83 2141.83C1354.51 2143.23 1354.29 2144.34 1354.16 2145.16 1354.04 2145.98 1353.93 2146.85 1353.84 2147.76 1353.75 2148.68 1353.71 2149.49 1353.71 2150.21 1353.71 2151.32 1353.89 2152.19 1354.24 2152.81 1354.6 2153.44 1355.14 2153.9 1355.85 2154.18 1356.57 2154.47 1357.81 2154.68 1359.56 2154.83L1358.97 2157.46 1336.36 2157.46 1336.95 2154.83C1338.38 2154.61 1339.44 2154.33 1340.12 2153.97 1340.8 2153.61 1341.4 2153.05 1341.92 2152.3 1342.44 2151.55 1342.95 2150.37 1343.47 2148.76 1343.99 2147.15 1344.61 2144.71 1345.33 2141.45L1356.82 2088.87 1350 2088.87C1347.78 2088.87 1346.01 2089.19 1344.68 2089.84 1343.36 2090.48 1342.03 2091.68 1340.71 2093.44 1339.38 2095.19 1337.77 2098.13 1335.87 2102.24L1330.72 2102.24Z" fill-rule="evenodd"/><text fill="#000000" fill-opacity="0" font-family="Arial,Arial_MSFontService,sans-serif" font-size="73.3154" x="1330.72" y="2148.29">𝑇</text><path d="M1403.77 2129.33C1406.47 2129.33 1408.79 2129.64 1410.7 2130.25 1412.61 2130.86 1414.17 2131.69 1415.37 2132.73 1416.57 2133.77 1417.43 2135.02 1417.96 2136.48 1418.5 2137.94 1418.77 2139.51 1418.77 2141.21 1418.77 2142.22 1418.69 2143.17 1418.55 2144.04 1418.41 2144.91 1418.16 2145.77 1417.81 2146.62 1417.46 2147.46 1416.99 2148.32 1416.42 2149.18 1415.85 2150.03 1415.13 2150.95 1414.27 2151.91 1413.62 2152.74 1412.78 2153.71 1411.73 2154.8 1410.69 2155.89 1409.55 2157.07 1408.32 2158.32 1407.08 2159.57 1405.78 2160.87 1404.43 2162.22 1403.08 2163.58 1401.76 2164.92 1400.48 2166.25 1399.21 2167.57 1398.04 2168.86 1396.97 2170.11 1395.9 2171.36 1395.03 2172.51 1394.35 2173.55L1408.8 2173.55C1410.03 2173.55 1411.01 2173.5 1411.73 2173.41 1412.46 2173.32 1413.07 2173.12 1413.55 2172.81 1414.03 2172.5 1414.44 2172.02 1414.78 2171.38 1415.12 2170.74 1415.51 2169.87 1415.95 2168.75L1419.59 2168.75C1419.46 2170.59 1419.33 2172.46 1419.21 2174.33 1419.1 2176.21 1418.97 2178.07 1418.84 2179.92L1385.76 2179.92 1385.76 2177.89C1386.38 2176.48 1387.11 2175.09 1387.95 2173.73 1388.78 2172.36 1389.72 2170.97 1390.76 2169.57 1391.8 2168.16 1392.98 2166.71 1394.31 2165.21 1395.64 2163.71 1397.11 2162.16 1398.73 2160.54 1401.17 2158.09 1403.17 2156 1404.7 2154.27 1406.24 2152.54 1407.45 2151 1408.34 2149.64 1409.22 2148.29 1409.83 2147.04 1410.15 2145.89 1410.48 2144.75 1410.64 2143.52 1410.64 2142.22 1410.64 2140.89 1410.45 2139.67 1410.07 2138.55 1409.7 2137.43 1409.16 2136.48 1408.45 2135.7 1407.75 2134.92 1406.86 2134.31 1405.78 2133.86 1404.7 2133.42 1403.45 2133.2 1402.05 2133.2 1399.63 2133.2 1397.59 2133.86 1395.95 2135.17 1394.31 2136.49 1393.04 2138.39 1392.13 2140.89L1387.01 2140.89 1387.01 2133.28C1390.34 2131.9 1393.41 2130.89 1396.21 2130.27 1399.01 2129.64 1401.53 2129.33 1403.77 2129.33Z" fill-rule="evenodd"/><text fill="#000000" fill-opacity="0" font-family="Arial,Arial_MSFontService,sans-serif" font-size="50.5859" x="1385.76" y="2173.59">2</text><path d="M1640.82 1682.63 1662.3 1682.63 1661.71 1685.27C1660.35 1685.55 1659.37 1685.88 1658.78 1686.23 1658.19 1686.59 1657.66 1687.13 1657.2 1687.84 1656.73 1688.56 1656.25 1689.68 1655.75 1691.2 1655.25 1692.72 1654.62 1695.2 1653.87 1698.64L1650.05 1715.77 1651.83 1715.77C1653.33 1715.77 1654.7 1715.52 1655.94 1715.02 1657.17 1714.52 1658.61 1713.61 1660.26 1712.28 1661.91 1710.96 1664.53 1708.52 1668.13 1704.98 1671.73 1701.43 1674.29 1698.74 1675.81 1696.9 1677.33 1695.05 1678.44 1693.46 1679.14 1692.11 1679.84 1690.77 1680.19 1689.55 1680.19 1688.44 1680.19 1687.54 1679.83 1686.82 1679.11 1686.26 1678.4 1685.71 1677.38 1685.37 1676.05 1685.27L1676.64 1682.63 1699.68 1682.63 1699.09 1685.27C1697.66 1685.48 1696.04 1686.22 1694.23 1687.5 1692.42 1688.77 1689.66 1691.25 1685.93 1694.93L1665.09 1715.24 1676.53 1742.74C1677.72 1745.57 1678.69 1747.61 1679.46 1748.86 1680.23 1750.11 1681.15 1751.11 1682.23 1751.84 1683.3 1752.58 1684.63 1753.07 1686.2 1753.32L1685.61 1755.95 1664.88 1755.95 1665.47 1753.32C1667.4 1753.14 1668.37 1752.28 1668.37 1750.74 1668.37 1749.77 1668.17 1748.67 1667.78 1747.44 1667.38 1746.2 1666.92 1744.92 1666.38 1743.6L1659.4 1726.52C1658.58 1724.48 1657.86 1723.04 1657.25 1722.22 1656.64 1721.4 1656 1720.82 1655.32 1720.5 1654.64 1720.18 1653.58 1720.02 1652.15 1720.02L1649.14 1720.02 1644.68 1740.32C1644.22 1742.47 1643.91 1744.16 1643.77 1745.4 1643.63 1746.63 1643.56 1747.73 1643.56 1748.7 1643.56 1750.31 1643.96 1751.45 1644.76 1752.11 1645.57 1752.77 1646.92 1753.18 1648.82 1753.32L1648.23 1755.95 1626.74 1755.95 1627.33 1753.32C1628.7 1753.1 1629.72 1752.75 1630.4 1752.27 1631.08 1751.79 1631.65 1751.12 1632.11 1750.26 1632.58 1749.4 1633.01 1748.35 1633.4 1747.11 1633.8 1745.88 1634.39 1743.49 1635.18 1739.94L1644.31 1698.59C1645.09 1695.01 1645.49 1692.12 1645.49 1689.94 1645.49 1688.26 1645.07 1687.08 1644.23 1686.42 1643.39 1685.76 1642.05 1685.37 1640.22 1685.27Z" fill-rule="evenodd"/><text fill="#000000" fill-opacity="0" font-family="Arial,Arial_MSFontService,sans-serif" font-size="73.3154" x="1626.74" y="1746.79">𝐾</text><rect x="466.5" y="1551.5" width="324" height="325" stroke="#000000" stroke-width="9.16667" fill="#FFFFFF"/><path d="M587.49 1676.46 644.99 1676.46 640.677 1695.64 634.677 1695.64C634.51 1692.02 634.198 1689.29 633.74 1687.46 633.281 1685.62 632.729 1684.36 632.083 1683.67 631.437 1682.99 630.667 1682.53 629.771 1682.3 628.875 1682.07 627.594 1681.96 625.927 1681.96L605.552 1681.96 598.427 1714.71 610.365 1714.71C613.323 1714.71 615.583 1714.01 617.146 1712.61 618.708 1711.22 620.281 1708.91 621.865 1705.71L627.552 1705.71 621.927 1729.71 616.615 1729.71C616.615 1726.37 616.406 1724.11 615.99 1722.92 615.573 1721.74 614.958 1720.99 614.146 1720.67 613.333 1720.36 611.865 1720.21 609.74 1720.21L597.24 1720.21 589.24 1756.27 607.74 1756.27C610.198 1756.27 612.146 1756.02 613.583 1755.52 615.021 1755.02 616.375 1754.21 617.646 1753.08 618.917 1751.96 620.187 1750.38 621.458 1748.36 622.729 1746.34 624.24 1743.6 625.99 1740.14L632.052 1740.14 626.552 1761.77 571.115 1761.77 571.802 1758.71C573.385 1758.46 574.573 1758.05 575.365 1757.49 576.156 1756.92 576.823 1756.14 577.365 1755.14 577.906 1754.14 578.406 1752.92 578.865 1751.49 579.323 1750.05 580.01 1747.27 580.927 1743.14L591.552 1695.02C592.469 1690.85 592.927 1687.5 592.927 1684.96 592.927 1683 592.437 1681.63 591.458 1680.86 590.479 1680.09 588.927 1679.64 586.802 1679.52Z" fill-rule="evenodd"/><text fill="#000000" fill-opacity="0" font-family="Arial,Arial_MSFontService,sans-serif" font-size="85.3125" x="571.115" y="1751.1">𝐸</text><path d="M790.5 1773.5 739.5 1715.5 790.5 1657.5Z" stroke="#000000" stroke-width="9.16667" fill="#FFFFFF" fill-rule="evenodd"/><path d="M1.98758e-05-4.58333 60.3048-4.58307 60.3047 4.58359-1.98758e-05 4.58333ZM55.7215-13.7498 83.2214 0.000360892 55.7214 13.7502Z" transform="matrix(-1 0 0 1 873.722 1715.5)"/><path d="M4.58324-0.0296841 5.96825 213.817-3.19823 213.876-4.58324 0.0296841ZM15.105 209.174 1.53343 236.762-12.3944 209.352Z" transform="matrix(-1 0 0 1 630.033 1315.5)"/><path d="M4.58333-1.06616e-05 4.58364 132.228-4.58303 132.228-4.58333 1.06616e-05ZM13.7503 127.645 0.000360892 155.145-13.7497 127.645Z" transform="matrix(-1 0 0 1 628.5 1876.5)"/><path d="M567.531 1201.85C565.311 1201.85 562.984 1201.9 560.549 1202.01L553.244 1234.56 558.83 1234.56C563.163 1234.56 566.663 1234.11 569.33 1233.21 571.998 1232.32 574.182 1230.93 575.883 1229.05 577.584 1227.17 578.9 1224.94 579.831 1222.36 580.762 1219.79 581.227 1216.96 581.227 1213.88 581.227 1209.72 580.171 1206.68 578.058 1204.75 575.946 1202.81 572.437 1201.85 567.531 1201.85ZM545.026 1197.12 568.713 1197.12C572.974 1197.12 576.474 1197.45 579.213 1198.11 581.952 1198.78 584.208 1199.8 585.981 1201.17 587.753 1202.55 589.078 1204.3 589.955 1206.41 590.833 1208.52 591.271 1210.98 591.271 1213.77 591.271 1219.14 590 1223.8 587.458 1227.73 584.916 1231.67 581.469 1234.57 577.118 1236.44 572.768 1238.3 567.549 1239.23 561.462 1239.23 557.809 1239.23 554.766 1239.16 552.331 1239.01L548.893 1254.8C548.571 1256.27 548.347 1257.4 548.222 1258.19 548.097 1258.98 547.989 1259.83 547.9 1260.74 547.81 1261.65 547.765 1262.47 547.765 1263.18 547.765 1264.29 547.944 1265.16 548.303 1265.79 548.661 1266.42 549.198 1266.87 549.914 1267.16 550.63 1267.44 551.865 1267.66 553.62 1267.8L553.029 1270.43 530.954 1270.43 531.545 1267.8C532.905 1267.59 533.926 1267.24 534.606 1266.76 535.287 1266.27 535.859 1265.6 536.325 1264.74 536.791 1263.88 537.22 1262.83 537.614 1261.6 538.008 1260.36 538.599 1257.97 539.387 1254.43L548.517 1213.07C549.305 1209.49 549.699 1206.66 549.699 1204.59 549.699 1202.83 549.287 1201.61 548.464 1200.93 547.64 1200.25 546.297 1199.86 544.435 1199.75Z" fill-rule="evenodd"/><text fill="#000000" fill-opacity="0" font-family="Arial,Arial_MSFontService,sans-serif" font-size="73.3154" x="530.954" y="1261.27">𝑃</text><path d="M606.539 1197.12 662.613 1197.12 658.424 1216.03 653.267 1216.03C653.267 1212.55 653.178 1209.95 652.999 1208.21 652.82 1206.47 652.48 1205.15 651.978 1204.24 651.477 1203.32 650.859 1202.7 650.125 1202.36 649.391 1202.02 648.093 1201.85 646.231 1201.85L638.282 1201.85 626.627 1254.8C626.304 1256.2 626.081 1257.31 625.955 1258.14 625.83 1258.96 625.723 1259.83 625.633 1260.74 625.544 1261.65 625.499 1262.47 625.499 1263.18 625.499 1264.29 625.678 1265.16 626.036 1265.79 626.394 1266.42 626.931 1266.87 627.647 1267.16 628.363 1267.44 629.599 1267.66 631.353 1267.8L630.762 1270.43 608.15 1270.43 608.741 1267.8C610.173 1267.59 611.23 1267.3 611.91 1266.94 612.59 1266.59 613.19 1266.03 613.709 1265.28 614.228 1264.53 614.748 1263.34 615.267 1261.73 615.786 1260.12 616.404 1257.69 617.12 1254.43L628.614 1201.85 621.793 1201.85C619.573 1201.85 617.8 1202.17 616.475 1202.81 615.15 1203.46 613.826 1204.66 612.501 1206.41 611.176 1208.17 609.565 1211.1 607.667 1215.22L602.51 1215.22Z" fill-rule="evenodd"/><text fill="#000000" fill-opacity="0" font-family="Arial,Arial_MSFontService,sans-serif" font-size="73.3154" x="602.51" y="1261.27">𝑇</text><path d="M676.062 1242.58 678.445 1242.58C678.392 1244.01 678.353 1245.3 678.327 1246.43 678.301 1247.56 678.282 1248.66 678.269 1249.73 678.256 1250.8 678.249 1251.85 678.249 1252.89L678.249 1282.58C678.249 1283.39 678.275 1284.08 678.327 1284.67 678.379 1285.26 678.464 1285.75 678.581 1286.15 678.698 1286.56 678.855 1286.9 679.05 1287.19 679.245 1287.48 679.473 1287.72 679.734 1287.93 680.046 1288.24 680.463 1288.49 680.984 1288.65 681.504 1288.82 682.168 1288.97 682.976 1289.08 683.783 1289.2 684.753 1289.29 685.886 1289.36 687.019 1289.42 688.379 1289.47 689.968 1289.49L689.968 1292.89 658.991 1292.89 658.991 1289.49C660.528 1289.44 661.83 1289.38 662.898 1289.32 663.965 1289.25 664.877 1289.16 665.632 1289.05 666.387 1288.93 666.993 1288.8 667.448 1288.65 667.904 1288.51 668.301 1288.34 668.64 1288.13 669.004 1287.89 669.317 1287.64 669.577 1287.37 669.838 1287.09 670.046 1286.75 670.202 1286.33 670.359 1285.91 670.482 1285.41 670.573 1284.81 670.665 1284.21 670.71 1283.47 670.71 1282.58L670.71 1254.57C670.71 1253.56 670.515 1252.84 670.124 1252.42 669.734 1252.01 669.174 1251.8 668.445 1251.8 667.637 1251.8 666.439 1252.22 664.851 1253.05 663.262 1253.88 661.205 1255.12 658.679 1256.76 658.34 1256.16 658.028 1255.56 657.741 1254.96 657.455 1254.36 657.155 1253.75 656.843 1253.13 660.072 1251.36 663.269 1249.59 666.433 1247.83 669.597 1246.08 672.807 1244.33 676.062 1242.58Z" fill-rule="evenodd"/><text fill="#000000" fill-opacity="0" font-family="Arial,Arial_MSFontService,sans-serif" font-size="50.3125" x="656.843" y="1286.6">1</text><path d="M572.136 2083.28C575.394 2083.28 578.411 2083.48 581.186 2083.87 583.961 2084.27 587.049 2084.98 590.451 2086.02L587.229 2100.58 582.072 2100.58C581.786 2096.17 580.828 2093 579.199 2091.05 577.57 2089.09 574.947 2088.12 571.33 2088.12 566.389 2088.12 561.796 2090.59 557.553 2095.53 553.31 2100.47 549.953 2107 547.482 2115.11 545.012 2123.22 543.776 2130.75 543.776 2137.69 543.776 2143.14 544.743 2147.15 546.677 2149.72 548.61 2152.3 551.582 2153.59 555.593 2153.59 558.278 2153.59 560.624 2153.19 562.629 2152.38 564.634 2151.58 566.514 2150.22 568.269 2148.3 570.023 2146.39 571.76 2143.71 573.479 2140.27L578.635 2140.27 575.358 2155.53C568.662 2157.39 561.644 2158.32 554.304 2158.32 547.572 2158.32 542.451 2156.38 538.942 2152.52 535.433 2148.65 533.679 2142.99 533.679 2135.54 533.679 2130.28 534.619 2124.21 536.499 2117.34 538.378 2110.46 541.037 2104.43 544.475 2099.24 547.912 2094.04 551.976 2090.09 556.667 2087.37 561.358 2084.64 566.514 2083.28 572.136 2083.28Z" fill-rule="evenodd"/><text fill="#000000" fill-opacity="0" font-family="Arial,Arial_MSFontService,sans-serif" font-size="75.0342" x="533.679" y="2148.94">𝐶</text><path d="M604.937 2084.14 661.011 2084.14 656.821 2103.05 651.665 2103.05C651.665 2099.58 651.576 2096.97 651.397 2095.23 651.218 2093.5 650.877 2092.17 650.376 2091.26 649.875 2090.35 649.257 2089.72 648.523 2089.38 647.789 2089.04 646.491 2088.87 644.629 2088.87L636.68 2088.87 625.025 2141.83C624.702 2143.23 624.478 2144.34 624.353 2145.16 624.228 2145.98 624.12 2146.85 624.031 2147.76 623.941 2148.68 623.897 2149.49 623.897 2150.21 623.897 2151.32 624.076 2152.19 624.434 2152.81 624.792 2153.44 625.329 2153.9 626.045 2154.18 626.761 2154.47 627.997 2154.68 629.751 2154.83L629.16 2157.46 606.548 2157.46 607.139 2154.83C608.571 2154.61 609.627 2154.33 610.308 2153.97 610.988 2153.61 611.588 2153.05 612.107 2152.3 612.626 2151.55 613.145 2150.37 613.665 2148.76 614.184 2147.15 614.802 2144.71 615.518 2141.45L627.012 2088.87 620.191 2088.87C617.971 2088.87 616.198 2089.19 614.873 2089.84 613.548 2090.48 612.223 2091.68 610.899 2093.44 609.574 2095.19 607.962 2098.13 606.065 2102.24L600.908 2102.24Z" fill-rule="evenodd"/><text fill="#000000" fill-opacity="0" font-family="Arial,Arial_MSFontService,sans-serif" font-size="73.3154" x="600.908" y="2148.29">𝑇</text><path d="M674.46 2129.6 676.842 2129.6C676.79 2131.04 676.751 2132.32 676.725 2133.45 676.699 2134.59 676.68 2135.69 676.667 2136.75 676.654 2137.82 676.647 2138.88 676.647 2139.92L676.647 2169.6C676.647 2170.41 676.673 2171.11 676.725 2171.69 676.777 2172.28 676.862 2172.78 676.979 2173.18 677.096 2173.58 677.253 2173.93 677.448 2174.21 677.643 2174.5 677.871 2174.75 678.131 2174.96 678.444 2175.27 678.861 2175.51 679.381 2175.68 679.902 2175.85 680.566 2175.99 681.374 2176.11 682.181 2176.23 683.151 2176.32 684.284 2176.38 685.417 2176.45 686.777 2176.49 688.366 2176.52L688.366 2179.92 657.389 2179.92 657.389 2176.52C658.926 2176.47 660.228 2176.41 661.295 2176.34 662.363 2176.28 663.275 2176.19 664.03 2176.07 664.785 2175.95 665.391 2175.82 665.846 2175.68 666.302 2175.54 666.699 2175.36 667.038 2175.15 667.402 2174.92 667.715 2174.66 667.975 2174.39 668.236 2174.12 668.444 2173.77 668.6 2173.35 668.756 2172.94 668.88 2172.43 668.971 2171.83 669.062 2171.23 669.108 2170.49 669.108 2169.6L669.108 2141.6C669.108 2140.58 668.913 2139.87 668.522 2139.45 668.131 2139.03 667.572 2138.82 666.842 2138.82 666.035 2138.82 664.837 2139.24 663.249 2140.07 661.66 2140.91 659.603 2142.14 657.077 2143.78 656.738 2143.19 656.426 2142.59 656.139 2141.99 655.853 2141.39 655.553 2140.78 655.241 2140.15 658.47 2138.38 661.667 2136.62 664.831 2134.86 667.995 2133.1 671.204 2131.35 674.46 2129.6Z" fill-rule="evenodd"/><text fill="#000000" fill-opacity="0" font-family="Arial,Arial_MSFontService,sans-serif" font-size="50.3125" x="655.241" y="2173.63">1</text><path d="M909.734 1682.63 931.219 1682.63 930.628 1685.27C929.267 1685.55 928.292 1685.88 927.701 1686.23 927.11 1686.59 926.582 1687.13 926.116 1687.84 925.651 1688.56 925.167 1689.68 924.666 1691.2 924.165 1692.72 923.538 1695.2 922.786 1698.64L918.973 1715.77 920.745 1715.77C922.249 1715.77 923.619 1715.52 924.854 1715.02 926.089 1714.52 927.531 1713.61 929.178 1712.28 930.825 1710.96 933.448 1708.52 937.047 1704.98 940.645 1701.43 943.205 1698.74 944.727 1696.9 946.249 1695.05 947.359 1693.46 948.057 1692.11 948.755 1690.77 949.105 1689.55 949.105 1688.44 949.105 1687.54 948.747 1686.82 948.03 1686.26 947.314 1685.71 946.294 1685.37 944.969 1685.27L945.56 1682.63 968.602 1682.63 968.011 1685.27C966.579 1685.48 964.958 1686.22 963.15 1687.5 961.342 1688.77 958.576 1691.25 954.852 1694.93L934.012 1715.24 945.452 1742.74C946.634 1745.57 947.61 1747.61 948.38 1748.86 949.149 1750.11 950.071 1751.11 951.146 1751.84 952.22 1752.58 953.545 1753.07 955.12 1753.32L954.529 1755.95 933.797 1755.95 934.388 1753.32C936.321 1753.14 937.288 1752.28 937.288 1750.74 937.288 1749.77 937.091 1748.67 936.697 1747.44 936.304 1746.2 935.838 1744.92 935.301 1743.6L928.318 1726.52C927.495 1724.48 926.779 1723.04 926.17 1722.22 925.561 1721.4 924.917 1720.82 924.236 1720.5 923.556 1720.18 922.5 1720.02 921.068 1720.02L918.06 1720.02 913.602 1740.32C913.136 1742.47 912.832 1744.16 912.689 1745.4 912.545 1746.63 912.474 1747.73 912.474 1748.7 912.474 1750.31 912.877 1751.45 913.682 1752.11 914.488 1752.77 915.84 1753.18 917.737 1753.32L917.147 1755.95 895.662 1755.95 896.253 1753.32C897.614 1753.1 898.634 1752.75 899.315 1752.27 899.995 1751.79 900.568 1751.12 901.033 1750.26 901.499 1749.4 901.929 1748.35 902.322 1747.11 902.716 1745.88 903.307 1743.49 904.095 1739.94L913.226 1698.59C914.013 1695.01 914.407 1692.12 914.407 1689.94 914.407 1688.26 913.987 1687.08 913.145 1686.42 912.304 1685.76 910.97 1685.37 909.144 1685.27Z" fill-rule="evenodd"/><text fill="#000000" fill-opacity="0" font-family="Arial,Arial_MSFontService,sans-serif" font-size="73.3154" x="895.662" y="1746.79">𝐾</text><path d="M569.5 1418.5C569.5 1385.92 595.915 1359.5 628.5 1359.5 661.085 1359.5 687.5 1385.92 687.5 1418.5 687.5 1451.08 661.085 1477.5 628.5 1477.5 595.915 1477.5 569.5 1451.08 569.5 1418.5Z" fill="#FFFFFF" fill-rule="evenodd"/><path d="M628.5 1359.5 628.5 1477.5M569.5 1418.5 687.5 1418.5" stroke="#000000" stroke-width="9.16667" fill="none" fill-rule="evenodd"/><path d="M569.5 1418.5C569.5 1385.92 595.915 1359.5 628.5 1359.5 661.085 1359.5 687.5 1385.92 687.5 1418.5 687.5 1451.08 661.085 1477.5 628.5 1477.5 595.915 1477.5 569.5 1451.08 569.5 1418.5Z" stroke="#000000" stroke-width="9.16667" fill="none" fill-rule="evenodd"/><path d="M1303.5 1418.5C1303.5 1385.92 1329.92 1359.5 1362.5 1359.5 1395.08 1359.5 1421.5 1385.92 1421.5 1418.5 1421.5 1451.08 1395.08 1477.5 1362.5 1477.5 1329.92 1477.5 1303.5 1451.08 1303.5 1418.5Z" fill="#FFFFFF" fill-rule="evenodd"/><path d="M1362.5 1359.5 1362.5 1477.5M1303.5 1418.5 1421.5 1418.5" stroke="#000000" stroke-width="9.16667" fill="none" fill-rule="evenodd"/><path d="M1303.5 1418.5C1303.5 1385.92 1329.92 1359.5 1362.5 1359.5 1395.08 1359.5 1421.5 1385.92 1421.5 1418.5 1421.5 1451.08 1395.08 1477.5 1362.5 1477.5 1329.92 1477.5 1303.5 1451.08 1303.5 1418.5Z" stroke="#000000" stroke-width="9.16667" fill="none" fill-rule="evenodd"/><path d="M2031.5 1418.5C2031.5 1385.92 2057.92 1359.5 2090.5 1359.5 2123.08 1359.5 2149.5 1385.92 2149.5 1418.5 2149.5 1451.08 2123.08 1477.5 2090.5 1477.5 2057.92 1477.5 2031.5 1451.08 2031.5 1418.5Z" fill="#FFFFFF" fill-rule="evenodd"/><path d="M2090.5 1359.5 2090.5 1477.5M2031.5 1418.5 2149.5 1418.5" stroke="#000000" stroke-width="9.16667" fill="none" fill-rule="evenodd"/><path d="M2031.5 1418.5C2031.5 1385.92 2057.92 1359.5 2090.5 1359.5 2123.08 1359.5 2149.5 1385.92 2149.5 1418.5 2149.5 1451.08 2123.08 1477.5 2090.5 1477.5 2057.92 1477.5 2031.5 1451.08 2031.5 1418.5Z" stroke="#000000" stroke-width="9.16667" fill="none" fill-rule="evenodd"/><path d="M2766.5 1418.5C2766.5 1385.92 2792.69 1359.5 2825 1359.5 2857.31 1359.5 2883.5 1385.92 2883.5 1418.5 2883.5 1451.08 2857.31 1477.5 2825 1477.5 2792.69 1477.5 2766.5 1451.08 2766.5 1418.5Z" fill="#FFFFFF" fill-rule="evenodd"/><path d="M2825 1359.5 2825 1477.5M2766.5 1418.5 2883.5 1418.5" stroke="#000000" stroke-width="9.16667" fill="none" fill-rule="evenodd"/><path d="M2766.5 1418.5C2766.5 1385.92 2792.69 1359.5 2825 1359.5 2857.31 1359.5 2883.5 1385.92 2883.5 1418.5 2883.5 1451.08 2857.31 1477.5 2825 1477.5 2792.69 1477.5 2766.5 1451.08 2766.5 1418.5Z" stroke="#000000" stroke-width="9.16667" fill="none" fill-rule="evenodd"/><path d="M0-4.58333 441.172-4.58333 441.172 513.11 436.589 508.527 650.885 508.527 650.885 517.694 432.006 517.694 432.006 0 436.589 4.58333 0 4.58333ZM646.301 499.36 673.801 513.11 646.301 526.86Z" transform="matrix(1 0 0 -1 629.5 1931.61)"/><path d="M0-4.58333 441.172-4.58333 441.172 513.11 436.589 508.527 650.885 508.527 650.885 517.694 432.006 517.694 432.006 0 436.589 4.58333 0 4.58333ZM646.301 499.36 673.801 513.11 646.301 526.86Z" transform="matrix(1 0 0 -1 1361.5 1931.61)"/><path d="M0-4.58333 441.172-4.58333 441.172 513.11 436.589 508.527 650.885 508.527 650.885 517.694 432.006 517.694 432.006 0 436.589 4.58333 0 4.58333ZM646.301 499.36 673.801 513.11 646.301 526.86Z" transform="matrix(1 0 0 -1 2093.5 1931.61)"/><path d="M339.623 1385.75 361.859 1385.75 361.269 1388.38C359.693 1388.56 358.467 1389.03 357.589 1389.78 356.712 1390.53 356.095 1391.58 355.736 1392.92 355.378 1394.26 355.199 1396.06 355.199 1398.32 355.199 1398.85 355.253 1400.47 355.36 1403.15L356.864 1442.47 356.864 1446.76 357.401 1446.76 380.658 1404.82C382.019 1402.35 383.039 1400.22 383.72 1398.45 384.4 1396.68 384.74 1395.11 384.74 1393.75 384.74 1390.74 382.95 1388.95 379.369 1388.38L379.96 1385.75 401.928 1385.75 401.337 1388.38C400.37 1388.52 399.448 1388.89 398.571 1389.48 397.694 1390.07 396.709 1391.06 395.617 1392.44 394.525 1393.81 392.833 1396.47 390.541 1400.41L356.166 1459.92 349.023 1459.92 345.424 1400.04C345.281 1397.71 345.021 1395.71 344.645 1394.05 344.269 1392.38 343.678 1391.08 342.873 1390.15 342.067 1389.22 340.787 1388.63 339.032 1388.38ZM309.064 1385.75 330.548 1385.75 329.957 1388.38C328.596 1388.67 327.621 1388.99 327.03 1389.35 326.439 1389.71 325.911 1390.24 325.445 1390.96 324.98 1391.68 324.497 1392.79 323.995 1394.32 323.494 1395.84 322.867 1398.32 322.115 1401.76L312.931 1443.43C312.465 1445.55 312.161 1447.22 312.018 1448.46 311.874 1449.69 311.803 1450.81 311.803 1451.81 311.803 1453.42 312.206 1454.56 313.011 1455.22 313.817 1455.89 315.169 1456.29 317.067 1456.43L316.476 1459.06 294.991 1459.06 295.582 1456.43C296.943 1456.22 297.963 1455.87 298.644 1455.39 299.324 1454.9 299.897 1454.23 300.362 1453.37 300.828 1452.51 301.258 1451.46 301.651 1450.23 302.045 1448.99 302.636 1446.6 303.424 1443.06L312.555 1401.7C313.343 1398.12 313.736 1395.24 313.736 1393.05 313.736 1391.37 313.316 1390.2 312.474 1389.54 311.633 1388.87 310.299 1388.49 308.473 1388.38Z" fill-rule="evenodd"/><text fill="#000000" fill-opacity="0" font-family="Arial,Arial_MSFontService,sans-serif" font-size="74.1748" x="294.991" y="1450.65">𝐼𝑉</text><path d="M424.5 1413.92 546.166 1413.92 546.166 1423.08 424.5 1423.08ZM541.582 1404.75 569.082 1418.5 541.582 1432.25Z"/></g></svg>