<svg width="2774" height="1033" xmlns="http://www.w3.org/2000/svg" xmlns:xlink="http://www.w3.org/1999/xlink" xml:space="preserve" overflow="hidden"><g transform="translate(-300 -1243)"><rect x="2498.5" y="1504.5" width="325" height="325" stroke="#000000" stroke-width="9.16667" fill="#FFFFFF"/><path d="M2619.82 1629.05 2677.32 1629.05 2673 1648.23 2667 1648.23C2666.84 1644.61 2666.52 1641.88 2666.07 1640.05 2665.61 1638.21 2665.05 1636.95 2664.41 1636.26 2663.76 1635.58 2662.99 1635.12 2662.1 1634.89 2661.2 1634.66 2659.92 1634.55 2658.25 1634.55L2637.88 1634.55 2630.75 1667.3 2642.69 1667.3C2645.65 1667.3 2647.91 1666.6 2649.47 1665.2 2651.03 1663.81 2652.61 1661.5 2654.19 1658.3L2659.88 1658.3 2654.25 1682.3 2648.94 1682.3C2648.94 1678.96 2648.73 1676.7 2648.32 1675.51 2647.9 1674.33 2647.28 1673.58 2646.47 1673.26 2645.66 1672.95 2644.19 1672.8 2642.07 1672.8L2629.57 1672.8 2621.57 1708.86 2640.07 1708.86C2642.52 1708.86 2644.47 1708.61 2645.91 1708.11 2647.35 1707.61 2648.7 1706.8 2649.97 1705.67 2651.24 1704.55 2652.51 1702.97 2653.78 1700.95 2655.05 1698.93 2656.57 1696.19 2658.32 1692.73L2664.38 1692.73 2658.88 1714.36 2603.44 1714.36 2604.13 1711.3C2605.71 1711.05 2606.9 1710.64 2607.69 1710.08 2608.48 1709.51 2609.15 1708.73 2609.69 1707.73 2610.23 1706.73 2610.73 1705.51 2611.19 1704.08 2611.65 1702.64 2612.34 1699.86 2613.25 1695.73L2623.88 1647.61C2624.79 1643.44 2625.25 1640.09 2625.25 1637.55 2625.25 1635.59 2624.76 1634.22 2623.78 1633.45 2622.8 1632.68 2621.25 1632.23 2619.13 1632.11Z" fill-rule="evenodd"/><text fill="#000000" fill-opacity="0" font-family="Arial,Arial_MSFontService,sans-serif" font-size="85.3125" x="2603.44" y="1703.69">πΈ</text><path d="M2823.5 1725.5 2771.5 1668 2823.5 1610.5Z" stroke="#000000" stroke-width="9.16667" fill="#FFFFFF" fill-rule="evenodd"/><path d="M1.98758e-05-4.58333 60.3048-4.58307 60.3047 4.58359-1.98758e-05 4.58333ZM55.7215-13.7498 83.2214 0.000360892 55.7214 13.7502Z" transform="matrix(-1 0 0 1 2906.72 1668.5)"/><path d="M2665.08 1829.45 2667.83 2083.07 2658.67 2083.17 2655.92 1829.55ZM2676.95 2078.39 2663.5 2106.04 2649.45 2078.69Z"/><path d="M2607.79 2157.27C2611.05 2157.27 2614.07 2157.46 2616.84 2157.86 2619.62 2158.25 2622.71 2158.97 2626.11 2160.01L2622.88 2174.56 2617.73 2174.56C2617.44 2170.16 2616.48 2166.98 2614.85 2165.03 2613.23 2163.08 2610.6 2162.1 2606.99 2162.1 2602.04 2162.1 2597.45 2164.57 2593.21 2169.51 2588.97 2174.45 2585.61 2180.98 2583.14 2189.09 2580.67 2197.2 2579.43 2204.73 2579.43 2211.68 2579.43 2217.12 2580.4 2221.13 2582.33 2223.71 2584.27 2226.29 2587.24 2227.57 2591.25 2227.57 2593.93 2227.57 2596.28 2227.17 2598.29 2226.37 2600.29 2225.56 2602.17 2224.2 2603.92 2222.28 2605.68 2220.37 2607.42 2217.69 2609.13 2214.25L2614.29 2214.25 2611.01 2229.51C2604.32 2231.37 2597.3 2232.3 2589.96 2232.3 2583.23 2232.3 2578.11 2230.37 2574.6 2226.5 2571.09 2222.63 2569.33 2216.98 2569.33 2209.53 2569.33 2204.26 2570.27 2198.19 2572.15 2191.32 2574.03 2184.44 2576.69 2178.41 2580.13 2173.22 2583.57 2168.03 2587.63 2164.07 2592.32 2161.35 2597.01 2158.63 2602.17 2157.27 2607.79 2157.27Z" fill-rule="evenodd"/><text fill="#000000" fill-opacity="0" font-family="Arial,Arial_MSFontService,sans-serif" font-size="75.0342" x="2569.33" y="2222.92">π¶</text><path d="M2640.59 2158.13 2696.67 2158.13 2692.48 2177.03 2687.32 2177.03C2687.32 2173.56 2687.23 2170.95 2687.05 2169.22 2686.87 2167.48 2686.53 2166.16 2686.03 2165.24 2685.53 2164.33 2684.91 2163.7 2684.18 2163.36 2683.45 2163.02 2682.15 2162.85 2680.29 2162.85L2672.34 2162.85 2660.68 2215.81C2660.36 2217.21 2660.13 2218.32 2660.01 2219.14 2659.88 2219.97 2659.78 2220.83 2659.69 2221.75 2659.6 2222.66 2659.55 2223.47 2659.55 2224.19 2659.55 2225.3 2659.73 2226.17 2660.09 2226.8 2660.45 2227.42 2660.99 2227.88 2661.7 2228.17 2662.42 2228.45 2663.65 2228.67 2665.41 2228.81L2664.82 2231.44 2642.2 2231.44 2642.8 2228.81C2644.23 2228.59 2645.28 2228.31 2645.96 2227.95 2646.64 2227.59 2647.24 2227.04 2647.76 2226.29 2648.28 2225.53 2648.8 2224.35 2649.32 2222.74 2649.84 2221.13 2650.46 2218.69 2651.17 2215.44L2662.67 2162.85 2655.85 2162.85C2653.63 2162.85 2651.85 2163.18 2650.53 2163.82 2649.2 2164.46 2647.88 2165.66 2646.55 2167.42 2645.23 2169.17 2643.62 2172.11 2641.72 2176.23L2636.56 2176.23Z" fill-rule="evenodd"/><text fill="#000000" fill-opacity="0" font-family="Arial,Arial_MSFontService,sans-serif" font-size="73.3154" x="2636.56" y="2222.28">π‘‡</text><path d="M2708.24 2213C2705.74 2216.62 2703.25 2220.22 2700.76 2223.78 2698.27 2227.35 2695.77 2230.93 2693.24 2234.53L2693.24 2234.99 2708.24 2234.99 2708.24 2227.14C2708.24 2226.26 2708.25 2225.16 2708.28 2223.86 2708.31 2222.56 2708.34 2221.24 2708.38 2219.9 2708.42 2218.56 2708.46 2217.28 2708.51 2216.07 2708.57 2214.86 2708.62 2213.83 2708.67 2213ZM2709.37 2203.86 2715.58 2203.86 2715.58 2234.99 2716.29 2234.99C2717.35 2234.99 2718.22 2234.94 2718.88 2234.84 2719.55 2234.73 2720.08 2234.52 2720.49 2234.19 2720.89 2233.87 2721.23 2233.41 2721.5 2232.83 2721.78 2232.24 2722.07 2231.48 2722.38 2230.54L2725.7 2230.54C2725.62 2231.97 2725.54 2233.39 2725.45 2234.8 2725.36 2236.2 2725.27 2237.64 2725.19 2239.1L2715.58 2239.1 2715.58 2244.21C2715.58 2245.72 2715.62 2246.9 2715.68 2247.73 2715.75 2248.56 2715.94 2249.21 2716.27 2249.68 2716.59 2250.15 2717.07 2250.5 2717.71 2250.74 2718.35 2250.97 2719.24 2251.24 2720.39 2251.56L2720.39 2253.9 2703.51 2253.9 2703.51 2251.56C2704.29 2251.35 2704.96 2251.16 2705.51 2250.99 2706.05 2250.82 2706.51 2250.63 2706.87 2250.4 2707.24 2250.18 2707.5 2249.92 2707.67 2249.62 2707.84 2249.32 2707.97 2248.95 2708.06 2248.49 2708.16 2248.03 2708.21 2247.46 2708.22 2246.77 2708.23 2246.08 2708.24 2245.23 2708.24 2244.21L2708.24 2239.1 2686.25 2239.1 2686.25 2236.01C2690.13 2230.62 2693.98 2225.26 2697.81 2219.94 2701.64 2214.61 2705.49 2209.25 2709.37 2203.86Z" fill-rule="evenodd"/><text fill="#000000" fill-opacity="0" font-family="Arial,Arial_MSFontService,sans-serif" font-size="50.0391" x="2686.25" y="2247.65">4</text><path d="M2942.06 1635.22 2963.54 1635.22 2962.95 1637.86C2961.59 1638.14 2960.62 1638.47 2960.03 1638.82 2959.44 1639.18 2958.91 1639.72 2958.44 1640.43 2957.98 1641.15 2957.49 1642.27 2956.99 1643.79 2956.49 1645.31 2955.86 1647.79 2955.11 1651.23L2951.3 1668.36 2953.07 1668.36C2954.57 1668.36 2955.94 1668.11 2957.18 1667.61 2958.42 1667.11 2959.86 1666.2 2961.5 1664.87 2963.15 1663.55 2965.77 1661.11 2969.37 1657.57 2972.97 1654.02 2975.53 1651.33 2977.05 1649.49 2978.57 1647.64 2979.68 1646.05 2980.38 1644.7 2981.08 1643.36 2981.43 1642.14 2981.43 1641.03 2981.43 1640.13 2981.07 1639.41 2980.36 1638.85 2979.64 1638.3 2978.62 1637.96 2977.29 1637.86L2977.89 1635.22 3000.93 1635.22 3000.34 1637.86C2998.9 1638.07 2997.28 1638.81 2995.48 1640.09 2993.67 1641.36 2990.9 1643.84 2987.18 1647.52L2966.34 1667.83 2977.78 1695.33C2978.96 1698.16 2979.94 1700.2 2980.71 1701.45 2981.47 1702.7 2982.4 1703.7 2983.47 1704.43 2984.55 1705.17 2985.87 1705.66 2987.45 1705.91L2986.85 1708.54 2966.12 1708.54 2966.71 1705.91C2968.65 1705.73 2969.61 1704.87 2969.61 1703.33 2969.61 1702.36 2969.42 1701.26 2969.02 1700.03 2968.63 1698.79 2968.16 1697.51 2967.63 1696.19L2960.64 1679.11C2959.82 1677.07 2959.1 1675.63 2958.5 1674.81 2957.89 1673.99 2957.24 1673.41 2956.56 1673.09 2955.88 1672.77 2954.83 1672.61 2953.39 1672.61L2950.39 1672.61 2945.93 1692.91C2945.46 1695.06 2945.16 1696.75 2945.01 1697.99 2944.87 1699.22 2944.8 1700.32 2944.8 1701.29 2944.8 1702.9 2945.2 1704.04 2946.01 1704.7 2946.81 1705.36 2948.17 1705.77 2950.06 1705.91L2949.47 1708.54 2927.99 1708.54 2928.58 1705.91C2929.94 1705.69 2930.96 1705.34 2931.64 1704.86 2932.32 1704.38 2932.89 1703.71 2933.36 1702.85 2933.82 1701.99 2934.25 1700.94 2934.65 1699.7 2935.04 1698.47 2935.63 1696.08 2936.42 1692.53L2945.55 1651.18C2946.34 1647.6 2946.73 1644.71 2946.73 1642.53 2946.73 1640.85 2946.31 1639.67 2945.47 1639.01 2944.63 1638.35 2943.3 1637.96 2941.47 1637.86Z" fill-rule="evenodd"/><text fill="#000000" fill-opacity="0" font-family="Arial,Arial_MSFontService,sans-serif" font-size="73.3154" x="2927.99" y="1699.38">πΎ</text><rect x="1769.5" y="1504.5" width="324" height="325" stroke="#000000" stroke-width="9.16667" fill="#FFFFFF"/><path d="M1890.6 1629.05 1948.1 1629.05 1943.79 1648.23 1937.79 1648.23C1937.62 1644.61 1937.31 1641.88 1936.85 1640.05 1936.39 1638.21 1935.84 1636.95 1935.2 1636.26 1934.55 1635.58 1933.78 1635.12 1932.88 1634.89 1931.99 1634.66 1930.71 1634.55 1929.04 1634.55L1908.67 1634.55 1901.54 1667.3 1913.48 1667.3C1916.44 1667.3 1918.7 1666.6 1920.26 1665.2 1921.82 1663.81 1923.39 1661.5 1924.98 1658.3L1930.67 1658.3 1925.04 1682.3 1919.73 1682.3C1919.73 1678.96 1919.52 1676.7 1919.1 1675.51 1918.69 1674.33 1918.07 1673.58 1917.26 1673.26 1916.45 1672.95 1914.98 1672.8 1912.85 1672.8L1900.35 1672.8 1892.35 1708.86 1910.85 1708.86C1913.31 1708.86 1915.26 1708.61 1916.7 1708.11 1918.13 1707.61 1919.49 1706.8 1920.76 1705.67 1922.03 1704.55 1923.3 1702.97 1924.57 1700.95 1925.84 1698.93 1927.35 1696.19 1929.1 1692.73L1935.17 1692.73 1929.67 1714.36 1874.23 1714.36 1874.92 1711.3C1876.5 1711.05 1877.69 1710.64 1878.48 1710.08 1879.27 1709.51 1879.94 1708.73 1880.48 1707.73 1881.02 1706.73 1881.52 1705.51 1881.98 1704.08 1882.44 1702.64 1883.12 1699.86 1884.04 1695.73L1894.67 1647.61C1895.58 1643.44 1896.04 1640.09 1896.04 1637.55 1896.04 1635.59 1895.55 1634.22 1894.57 1633.45 1893.59 1632.68 1892.04 1632.23 1889.92 1632.11Z" fill-rule="evenodd"/><text fill="#000000" fill-opacity="0" font-family="Arial,Arial_MSFontService,sans-serif" font-size="85.3125" x="1874.23" y="1703.69">πΈ</text><path d="M2093.5 1725.5 2042.5 1668 2093.5 1610.5Z" stroke="#000000" stroke-width="9.16667" fill="#FFFFFF" fill-rule="evenodd"/><path d="M1.98758e-05-4.58333 60.3048-4.58307 60.3047 4.58359-1.98758e-05 4.58333ZM55.7215-13.7498 83.2214 0.000360892 55.7214 13.7502Z" transform="matrix(-1 0 0 1 2176.72 1668.5)"/><path d="M4.58321-0.0343166 6.46438 251.209-2.70203 251.278-4.58321 0.0343166ZM15.5965 246.557 2.05276 274.159-11.9028 246.763Z" transform="matrix(-1 0 0 1 1931.55 1829.5)"/><path d="M1871.92 2154.89C1875.18 2154.89 1878.2 2155.09 1880.98 2155.48 1883.75 2155.87 1886.84 2156.59 1890.24 2157.63L1887.02 2172.18 1881.86 2172.18C1881.57 2167.78 1880.62 2164.6 1878.99 2162.65 1877.36 2160.7 1874.74 2159.72 1871.12 2159.72 1866.18 2159.72 1861.59 2162.19 1857.34 2167.13 1853.1 2172.08 1849.74 2178.6 1847.27 2186.71 1844.8 2194.82 1843.57 2202.35 1843.57 2209.3 1843.57 2214.74 1844.53 2218.75 1846.47 2221.33 1848.4 2223.91 1851.37 2225.2 1855.38 2225.2 1858.07 2225.2 1860.41 2224.79 1862.42 2223.99 1864.42 2223.18 1866.3 2221.82 1868.06 2219.91 1869.81 2217.99 1871.55 2215.31 1873.27 2211.88L1878.42 2211.88 1875.15 2227.13C1868.45 2228.99 1861.43 2229.92 1854.09 2229.92 1847.36 2229.92 1842.24 2227.99 1838.73 2224.12 1835.22 2220.25 1833.47 2214.6 1833.47 2207.15 1833.47 2201.89 1834.41 2195.82 1836.29 2188.94 1838.17 2182.07 1840.83 2176.03 1844.26 2170.84 1847.7 2165.65 1851.77 2161.69 1856.46 2158.97 1861.15 2156.25 1866.3 2154.89 1871.92 2154.89Z" fill-rule="evenodd"/><text fill="#000000" fill-opacity="0" font-family="Arial,Arial_MSFontService,sans-serif" font-size="75.0342" x="1833.47" y="2220.54">π¶</text><path d="M1904.73 2155.75 1960.8 2155.75 1956.61 2174.65 1951.45 2174.65C1951.45 2171.18 1951.36 2168.58 1951.19 2166.84 1951.01 2165.1 1950.67 2163.78 1950.17 2162.86 1949.66 2161.95 1949.05 2161.32 1948.31 2160.98 1947.58 2160.64 1946.28 2160.47 1944.42 2160.47L1936.47 2160.47 1924.81 2213.43C1924.49 2214.83 1924.27 2215.94 1924.14 2216.76 1924.02 2217.59 1923.91 2218.46 1923.82 2219.37 1923.73 2220.28 1923.69 2221.1 1923.69 2221.81 1923.69 2222.92 1923.86 2223.79 1924.22 2224.42 1924.58 2225.04 1925.12 2225.5 1925.83 2225.79 1926.55 2226.07 1927.79 2226.29 1929.54 2226.43L1928.95 2229.06 1906.34 2229.06 1906.93 2226.43C1908.36 2226.22 1909.42 2225.93 1910.1 2225.57 1910.78 2225.21 1911.38 2224.66 1911.9 2223.91 1912.42 2223.16 1912.93 2221.97 1913.45 2220.36 1913.97 2218.75 1914.59 2216.32 1915.31 2213.06L1926.8 2160.47 1919.98 2160.47C1917.76 2160.47 1915.99 2160.8 1914.66 2161.44 1913.34 2162.09 1912.01 2163.29 1910.69 2165.04 1909.36 2166.79 1907.75 2169.73 1905.85 2173.85L1900.7 2173.85Z" fill-rule="evenodd"/><text fill="#000000" fill-opacity="0" font-family="Arial,Arial_MSFontService,sans-serif" font-size="73.3154" x="1900.7" y="2219.9">π‘‡</text><path d="M1973.67 2200.94C1975.75 2200.94 1977.7 2201.16 1979.51 2201.6 1981.32 2202.04 1982.89 2202.71 1984.21 2203.61 1985.54 2204.51 1986.58 2205.63 1987.32 2206.97 1988.06 2208.31 1988.43 2209.87 1988.43 2211.64 1988.43 2213.31 1988.2 2214.78 1987.73 2216.05 1987.26 2217.33 1986.54 2218.49 1985.56 2219.53 1984.59 2220.57 1983.39 2221.52 1981.97 2222.36 1980.55 2223.21 1978.91 2224.02 1977.07 2224.8L1977.07 2225.27C1978.81 2225.58 1980.44 2226.09 1981.95 2226.78 1983.46 2227.47 1984.78 2228.34 1985.91 2229.39 1987.05 2230.45 1987.94 2231.67 1988.59 2233.05 1989.24 2234.43 1989.57 2235.95 1989.57 2237.62 1989.57 2239.7 1989.18 2241.63 1988.39 2243.42 1987.61 2245.2 1986.44 2246.74 1984.88 2248.05 1983.32 2249.35 1981.39 2250.36 1979.1 2251.09 1976.81 2251.82 1974.12 2252.19 1971.05 2252.19 1968.63 2252.19 1966.17 2251.94 1963.67 2251.46 1961.17 2250.98 1958.8 2250.35 1956.56 2249.57L1956.56 2241.13 1961.6 2241.13C1962.01 2242.43 1962.51 2243.55 1963.08 2244.47 1963.65 2245.4 1964.32 2246.15 1965.09 2246.74 1965.86 2247.32 1966.75 2247.75 1967.75 2248.01 1968.75 2248.27 1969.89 2248.4 1971.17 2248.4 1974.53 2248.4 1977.07 2247.6 1978.8 2245.99 1980.54 2244.39 1981.4 2241.96 1981.4 2238.71 1981.4 2235.25 1980.26 2232.62 1977.98 2230.84 1975.71 2229.05 1972.33 2228.16 1967.85 2228.16L1964.41 2228.16 1964.41 2224.41C1967.14 2224.28 1969.51 2223.9 1971.5 2223.26 1973.49 2222.62 1975.15 2221.8 1976.48 2220.78 1977.81 2219.76 1978.8 2218.58 1979.45 2217.22 1980.1 2215.87 1980.43 2214.43 1980.43 2212.89 1980.43 2210.39 1979.68 2208.42 1978.2 2206.97 1976.71 2205.53 1974.57 2204.8 1971.75 2204.8 1969.38 2204.8 1967.4 2205.45 1965.8 2206.76 1964.19 2208.06 1962.96 2210 1962.1 2212.58L1957.14 2212.58 1957.14 2204.88C1960.22 2203.58 1963.11 2202.6 1965.84 2201.93 1968.56 2201.27 1971.17 2200.94 1973.67 2200.94Z" fill-rule="evenodd"/><text fill="#000000" fill-opacity="0" font-family="Arial,Arial_MSFontService,sans-serif" font-size="51.25" x="1956.56" y="2245.78">3</text><path d="M2212.85 1635.22 2234.33 1635.22 2233.74 1637.86C2232.38 1638.14 2231.41 1638.47 2230.81 1638.82 2230.22 1639.18 2229.7 1639.72 2229.23 1640.43 2228.76 1641.15 2228.28 1642.27 2227.78 1643.79 2227.28 1645.31 2226.65 1647.79 2225.9 1651.23L2222.09 1668.36 2223.86 1668.36C2225.36 1668.36 2226.73 1668.11 2227.97 1667.61 2229.2 1667.11 2230.64 1666.2 2232.29 1664.87 2233.94 1663.55 2236.56 1661.11 2240.16 1657.57 2243.76 1654.02 2246.32 1651.33 2247.84 1649.49 2249.36 1647.64 2250.47 1646.05 2251.17 1644.7 2251.87 1643.36 2252.22 1642.14 2252.22 1641.03 2252.22 1640.13 2251.86 1639.41 2251.14 1638.85 2250.43 1638.3 2249.41 1637.96 2248.08 1637.86L2248.67 1635.22 2271.72 1635.22 2271.12 1637.86C2269.69 1638.07 2268.07 1638.81 2266.26 1640.09 2264.46 1641.36 2261.69 1643.84 2257.97 1647.52L2237.13 1667.83 2248.57 1695.33C2249.75 1698.16 2250.72 1700.2 2251.49 1701.45 2252.26 1702.7 2253.18 1703.7 2254.26 1704.43 2255.33 1705.17 2256.66 1705.66 2258.23 1705.91L2257.64 1708.54 2236.91 1708.54 2237.5 1705.91C2239.43 1705.73 2240.4 1704.87 2240.4 1703.33 2240.4 1702.36 2240.2 1701.26 2239.81 1700.03 2239.42 1698.79 2238.95 1697.51 2238.41 1696.19L2231.43 1679.11C2230.61 1677.07 2229.89 1675.63 2229.28 1674.81 2228.67 1673.99 2228.03 1673.41 2227.35 1673.09 2226.67 1672.77 2225.61 1672.61 2224.18 1672.61L2221.17 1672.61 2216.72 1692.91C2216.25 1695.06 2215.95 1696.75 2215.8 1697.99 2215.66 1699.22 2215.59 1700.32 2215.59 1701.29 2215.59 1702.9 2215.99 1704.04 2216.8 1704.7 2217.6 1705.36 2218.95 1705.77 2220.85 1705.91L2220.26 1708.54 2198.78 1708.54 2199.37 1705.91C2200.73 1705.69 2201.75 1705.34 2202.43 1704.86 2203.11 1704.38 2203.68 1703.71 2204.15 1702.85 2204.61 1701.99 2205.04 1700.94 2205.44 1699.7 2205.83 1698.47 2206.42 1696.08 2207.21 1692.53L2216.34 1651.18C2217.13 1647.6 2217.52 1644.71 2217.52 1642.53 2217.52 1640.85 2217.1 1639.67 2216.26 1639.01 2215.42 1638.35 2214.08 1637.96 2212.26 1637.86Z" fill-rule="evenodd"/><text fill="#000000" fill-opacity="0" font-family="Arial,Arial_MSFontService,sans-serif" font-size="73.3154" x="2198.78" y="1699.38">πΎ</text><rect x="1035.5" y="1504.5" width="325" height="325" stroke="#000000" stroke-width="9.16667" fill="#FFFFFF"/><path d="M1157.28 1629.05 1214.78 1629.05 1210.47 1648.23 1204.47 1648.23C1204.3 1644.61 1203.99 1641.88 1203.53 1640.05 1203.07 1638.21 1202.52 1636.95 1201.87 1636.26 1201.23 1635.58 1200.46 1635.12 1199.56 1634.89 1198.67 1634.66 1197.39 1634.55 1195.72 1634.55L1175.34 1634.55 1168.22 1667.3 1180.16 1667.3C1183.11 1667.3 1185.37 1666.6 1186.94 1665.2 1188.5 1663.81 1190.07 1661.5 1191.66 1658.3L1197.34 1658.3 1191.72 1682.3 1186.41 1682.3C1186.41 1678.96 1186.2 1676.7 1185.78 1675.51 1185.36 1674.33 1184.75 1673.58 1183.94 1673.26 1183.12 1672.95 1181.66 1672.8 1179.53 1672.8L1167.03 1672.8 1159.03 1708.86 1177.53 1708.86C1179.99 1708.86 1181.94 1708.61 1183.37 1708.11 1184.81 1707.61 1186.17 1706.8 1187.44 1705.67 1188.71 1704.55 1189.98 1702.97 1191.25 1700.95 1192.52 1698.93 1194.03 1696.19 1195.78 1692.73L1201.84 1692.73 1196.34 1714.36 1140.91 1714.36 1141.59 1711.3C1143.18 1711.05 1144.36 1710.64 1145.16 1710.08 1145.95 1709.51 1146.61 1708.73 1147.16 1707.73 1147.7 1706.73 1148.2 1705.51 1148.66 1704.08 1149.11 1702.64 1149.8 1699.86 1150.72 1695.73L1161.34 1647.61C1162.26 1643.44 1162.72 1640.09 1162.72 1637.55 1162.72 1635.59 1162.23 1634.22 1161.25 1633.45 1160.27 1632.68 1158.72 1632.23 1156.59 1632.11Z" fill-rule="evenodd"/><text fill="#000000" fill-opacity="0" font-family="Arial,Arial_MSFontService,sans-serif" font-size="85.3125" x="1140.91" y="1703.69">πΈ</text><path d="M1360.5 1725.5 1308.5 1668 1360.5 1610.5Z" stroke="#000000" stroke-width="9.16667" fill="#FFFFFF" fill-rule="evenodd"/><path d="M1.98758e-05-4.58333 60.3048-4.58307 60.3047 4.58359-1.98758e-05 4.58333ZM55.7215-13.7498 83.2214 0.000360892 55.7214 13.7502Z" transform="matrix(-1 0 0 1 1443.72 1668.5)"/><path d="M1203.08 1829.46 1205.14 2080.71 1195.97 2080.78 1193.92 1829.54ZM1214.27 2076.05 1200.74 2103.66 1186.77 2076.27Z"/><path d="M1142.9 2154.89C1146.15 2154.89 1149.17 2155.09 1151.95 2155.48 1154.72 2155.87 1157.81 2156.59 1161.21 2157.63L1157.99 2172.18 1152.83 2172.18C1152.55 2167.78 1151.59 2164.6 1149.96 2162.65 1148.33 2160.7 1145.71 2159.72 1142.09 2159.72 1137.15 2159.72 1132.56 2162.19 1128.31 2167.13 1124.07 2172.08 1120.71 2178.6 1118.24 2186.71 1115.77 2194.82 1114.54 2202.35 1114.54 2209.3 1114.54 2214.74 1115.5 2218.75 1117.44 2221.33 1119.37 2223.91 1122.34 2225.2 1126.35 2225.2 1129.04 2225.2 1131.38 2224.79 1133.39 2223.99 1135.39 2223.18 1137.27 2221.82 1139.03 2219.91 1140.78 2217.99 1142.52 2215.31 1144.24 2211.88L1149.39 2211.88 1146.12 2227.13C1139.42 2228.99 1132.4 2229.92 1125.06 2229.92 1118.33 2229.92 1113.21 2227.99 1109.7 2224.12 1106.19 2220.25 1104.44 2214.6 1104.44 2207.15 1104.44 2201.89 1105.38 2195.82 1107.26 2188.94 1109.14 2182.07 1111.8 2176.03 1115.23 2170.84 1118.67 2165.65 1122.74 2161.69 1127.43 2158.97 1132.12 2156.25 1137.27 2154.89 1142.9 2154.89Z" fill-rule="evenodd"/><text fill="#000000" fill-opacity="0" font-family="Arial,Arial_MSFontService,sans-serif" font-size="75.0342" x="1104.44" y="2220.54">π¶</text><path d="M1175.7 2155.75 1231.77 2155.75 1227.58 2174.65 1222.43 2174.65C1222.43 2171.18 1222.34 2168.58 1222.16 2166.84 1221.98 2165.1 1221.64 2163.78 1221.14 2162.86 1220.63 2161.95 1220.02 2161.32 1219.28 2160.98 1218.55 2160.64 1217.25 2160.47 1215.39 2160.47L1207.44 2160.47 1195.78 2213.43C1195.46 2214.83 1195.24 2215.94 1195.11 2216.76 1194.99 2217.59 1194.88 2218.46 1194.79 2219.37 1194.7 2220.28 1194.66 2221.1 1194.66 2221.81 1194.66 2222.92 1194.84 2223.79 1195.19 2224.42 1195.55 2225.04 1196.09 2225.5 1196.81 2225.79 1197.52 2226.07 1198.76 2226.29 1200.51 2226.43L1199.92 2229.06 1177.31 2229.06 1177.9 2226.43C1179.33 2226.22 1180.39 2225.93 1181.07 2225.57 1181.75 2225.21 1182.35 2224.66 1182.87 2223.91 1183.39 2223.16 1183.91 2221.97 1184.42 2220.36 1184.94 2218.75 1185.56 2216.32 1186.28 2213.06L1197.77 2160.47 1190.95 2160.47C1188.73 2160.47 1186.96 2160.8 1185.63 2161.44 1184.31 2162.09 1182.98 2163.29 1181.66 2165.04 1180.33 2166.79 1178.72 2169.73 1176.82 2173.85L1171.67 2173.85Z" fill-rule="evenodd"/><text fill="#000000" fill-opacity="0" font-family="Arial,Arial_MSFontService,sans-serif" font-size="73.3154" x="1171.67" y="2219.9">π‘‡</text><path d="M1244.72 2200.94C1247.42 2200.94 1249.74 2201.24 1251.65 2201.85 1253.56 2202.47 1255.12 2203.29 1256.32 2204.33 1257.52 2205.38 1258.38 2206.63 1258.92 2208.08 1259.45 2209.54 1259.72 2211.12 1259.72 2212.81 1259.72 2213.83 1259.64 2214.77 1259.5 2215.64 1259.36 2216.52 1259.11 2217.37 1258.76 2218.22 1258.41 2219.07 1257.95 2219.92 1257.37 2220.78 1256.8 2221.64 1256.08 2222.55 1255.22 2223.51 1254.57 2224.35 1253.73 2225.31 1252.69 2226.4 1251.64 2227.5 1250.5 2228.67 1249.27 2229.92 1248.03 2231.17 1246.73 2232.47 1245.38 2233.83 1244.03 2235.18 1242.71 2236.52 1241.44 2237.85 1240.16 2239.18 1238.99 2240.47 1237.92 2241.72 1236.85 2242.97 1235.98 2244.11 1235.3 2245.15L1249.76 2245.15C1250.98 2245.15 1251.96 2245.11 1252.69 2245.02 1253.41 2244.93 1254.02 2244.72 1254.5 2244.41 1254.98 2244.1 1255.39 2243.62 1255.73 2242.99 1256.07 2242.35 1256.46 2241.47 1256.9 2240.35L1260.54 2240.35C1260.41 2242.2 1260.28 2244.06 1260.17 2245.94 1260.05 2247.81 1259.92 2249.67 1259.79 2251.52L1226.71 2251.52 1226.71 2249.49C1227.33 2248.08 1228.06 2246.7 1228.9 2245.33 1229.73 2243.96 1230.67 2242.58 1231.71 2241.17 1232.75 2239.76 1233.94 2238.31 1235.26 2236.81 1236.59 2235.32 1238.06 2233.76 1239.68 2232.15 1242.13 2229.7 1244.12 2227.61 1245.65 2225.88 1247.19 2224.15 1248.4 2222.6 1249.29 2221.25 1250.17 2219.89 1250.78 2218.64 1251.1 2217.5 1251.43 2216.35 1251.59 2215.13 1251.59 2213.83 1251.59 2212.5 1251.4 2211.27 1251.03 2210.15 1250.65 2209.03 1250.11 2208.08 1249.4 2207.3 1248.7 2206.52 1247.81 2205.91 1246.73 2205.47 1245.65 2205.02 1244.4 2204.8 1243 2204.8 1240.58 2204.8 1238.54 2205.46 1236.9 2206.78 1235.26 2208.09 1233.99 2210 1233.08 2212.5L1227.96 2212.5 1227.96 2204.88C1231.29 2203.5 1234.36 2202.5 1237.16 2201.87 1239.96 2201.25 1242.48 2200.94 1244.72 2200.94Z" fill-rule="evenodd"/><text fill="#000000" fill-opacity="0" font-family="Arial,Arial_MSFontService,sans-serif" font-size="50.5859" x="1226.71" y="2245.2">2</text><path d="M1479.53 1635.22 1501.01 1635.22 1500.42 1637.86C1499.06 1638.14 1498.08 1638.47 1497.49 1638.82 1496.9 1639.18 1496.37 1639.72 1495.91 1640.43 1495.44 1641.15 1494.96 1642.27 1494.46 1643.79 1493.96 1645.31 1493.33 1647.79 1492.58 1651.23L1488.76 1668.36 1490.54 1668.36C1492.04 1668.36 1493.41 1668.11 1494.65 1667.61 1495.88 1667.11 1497.32 1666.2 1498.97 1664.87 1500.62 1663.55 1503.24 1661.11 1506.84 1657.57 1510.44 1654.02 1513 1651.33 1514.52 1649.49 1516.04 1647.64 1517.15 1646.05 1517.85 1644.7 1518.55 1643.36 1518.9 1642.14 1518.9 1641.03 1518.9 1640.13 1518.54 1639.41 1517.82 1638.85 1517.11 1638.3 1516.09 1637.96 1514.76 1637.86L1515.35 1635.22 1538.39 1635.22 1537.8 1637.86C1536.37 1638.07 1534.75 1638.81 1532.94 1640.09 1531.13 1641.36 1528.37 1643.84 1524.64 1647.52L1503.8 1667.83 1515.24 1695.33C1516.43 1698.16 1517.4 1700.2 1518.17 1701.45 1518.94 1702.7 1519.86 1703.7 1520.94 1704.43 1522.01 1705.17 1523.34 1705.66 1524.91 1705.91L1524.32 1708.54 1503.59 1708.54 1504.18 1705.91C1506.11 1705.73 1507.08 1704.87 1507.08 1703.33 1507.08 1702.36 1506.88 1701.26 1506.49 1700.03 1506.1 1698.79 1505.63 1697.51 1505.09 1696.19L1498.11 1679.11C1497.29 1677.07 1496.57 1675.63 1495.96 1674.81 1495.35 1673.99 1494.71 1673.41 1494.03 1673.09 1493.35 1672.77 1492.29 1672.61 1490.86 1672.61L1487.85 1672.61 1483.39 1692.91C1482.93 1695.06 1482.62 1696.75 1482.48 1697.99 1482.34 1699.22 1482.27 1700.32 1482.27 1701.29 1482.27 1702.9 1482.67 1704.04 1483.47 1704.7 1484.28 1705.36 1485.63 1705.77 1487.53 1705.91L1486.94 1708.54 1465.45 1708.54 1466.04 1705.91C1467.41 1705.69 1468.43 1705.34 1469.11 1704.86 1469.79 1704.38 1470.36 1703.71 1470.82 1702.85 1471.29 1701.99 1471.72 1700.94 1472.11 1699.7 1472.51 1698.47 1473.1 1696.08 1473.89 1692.53L1483.02 1651.18C1483.81 1647.6 1484.2 1644.71 1484.2 1642.53 1484.2 1640.85 1483.78 1639.67 1482.94 1639.01 1482.1 1638.35 1480.76 1637.96 1478.94 1637.86Z" fill-rule="evenodd"/><text fill="#000000" fill-opacity="0" font-family="Arial,Arial_MSFontService,sans-serif" font-size="73.3154" x="1465.45" y="1699.38">πΎ</text><rect x="304.5" y="1504.5" width="325" height="325" stroke="#000000" stroke-width="9.16667" fill="#FFFFFF"/><path d="M426.2 1629.05 483.7 1629.05 479.387 1648.23 473.387 1648.23C473.221 1644.61 472.908 1641.88 472.45 1640.05 471.991 1638.21 471.439 1636.95 470.794 1636.26 470.148 1635.58 469.377 1635.12 468.481 1634.89 467.585 1634.66 466.304 1634.55 464.637 1634.55L444.262 1634.55 437.137 1667.3 449.075 1667.3C452.033 1667.3 454.294 1666.6 455.856 1665.2 457.419 1663.81 458.991 1661.5 460.575 1658.3L466.262 1658.3 460.637 1682.3 455.325 1682.3C455.325 1678.96 455.116 1676.7 454.7 1675.51 454.283 1674.33 453.669 1673.58 452.856 1673.26 452.044 1672.95 450.575 1672.8 448.45 1672.8L435.95 1672.8 427.95 1708.86 446.45 1708.86C448.908 1708.86 450.856 1708.61 452.294 1708.11 453.731 1707.61 455.085 1706.8 456.356 1705.67 457.627 1704.55 458.898 1702.97 460.169 1700.95 461.439 1698.93 462.95 1696.19 464.7 1692.73L470.762 1692.73 465.262 1714.36 409.825 1714.36 410.512 1711.3C412.096 1711.05 413.283 1710.64 414.075 1710.08 414.866 1709.51 415.533 1708.73 416.075 1707.73 416.616 1706.73 417.116 1705.51 417.575 1704.08 418.033 1702.64 418.721 1699.86 419.637 1695.73L430.262 1647.61C431.179 1643.44 431.637 1640.09 431.637 1637.55 431.637 1635.59 431.148 1634.22 430.169 1633.45 429.189 1632.68 427.637 1632.23 425.512 1632.11Z" fill-rule="evenodd"/><text fill="#000000" fill-opacity="0" font-family="Arial,Arial_MSFontService,sans-serif" font-size="85.3125" x="409.825" y="1703.69">πΈ</text><path d="M629.5 1725.5 577.5 1668 629.5 1610.5Z" stroke="#000000" stroke-width="9.16667" fill="#FFFFFF" fill-rule="evenodd"/><path d="M1.98758e-05-4.58333 60.3048-4.58307 60.3047 4.58359-1.98758e-05 4.58333ZM55.7215-13.7498 83.2214 0.000360892 55.7214 13.7502Z" transform="matrix(-1 0 0 1 712.721 1668.5)"/><path d="M4.58268-0.0772691 5.72977 67.9542-3.4356 68.1087-4.58268 0.0772691ZM14.8179 63.217 1.53343 90.9449-12.6782 63.6806Z" transform="matrix(-1 0 0 1 469.033 1413.5)"/><path d="M472.083 1829.5 472.084 2080.74 462.917 2080.74 462.917 1829.5ZM481.25 2076.16 467.5 2103.66 453.75 2076.16Z"/><path d="M443.652 1295.53 465.889 1295.53 465.298 1298.16C463.722 1298.34 462.496 1298.8 461.619 1299.56 460.741 1300.31 460.124 1301.35 459.766 1302.7 459.408 1304.04 459.229 1305.84 459.229 1308.1 459.229 1308.63 459.282 1310.24 459.39 1312.93L460.894 1352.25 460.894 1356.54 461.431 1356.54 484.688 1314.59C486.048 1312.12 487.069 1310 487.749 1308.23 488.429 1306.46 488.77 1304.89 488.77 1303.53 488.77 1300.52 486.979 1298.73 483.398 1298.16L483.989 1295.53 505.957 1295.53 505.366 1298.16C504.399 1298.3 503.477 1298.67 502.6 1299.26 501.723 1299.85 500.738 1300.84 499.646 1302.21 498.554 1303.59 496.862 1306.25 494.57 1310.19L460.195 1369.7 453.052 1369.7 449.453 1309.81C449.31 1307.49 449.05 1305.49 448.674 1303.83 448.298 1302.16 447.708 1300.86 446.902 1299.93 446.096 1299 444.816 1298.41 443.062 1298.16ZM413.093 1295.53 434.577 1295.53 433.986 1298.16C432.626 1298.45 431.65 1298.77 431.059 1299.13 430.468 1299.48 429.94 1300.02 429.475 1300.74 429.009 1301.45 428.526 1302.57 428.024 1304.09 427.523 1305.62 426.897 1308.1 426.145 1311.53L416.96 1353.21C416.495 1355.33 416.19 1357 416.047 1358.23 415.904 1359.47 415.832 1360.59 415.832 1361.59 415.832 1363.2 416.235 1364.34 417.041 1365 417.846 1365.66 419.198 1366.07 421.096 1366.21L420.505 1368.84 399.021 1368.84 399.611 1366.21C400.972 1366 401.993 1365.65 402.673 1365.16 403.353 1364.68 403.926 1364.01 404.392 1363.15 404.857 1362.29 405.287 1361.24 405.681 1360.01 406.075 1358.77 406.665 1356.38 407.453 1352.84L416.584 1311.48C417.372 1307.9 417.766 1305.02 417.766 1302.83 417.766 1301.15 417.345 1299.98 416.503 1299.31 415.662 1298.65 414.328 1298.27 412.502 1298.16Z" fill-rule="evenodd"/><text fill="#000000" fill-opacity="0" font-family="Arial,Arial_MSFontService,sans-serif" font-size="74.1748" x="399.021" y="1360.43">πΌπ‘‰</text><path d="M410.846 2154.89C414.105 2154.89 417.122 2155.09 419.897 2155.48 422.672 2155.87 425.76 2156.59 429.162 2157.63L425.939 2172.18 420.783 2172.18C420.497 2167.78 419.539 2164.6 417.909 2162.65 416.28 2160.7 413.657 2159.72 410.041 2159.72 405.099 2159.72 400.507 2162.19 396.264 2167.13 392.021 2172.08 388.664 2178.6 386.193 2186.71 383.722 2194.82 382.487 2202.35 382.487 2209.3 382.487 2214.74 383.454 2218.75 385.387 2221.33 387.321 2223.91 390.293 2225.2 394.303 2225.2 396.989 2225.2 399.334 2224.79 401.34 2223.99 403.345 2223.18 405.225 2221.82 406.979 2219.91 408.734 2217.99 410.47 2215.31 412.189 2211.88L417.345 2211.88 414.069 2227.13C407.373 2228.99 400.355 2229.92 393.014 2229.92 386.283 2229.92 381.162 2227.99 377.653 2224.12 374.144 2220.25 372.389 2214.6 372.389 2207.15 372.389 2201.89 373.329 2195.82 375.209 2188.94 377.089 2182.07 379.748 2176.03 383.185 2170.84 386.623 2165.65 390.687 2161.69 395.378 2158.97 400.068 2156.25 405.225 2154.89 410.846 2154.89Z" fill-rule="evenodd"/><text fill="#000000" fill-opacity="0" font-family="Arial,Arial_MSFontService,sans-serif" font-size="75.0342" x="372.389" y="2220.54">π¶</text><path d="M443.647 2155.75 499.722 2155.75 495.532 2174.65 490.376 2174.65C490.376 2171.18 490.286 2168.58 490.107 2166.84 489.928 2165.1 489.588 2163.78 489.087 2162.86 488.586 2161.95 487.968 2161.32 487.234 2160.98 486.5 2160.64 485.202 2160.47 483.34 2160.47L475.391 2160.47 463.735 2213.43C463.413 2214.83 463.189 2215.94 463.064 2216.76 462.939 2217.59 462.831 2218.46 462.742 2219.37 462.652 2220.28 462.607 2221.1 462.607 2221.81 462.607 2222.92 462.786 2223.79 463.144 2224.42 463.503 2225.04 464.04 2225.5 464.756 2225.79 465.472 2226.07 466.707 2226.29 468.462 2226.43L467.871 2229.06 445.259 2229.06 445.85 2226.43C447.282 2226.22 448.338 2225.93 449.018 2225.57 449.699 2225.21 450.299 2224.66 450.818 2223.91 451.337 2223.16 451.856 2221.97 452.375 2220.36 452.895 2218.75 453.512 2216.32 454.228 2213.06L465.723 2160.47 458.901 2160.47C456.681 2160.47 454.909 2160.8 453.584 2161.44 452.259 2162.09 450.934 2163.29 449.609 2165.04 448.284 2166.79 446.673 2169.73 444.775 2173.85L439.619 2173.85Z" fill-rule="evenodd"/><text fill="#000000" fill-opacity="0" font-family="Arial,Arial_MSFontService,sans-serif" font-size="73.3154" x="439.619" y="2219.9">π‘‡</text><path d="M513.17 2201.21 515.553 2201.21C515.501 2202.64 515.462 2203.92 515.436 2205.06 515.41 2206.19 515.39 2207.29 515.377 2208.36 515.364 2209.43 515.358 2210.48 515.358 2211.52L515.358 2241.21C515.358 2242.02 515.384 2242.71 515.436 2243.3 515.488 2243.89 515.573 2244.38 515.69 2244.78 515.807 2245.19 515.963 2245.53 516.159 2245.82 516.354 2246.1 516.582 2246.35 516.842 2246.56 517.155 2246.87 517.571 2247.11 518.092 2247.28 518.613 2247.45 519.277 2247.6 520.084 2247.71 520.892 2247.83 521.862 2247.92 522.994 2247.99 524.127 2248.05 525.488 2248.1 527.076 2248.12L527.076 2251.52 496.1 2251.52 496.1 2248.12C497.636 2248.07 498.938 2248.01 500.006 2247.95 501.074 2247.88 501.985 2247.79 502.741 2247.67 503.496 2247.56 504.101 2247.43 504.557 2247.28 505.013 2247.14 505.41 2246.96 505.748 2246.76 506.113 2246.52 506.425 2246.27 506.686 2245.99 506.946 2245.72 507.155 2245.38 507.311 2244.96 507.467 2244.54 507.591 2244.03 507.682 2243.44 507.773 2242.84 507.819 2242.09 507.819 2241.21L507.819 2213.2C507.819 2212.19 507.623 2211.47 507.233 2211.05 506.842 2210.64 506.282 2210.43 505.553 2210.43 504.746 2210.43 503.548 2210.84 501.959 2211.68 500.371 2212.51 498.313 2213.75 495.787 2215.39 495.449 2214.79 495.136 2214.19 494.85 2213.59 494.563 2212.99 494.264 2212.38 493.951 2211.76 497.181 2209.99 500.377 2208.22 503.541 2206.46 506.705 2204.71 509.915 2202.95 513.17 2201.21Z" fill-rule="evenodd"/><text fill="#000000" fill-opacity="0" font-family="Arial,Arial_MSFontService,sans-serif" font-size="50.3125" x="493.951" y="2245.23">1</text><path d="M748.445 1635.22 769.929 1635.22 769.338 1637.86C767.978 1638.14 767.002 1638.47 766.411 1638.82 765.82 1639.18 765.292 1639.72 764.827 1640.43 764.361 1641.15 763.878 1642.27 763.376 1643.79 762.875 1645.31 762.249 1647.79 761.497 1651.23L757.683 1668.36 759.456 1668.36C760.959 1668.36 762.329 1668.11 763.564 1667.61 764.8 1667.11 766.241 1666.2 767.888 1664.87 769.535 1663.55 772.158 1661.11 775.757 1657.57 779.355 1654.02 781.916 1651.33 783.438 1649.49 784.959 1647.64 786.069 1646.05 786.768 1644.7 787.466 1643.36 787.815 1642.14 787.815 1641.03 787.815 1640.13 787.457 1639.41 786.741 1638.85 786.025 1638.3 785.004 1637.96 783.679 1637.86L784.27 1635.22 807.312 1635.22 806.721 1637.86C805.289 1638.07 803.669 1638.81 801.86 1640.09 800.052 1641.36 797.286 1643.84 793.562 1647.52L772.722 1667.83 784.163 1695.33C785.344 1698.16 786.32 1700.2 787.09 1701.45 787.86 1702.7 788.782 1703.7 789.856 1704.43 790.93 1705.17 792.255 1705.66 793.831 1705.91L793.24 1708.54 772.507 1708.54 773.098 1705.91C775.032 1705.73 775.999 1704.87 775.999 1703.33 775.999 1702.36 775.802 1701.26 775.408 1700.03 775.014 1698.79 774.548 1697.51 774.011 1696.19L767.029 1679.11C766.205 1677.07 765.489 1675.63 764.88 1674.81 764.272 1673.99 763.627 1673.41 762.947 1673.09 762.266 1672.77 761.21 1672.61 759.778 1672.61L756.77 1672.61 752.312 1692.91C751.846 1695.06 751.542 1696.75 751.399 1697.99 751.256 1699.22 751.184 1700.32 751.184 1701.29 751.184 1702.9 751.587 1704.04 752.393 1704.7 753.198 1705.36 754.55 1705.77 756.448 1705.91L755.857 1708.54 734.373 1708.54 734.963 1705.91C736.324 1705.69 737.345 1705.34 738.025 1704.86 738.705 1704.38 739.278 1703.71 739.744 1702.85 740.209 1701.99 740.639 1700.94 741.033 1699.7 741.427 1698.47 742.017 1696.08 742.805 1692.53L751.936 1651.18C752.724 1647.6 753.118 1644.71 753.118 1642.53 753.118 1640.85 752.697 1639.67 751.855 1639.01 751.014 1638.35 749.68 1637.96 747.854 1637.86Z" fill-rule="evenodd"/><text fill="#000000" fill-opacity="0" font-family="Arial,Arial_MSFontService,sans-serif" font-size="73.3154" x="734.373" y="1699.38">πΎ</text><path d="M408.5 1954.5C408.5 1921.92 434.915 1895.5 467.5 1895.5 500.085 1895.5 526.5 1921.92 526.5 1954.5 526.5 1987.08 500.085 2013.5 467.5 2013.5 434.915 2013.5 408.5 1987.08 408.5 1954.5Z" fill="#FFFFFF" fill-rule="evenodd"/><path d="M467.5 1895.5 467.5 2013.5M408.5 1954.5 526.5 1954.5" stroke="#000000" stroke-width="9.16667" fill="none" fill-rule="evenodd"/><path d="M408.5 1954.5C408.5 1921.92 434.915 1895.5 467.5 1895.5 500.085 1895.5 526.5 1921.92 526.5 1954.5 526.5 1987.08 500.085 2013.5 467.5 2013.5 434.915 2013.5 408.5 1987.08 408.5 1954.5Z" stroke="#000000" stroke-width="9.16667" fill="none" fill-rule="evenodd"/><path d="M1142.5 1954.5C1142.5 1921.92 1168.92 1895.5 1201.5 1895.5 1234.08 1895.5 1260.5 1921.92 1260.5 1954.5 1260.5 1987.08 1234.08 2013.5 1201.5 2013.5 1168.92 2013.5 1142.5 1987.08 1142.5 1954.5Z" fill="#FFFFFF" fill-rule="evenodd"/><path d="M1201.5 1895.5 1201.5 2013.5M1142.5 1954.5 1260.5 1954.5" stroke="#000000" stroke-width="9.16667" fill="none" fill-rule="evenodd"/><path d="M1142.5 1954.5C1142.5 1921.92 1168.92 1895.5 1201.5 1895.5 1234.08 1895.5 1260.5 1921.92 1260.5 1954.5 1260.5 1987.08 1234.08 2013.5 1201.5 2013.5 1168.92 2013.5 1142.5 1987.08 1142.5 1954.5Z" stroke="#000000" stroke-width="9.16667" fill="none" fill-rule="evenodd"/><path d="M1870.5 1954.5C1870.5 1921.92 1896.92 1895.5 1929.5 1895.5 1962.08 1895.5 1988.5 1921.92 1988.5 1954.5 1988.5 1987.08 1962.08 2013.5 1929.5 2013.5 1896.92 2013.5 1870.5 1987.08 1870.5 1954.5Z" fill="#FFFFFF" fill-rule="evenodd"/><path d="M1929.5 1895.5 1929.5 2013.5M1870.5 1954.5 1988.5 1954.5" stroke="#000000" stroke-width="9.16667" fill="none" fill-rule="evenodd"/><path d="M1870.5 1954.5C1870.5 1921.92 1896.92 1895.5 1929.5 1895.5 1962.08 1895.5 1988.5 1921.92 1988.5 1954.5 1988.5 1987.08 1962.08 2013.5 1929.5 2013.5 1896.92 2013.5 1870.5 1987.08 1870.5 1954.5Z" stroke="#000000" stroke-width="9.16667" fill="none" fill-rule="evenodd"/><path d="M2599.5 1954.5C2599.5 1921.92 2625.69 1895.5 2658 1895.5 2690.31 1895.5 2716.5 1921.92 2716.5 1954.5 2716.5 1987.08 2690.31 2013.5 2658 2013.5 2625.69 2013.5 2599.5 1987.08 2599.5 1954.5Z" fill="#FFFFFF" fill-rule="evenodd"/><path d="M2658 1895.5 2658 2013.5M2599.5 1954.5 2716.5 1954.5" stroke="#000000" stroke-width="9.16667" fill="none" fill-rule="evenodd"/><path d="M2599.5 1954.5C2599.5 1921.92 2625.69 1895.5 2658 1895.5 2690.31 1895.5 2716.5 1921.92 2716.5 1954.5 2716.5 1987.08 2690.31 2013.5 2658 2013.5 2625.69 2013.5 2599.5 1987.08 2599.5 1954.5Z" stroke="#000000" stroke-width="9.16667" fill="none" fill-rule="evenodd"/><path d="M723.33 1926.45C721.11 1926.45 718.783 1926.51 716.348 1926.61L709.043 1959.16 714.629 1959.16C718.962 1959.16 722.462 1958.71 725.13 1957.82 727.797 1956.92 729.982 1955.54 731.682 1953.66 733.383 1951.78 734.699 1949.55 735.63 1946.97 736.561 1944.39 737.027 1941.56 737.027 1938.48 737.027 1934.33 735.97 1931.29 733.858 1929.35 731.745 1927.42 728.236 1926.45 723.33 1926.45ZM700.825 1921.73 724.512 1921.73C728.773 1921.73 732.273 1922.06 735.012 1922.72 737.752 1923.38 740.008 1924.4 741.78 1925.78 743.552 1927.16 744.877 1928.9 745.755 1931.02 746.632 1933.13 747.071 1935.58 747.071 1938.38 747.071 1943.75 745.799 1948.4 743.257 1952.34 740.715 1956.28 737.268 1959.18 732.918 1961.04 728.567 1962.9 723.348 1963.83 717.261 1963.83 713.609 1963.83 710.565 1963.76 708.13 1963.62L704.693 1979.41C704.37 1980.88 704.147 1982.01 704.021 1982.79 703.896 1983.58 703.789 1984.43 703.699 1985.35 703.609 1986.26 703.565 1987.07 703.565 1987.79 703.565 1988.9 703.744 1989.77 704.102 1990.4 704.46 1991.02 704.997 1991.48 705.713 1991.76 706.429 1992.05 707.665 1992.27 709.419 1992.41L708.828 1995.04 686.753 1995.04 687.344 1992.41C688.705 1992.19 689.725 1991.85 690.406 1991.36 691.086 1990.88 691.659 1990.21 692.124 1989.35 692.59 1988.49 693.019 1987.44 693.413 1986.21 693.807 1984.97 694.398 1982.58 695.186 1979.04L704.317 1937.68C705.104 1934.1 705.498 1931.27 705.498 1929.19 705.498 1927.44 705.086 1926.22 704.263 1925.54 703.439 1924.86 702.097 1924.46 700.235 1924.36Z" fill-rule="evenodd"/><text fill="#000000" fill-opacity="0" font-family="Arial,Arial_MSFontService,sans-serif" font-size="73.3154" x="686.753" y="1985.88">π‘ƒ</text><path d="M762.338 1921.73 818.412 1921.73 814.223 1940.63 809.067 1940.63C809.067 1937.16 808.977 1934.55 808.798 1932.82 808.619 1931.08 808.279 1929.76 807.778 1928.84 807.276 1927.93 806.659 1927.3 805.924 1926.96 805.19 1926.62 803.892 1926.45 802.03 1926.45L794.081 1926.45 782.426 1979.41C782.104 1980.81 781.88 1981.92 781.755 1982.74 781.629 1983.56 781.522 1984.43 781.432 1985.35 781.343 1986.26 781.298 1987.07 781.298 1987.79 781.298 1988.9 781.477 1989.77 781.835 1990.4 782.193 1991.02 782.73 1991.48 783.446 1991.76 784.163 1992.05 785.398 1992.27 787.153 1992.41L786.562 1995.04 763.949 1995.04 764.54 1992.41C765.973 1992.19 767.029 1991.91 767.709 1991.55 768.39 1991.19 768.989 1990.64 769.508 1989.88 770.028 1989.13 770.547 1987.95 771.066 1986.34 771.585 1984.73 772.203 1982.29 772.919 1979.04L784.413 1926.45 777.592 1926.45C775.372 1926.45 773.599 1926.77 772.275 1927.42 770.95 1928.06 769.625 1929.26 768.3 1931.02 766.975 1932.77 765.364 1935.71 763.466 1939.83L758.31 1939.83Z" fill-rule="evenodd"/><text fill="#000000" fill-opacity="0" font-family="Arial,Arial_MSFontService,sans-serif" font-size="73.3154" x="758.31" y="1985.88">π‘‡</text><path d="M831.861 1967.19 834.244 1967.19C834.192 1968.62 834.153 1969.9 834.127 1971.03 834.1 1972.17 834.081 1973.27 834.068 1974.34 834.055 1975.4 834.048 1976.46 834.048 1977.5L834.048 2007.19C834.048 2007.99 834.074 2008.69 834.127 2009.28 834.179 2009.86 834.263 2010.36 834.38 2010.76 834.498 2011.16 834.654 2011.51 834.849 2011.8 835.044 2012.08 835.272 2012.33 835.533 2012.54 835.845 2012.85 836.262 2013.09 836.783 2013.26 837.304 2013.43 837.968 2013.57 838.775 2013.69 839.582 2013.81 840.552 2013.9 841.685 2013.96 842.818 2014.03 844.179 2014.07 845.767 2014.1L845.767 2017.5 814.791 2017.5 814.791 2014.1C816.327 2014.05 817.629 2013.99 818.697 2013.93 819.765 2013.86 820.676 2013.77 821.431 2013.65 822.186 2013.53 822.792 2013.4 823.248 2013.26 823.703 2013.12 824.1 2012.94 824.439 2012.73 824.804 2012.5 825.116 2012.25 825.377 2011.97 825.637 2011.7 825.845 2011.35 826.002 2010.94 826.158 2010.52 826.281 2010.01 826.373 2009.41 826.464 2008.81 826.509 2008.07 826.509 2007.19L826.509 1979.18C826.509 1978.16 826.314 1977.45 825.923 1977.03 825.533 1976.61 824.973 1976.41 824.244 1976.41 823.436 1976.41 822.239 1976.82 820.65 1977.66 819.061 1978.49 817.004 1979.73 814.478 1981.37 814.14 1980.77 813.827 1980.17 813.541 1979.57 813.254 1978.97 812.955 1978.36 812.642 1977.73 815.871 1975.96 819.068 1974.2 822.232 1972.44 825.396 1970.68 828.606 1968.93 831.861 1967.19Z" fill-rule="evenodd"/><text fill="#000000" fill-opacity="0" font-family="Arial,Arial_MSFontService,sans-serif" font-size="50.3125" x="812.642" y="2011.21">1</text><path d="M633.958 1959.09 549.416 1959.09 549.417 1949.92 633.959 1949.93ZM553.999 1968.25 526.5 1954.5 554.002 1940.75Z"/><path d="M1446.01 1926.45C1443.79 1926.45 1441.47 1926.51 1439.03 1926.61L1431.73 1959.16 1437.31 1959.16C1441.65 1959.16 1445.15 1958.71 1447.81 1957.82 1450.48 1956.92 1452.67 1955.54 1454.37 1953.66 1456.07 1951.78 1457.38 1949.55 1458.31 1946.97 1459.24 1944.39 1459.71 1941.56 1459.71 1938.48 1459.71 1934.33 1458.65 1931.29 1456.54 1929.35 1454.43 1927.42 1450.92 1926.45 1446.01 1926.45ZM1423.51 1921.73 1447.2 1921.73C1451.46 1921.73 1454.96 1922.06 1457.7 1922.72 1460.44 1923.38 1462.69 1924.4 1464.46 1925.78 1466.24 1927.16 1467.56 1928.9 1468.44 1931.02 1469.32 1933.13 1469.75 1935.58 1469.75 1938.38 1469.75 1943.75 1468.48 1948.4 1465.94 1952.34 1463.4 1956.28 1459.95 1959.18 1455.6 1961.04 1451.25 1962.9 1446.03 1963.83 1439.94 1963.83 1436.29 1963.83 1433.25 1963.76 1430.81 1963.62L1427.38 1979.41C1427.05 1980.88 1426.83 1982.01 1426.7 1982.79 1426.58 1983.58 1426.47 1984.43 1426.38 1985.35 1426.29 1986.26 1426.25 1987.07 1426.25 1987.79 1426.25 1988.9 1426.43 1989.77 1426.79 1990.4 1427.14 1991.02 1427.68 1991.48 1428.4 1991.76 1429.11 1992.05 1430.35 1992.27 1432.1 1992.41L1431.51 1995.04 1409.44 1995.04 1410.03 1992.41C1411.39 1992.19 1412.41 1991.85 1413.09 1991.36 1413.77 1990.88 1414.34 1990.21 1414.81 1989.35 1415.27 1988.49 1415.7 1987.44 1416.1 1986.21 1416.49 1984.97 1417.08 1982.58 1417.87 1979.04L1427 1937.68C1427.79 1934.1 1428.18 1931.27 1428.18 1929.19 1428.18 1927.44 1427.77 1926.22 1426.95 1925.54 1426.12 1924.86 1424.78 1924.46 1422.92 1924.36Z" fill-rule="evenodd"/><text fill="#000000" fill-opacity="0" font-family="Arial,Arial_MSFontService,sans-serif" font-size="73.3154" x="1409.44" y="1985.88">π‘ƒ</text><path d="M1485.02 1921.73 1541.1 1921.73 1536.91 1940.63 1531.75 1940.63C1531.75 1937.16 1531.66 1934.55 1531.48 1932.82 1531.3 1931.08 1530.96 1929.76 1530.46 1928.84 1529.96 1927.93 1529.34 1927.3 1528.61 1926.96 1527.87 1926.62 1526.58 1926.45 1524.71 1926.45L1516.76 1926.45 1505.11 1979.41C1504.79 1980.81 1504.56 1981.92 1504.44 1982.74 1504.31 1983.56 1504.21 1984.43 1504.12 1985.35 1504.03 1986.26 1503.98 1987.07 1503.98 1987.79 1503.98 1988.9 1504.16 1989.77 1504.52 1990.4 1504.88 1991.02 1505.41 1991.48 1506.13 1991.76 1506.85 1992.05 1508.08 1992.27 1509.84 1992.41L1509.25 1995.04 1486.63 1995.04 1487.22 1992.41C1488.66 1992.19 1489.71 1991.91 1490.39 1991.55 1491.07 1991.19 1491.67 1990.64 1492.19 1989.88 1492.71 1989.13 1493.23 1987.95 1493.75 1986.34 1494.27 1984.73 1494.89 1982.29 1495.6 1979.04L1507.1 1926.45 1500.28 1926.45C1498.06 1926.45 1496.28 1926.77 1494.96 1927.42 1493.63 1928.06 1492.31 1929.26 1490.98 1931.02 1489.66 1932.77 1488.05 1935.71 1486.15 1939.83L1480.99 1939.83Z" fill-rule="evenodd"/><text fill="#000000" fill-opacity="0" font-family="Arial,Arial_MSFontService,sans-serif" font-size="73.3154" x="1480.99" y="1985.88">π‘‡</text><path d="M1554.04 1966.91C1556.75 1966.91 1559.06 1967.22 1560.97 1967.83 1562.89 1968.44 1564.45 1969.27 1565.64 1970.31 1566.84 1971.35 1567.71 1972.6 1568.24 1974.06 1568.77 1975.52 1569.04 1977.1 1569.04 1978.79 1569.04 1979.8 1568.97 1980.75 1568.83 1981.62 1568.68 1982.49 1568.44 1983.35 1568.08 1984.2 1567.73 1985.04 1567.27 1985.9 1566.7 1986.76 1566.12 1987.62 1565.41 1988.53 1564.55 1989.49 1563.9 1990.32 1563.05 1991.29 1562.01 1992.38 1560.97 1993.48 1559.83 1994.65 1558.59 1995.9 1557.36 1997.15 1556.06 1998.45 1554.71 1999.8 1553.35 2001.16 1552.04 2002.5 1550.76 2003.83 1549.48 2005.16 1548.31 2006.44 1547.24 2007.69 1546.18 2008.94 1545.3 2010.09 1544.63 2011.13L1559.08 2011.13C1560.3 2011.13 1561.28 2011.09 1562.01 2011 1562.74 2010.9 1563.34 2010.7 1563.83 2010.39 1564.31 2010.08 1564.72 2009.6 1565.06 2008.96 1565.4 2008.33 1565.79 2007.45 1566.23 2006.33L1569.86 2006.33C1569.73 2008.18 1569.61 2010.04 1569.49 2011.91 1569.37 2013.79 1569.25 2015.65 1569.12 2017.5L1536.03 2017.5 1536.03 2015.47C1536.66 2014.06 1537.39 2012.68 1538.22 2011.31 1539.05 2009.94 1539.99 2008.55 1541.03 2007.15 1542.08 2005.74 1543.26 2004.29 1544.59 2002.79 1545.92 2001.29 1547.39 1999.74 1549 1998.12 1551.45 1995.68 1553.44 1993.59 1554.98 1991.85 1556.52 1990.12 1557.73 1988.58 1558.61 1987.23 1559.5 1985.87 1560.1 1984.62 1560.43 1983.48 1560.75 1982.33 1560.92 1981.11 1560.92 1979.8 1560.92 1978.48 1560.73 1977.25 1560.35 1976.13 1559.97 1975.01 1559.43 1974.06 1558.73 1973.28 1558.03 1972.5 1557.13 1971.89 1556.05 1971.44 1554.97 1971 1553.73 1970.78 1552.32 1970.78 1549.9 1970.78 1547.87 1971.44 1546.23 1972.75 1544.59 1974.07 1543.31 1975.98 1542.4 1978.48L1537.28 1978.48 1537.28 1970.86C1540.62 1969.48 1543.68 1968.48 1546.48 1967.85 1549.28 1967.23 1551.8 1966.91 1554.04 1966.91Z" fill-rule="evenodd"/><text fill="#000000" fill-opacity="0" font-family="Arial,Arial_MSFontService,sans-serif" font-size="50.5859" x="1536.03" y="2011.18">2</text><path d="M1358.92 1959.09 1283.42 1959.09 1283.42 1949.92 1358.92 1949.93ZM1288 1968.25 1260.5 1954.5 1288 1940.75Z"/><path d="M2183.49 1926.45C2181.27 1926.45 2178.94 1926.51 2176.51 1926.61L2169.2 1959.16 2174.79 1959.16C2179.12 1959.16 2182.62 1958.71 2185.29 1957.82 2187.96 1956.92 2190.14 1955.54 2191.84 1953.66 2193.54 1951.78 2194.86 1949.55 2195.79 1946.97 2196.72 1944.39 2197.19 1941.56 2197.19 1938.48 2197.19 1934.33 2196.13 1931.29 2194.02 1929.35 2191.91 1927.42 2188.4 1926.45 2183.49 1926.45ZM2160.99 1921.73 2184.67 1921.73C2188.93 1921.73 2192.43 1922.06 2195.17 1922.72 2197.91 1923.38 2200.17 1924.4 2201.94 1925.78 2203.71 1927.16 2205.04 1928.9 2205.92 1931.02 2206.79 1933.13 2207.23 1935.58 2207.23 1938.38 2207.23 1943.75 2205.96 1948.4 2203.42 1952.34 2200.88 1956.28 2197.43 1959.18 2193.08 1961.04 2188.73 1962.9 2183.51 1963.83 2177.42 1963.83 2173.77 1963.83 2170.73 1963.76 2168.29 1963.62L2164.85 1979.41C2164.53 1980.88 2164.31 1982.01 2164.18 1982.79 2164.06 1983.58 2163.95 1984.43 2163.86 1985.35 2163.77 1986.26 2163.73 1987.07 2163.73 1987.79 2163.73 1988.9 2163.9 1989.77 2164.26 1990.4 2164.62 1991.02 2165.16 1991.48 2165.87 1991.76 2166.59 1992.05 2167.83 1992.27 2169.58 1992.41L2168.99 1995.04 2146.91 1995.04 2147.5 1992.41C2148.87 1992.19 2149.89 1991.85 2150.57 1991.36 2151.25 1990.88 2151.82 1990.21 2152.28 1989.35 2152.75 1988.49 2153.18 1987.44 2153.57 1986.21 2153.97 1984.97 2154.56 1982.58 2155.35 1979.04L2164.48 1937.68C2165.27 1934.1 2165.66 1931.27 2165.66 1929.19 2165.66 1927.44 2165.25 1926.22 2164.42 1925.54 2163.6 1924.86 2162.26 1924.46 2160.4 1924.36Z" fill-rule="evenodd"/><text fill="#000000" fill-opacity="0" font-family="Arial,Arial_MSFontService,sans-serif" font-size="73.3154" x="2146.91" y="1985.88">π‘ƒ</text><path d="M2222.5 1921.73 2278.57 1921.73 2274.38 1940.63 2269.23 1940.63C2269.23 1937.16 2269.14 1934.55 2268.96 1932.82 2268.78 1931.08 2268.44 1929.76 2267.94 1928.84 2267.44 1927.93 2266.82 1927.3 2266.09 1926.96 2265.35 1926.62 2264.05 1926.45 2262.19 1926.45L2254.24 1926.45 2242.59 1979.41C2242.26 1980.81 2242.04 1981.92 2241.92 1982.74 2241.79 1983.56 2241.68 1984.43 2241.59 1985.35 2241.5 1986.26 2241.46 1987.07 2241.46 1987.79 2241.46 1988.9 2241.64 1989.77 2242 1990.4 2242.35 1991.02 2242.89 1991.48 2243.61 1991.76 2244.32 1992.05 2245.56 1992.27 2247.31 1992.41L2246.72 1995.04 2224.11 1995.04 2224.7 1992.41C2226.13 1992.19 2227.19 1991.91 2227.87 1991.55 2228.55 1991.19 2229.15 1990.64 2229.67 1989.88 2230.19 1989.13 2230.71 1987.95 2231.23 1986.34 2231.75 1984.73 2232.36 1982.29 2233.08 1979.04L2244.57 1926.45 2237.75 1926.45C2235.53 1926.45 2233.76 1926.77 2232.44 1927.42 2231.11 1928.06 2229.79 1929.26 2228.46 1931.02 2227.14 1932.77 2225.52 1935.71 2223.63 1939.83L2218.47 1939.83Z" fill-rule="evenodd"/><text fill="#000000" fill-opacity="0" font-family="Arial,Arial_MSFontService,sans-serif" font-size="73.3154" x="2218.47" y="1985.88">π‘‡</text><path d="M2291.44 1966.91C2293.52 1966.91 2295.47 1967.13 2297.28 1967.58 2299.09 1968.02 2300.66 1968.69 2301.99 1969.59 2303.32 1970.49 2304.35 1971.61 2305.09 1972.95 2305.83 1974.29 2306.21 1975.85 2306.21 1977.62 2306.21 1979.28 2305.97 1980.75 2305.5 1982.03 2305.03 1983.31 2304.31 1984.47 2303.33 1985.51 2302.36 1986.55 2301.16 1987.49 2299.74 1988.34 2298.32 1989.19 2296.69 1990 2294.84 1990.78L2294.84 1991.25C2296.58 1991.56 2298.21 1992.06 2299.72 1992.75 2301.23 1993.44 2302.55 1994.32 2303.69 1995.37 2304.82 1996.43 2305.71 1997.64 2306.36 1999.02 2307.01 2000.4 2307.34 2001.93 2307.34 2003.59 2307.34 2005.68 2306.95 2007.61 2306.17 2009.39 2305.39 2011.18 2304.21 2012.72 2302.65 2014.02 2301.09 2015.32 2299.16 2016.34 2296.87 2017.07 2294.58 2017.8 2291.9 2018.16 2288.82 2018.16 2286.4 2018.16 2283.94 2017.92 2281.44 2017.44 2278.94 2016.96 2276.57 2016.33 2274.33 2015.55L2274.33 2007.11 2279.37 2007.11C2279.79 2008.41 2280.28 2009.52 2280.85 2010.45 2281.43 2011.37 2282.1 2012.13 2282.87 2012.71 2283.63 2013.3 2284.52 2013.72 2285.52 2013.98 2286.52 2014.24 2287.66 2014.37 2288.94 2014.37 2292.3 2014.37 2294.85 2013.57 2296.58 2011.97 2298.31 2010.37 2299.17 2007.94 2299.17 2004.69 2299.17 2001.22 2298.04 1998.6 2295.76 1996.82 2293.48 1995.03 2290.1 1994.14 2285.62 1994.14L2282.18 1994.14 2282.18 1990.39C2284.92 1990.26 2287.28 1989.88 2289.27 1989.24 2291.26 1988.6 2292.92 1987.77 2294.25 1986.76 2295.58 1985.74 2296.57 1984.56 2297.22 1983.2 2297.87 1981.85 2298.2 1980.4 2298.2 1978.87 2298.2 1976.37 2297.46 1974.39 2295.97 1972.95 2294.49 1971.5 2292.34 1970.78 2289.53 1970.78 2287.16 1970.78 2285.17 1971.43 2283.57 1972.73 2281.97 1974.04 2280.74 1975.98 2279.88 1978.55L2274.92 1978.55 2274.92 1970.86C2277.99 1969.56 2280.89 1968.57 2283.61 1967.91 2286.33 1967.25 2288.94 1966.91 2291.44 1966.91Z" fill-rule="evenodd"/><text fill="#000000" fill-opacity="0" font-family="Arial,Arial_MSFontService,sans-serif" font-size="51.25" x="2274.33" y="2011.76">3</text><path d="M2096.31 1959.09 2011.42 1959.09 2011.42 1949.92 2096.31 1949.93ZM2016 1968.25 1988.5 1954.5 2016 1940.75Z"/><path d="M2922.55 1926.45C2920.33 1926.45 2918 1926.51 2915.57 1926.61L2908.26 1959.16 2913.85 1959.16C2918.18 1959.16 2921.68 1958.71 2924.35 1957.82 2927.01 1956.92 2929.2 1955.54 2930.9 1953.66 2932.6 1951.78 2933.92 1949.55 2934.85 1946.97 2935.78 1944.39 2936.24 1941.56 2936.24 1938.48 2936.24 1934.33 2935.19 1931.29 2933.07 1929.35 2930.96 1927.42 2927.45 1926.45 2922.55 1926.45ZM2900.04 1921.73 2923.73 1921.73C2927.99 1921.73 2931.49 1922.06 2934.23 1922.72 2936.97 1923.38 2939.22 1924.4 2941 1925.78 2942.77 1927.16 2944.09 1928.9 2944.97 1931.02 2945.85 1933.13 2946.29 1935.58 2946.29 1938.38 2946.29 1943.75 2945.02 1948.4 2942.47 1952.34 2939.93 1956.28 2936.49 1959.18 2932.14 1961.04 2927.78 1962.9 2922.57 1963.83 2916.48 1963.83 2912.83 1963.83 2909.78 1963.76 2907.35 1963.62L2903.91 1979.41C2903.59 1980.88 2903.36 1982.01 2903.24 1982.79 2903.11 1983.58 2903.01 1984.43 2902.92 1985.35 2902.83 1986.26 2902.78 1987.07 2902.78 1987.79 2902.78 1988.9 2902.96 1989.77 2903.32 1990.4 2903.68 1991.02 2904.21 1991.48 2904.93 1991.76 2905.65 1992.05 2906.88 1992.27 2908.64 1992.41L2908.05 1995.04 2885.97 1995.04 2886.56 1992.41C2887.92 1992.19 2888.94 1991.85 2889.62 1991.36 2890.3 1990.88 2890.88 1990.21 2891.34 1989.35 2891.81 1988.49 2892.24 1987.44 2892.63 1986.21 2893.02 1984.97 2893.62 1982.58 2894.4 1979.04L2903.53 1937.68C2904.32 1934.1 2904.72 1931.27 2904.72 1929.19 2904.72 1927.44 2904.3 1926.22 2903.48 1925.54 2902.66 1924.86 2901.31 1924.46 2899.45 1924.36Z" fill-rule="evenodd"/><text fill="#000000" fill-opacity="0" font-family="Arial,Arial_MSFontService,sans-serif" font-size="73.3154" x="2885.97" y="1985.88">π‘ƒ</text><path d="M2961.56 1921.73 3017.63 1921.73 3013.44 1940.63 3008.28 1940.63C3008.28 1937.16 3008.19 1934.55 3008.02 1932.82 3007.84 1931.08 3007.5 1929.76 3006.99 1928.84 3006.49 1927.93 3005.88 1927.3 3005.14 1926.96 3004.41 1926.62 3003.11 1926.45 3001.25 1926.45L2993.3 1926.45 2981.64 1979.41C2981.32 1980.81 2981.1 1981.92 2980.97 1982.74 2980.85 1983.56 2980.74 1984.43 2980.65 1985.35 2980.56 1986.26 2980.52 1987.07 2980.52 1987.79 2980.52 1988.9 2980.69 1989.77 2981.05 1990.4 2981.41 1991.02 2981.95 1991.48 2982.66 1991.76 2983.38 1992.05 2984.62 1992.27 2986.37 1992.41L2985.78 1995.04 2963.17 1995.04 2963.76 1992.41C2965.19 1992.19 2966.25 1991.91 2966.93 1991.55 2967.61 1991.19 2968.21 1990.64 2968.73 1989.88 2969.25 1989.13 2969.76 1987.95 2970.28 1986.34 2970.8 1984.73 2971.42 1982.29 2972.14 1979.04L2983.63 1926.45 2976.81 1926.45C2974.59 1926.45 2972.82 1926.77 2971.49 1927.42 2970.17 1928.06 2968.84 1929.26 2967.52 1931.02 2966.19 1932.77 2964.58 1935.71 2962.68 1939.83L2957.53 1939.83Z" fill-rule="evenodd"/><text fill="#000000" fill-opacity="0" font-family="Arial,Arial_MSFontService,sans-serif" font-size="73.3154" x="2957.53" y="1985.88">π‘‡</text><path d="M3029.2 1976.6C3026.7 1980.22 3024.21 1983.81 3021.72 1987.38 3019.24 1990.95 3016.73 1994.53 3014.2 1998.12L3014.2 1998.59 3029.2 1998.59 3029.2 1990.74C3029.2 1989.86 3029.22 1988.76 3029.24 1987.46 3029.27 1986.16 3029.3 1984.84 3029.34 1983.5 3029.38 1982.15 3029.42 1980.88 3029.48 1979.67 3029.53 1978.46 3029.58 1977.43 3029.63 1976.6ZM3030.34 1967.46 3036.55 1967.46 3036.55 1998.59 3037.25 1998.59C3038.32 1998.59 3039.18 1998.54 3039.85 1998.44 3040.51 1998.33 3041.05 1998.12 3041.45 1997.79 3041.85 1997.47 3042.19 1997.01 3042.46 1996.43 3042.74 1995.84 3043.03 1995.08 3043.34 1994.14L3046.66 1994.14C3046.59 1995.57 3046.5 1996.99 3046.41 1998.4 3046.32 1999.8 3046.23 2001.24 3046.16 2002.69L3036.55 2002.69 3036.55 2007.81C3036.55 2009.32 3036.58 2010.49 3036.64 2011.33 3036.71 2012.16 3036.9 2012.81 3037.23 2013.28 3037.56 2013.75 3038.04 2014.1 3038.68 2014.34 3039.31 2014.57 3040.21 2014.84 3041.35 2015.16L3041.35 2017.5 3024.48 2017.5 3024.48 2015.16C3025.26 2014.95 3025.92 2014.76 3026.47 2014.59 3027.02 2014.42 3027.47 2014.22 3027.84 2014 3028.2 2013.78 3028.47 2013.52 3028.64 2013.22 3028.81 2012.92 3028.94 2012.54 3029.03 2012.09 3029.12 2011.63 3029.17 2011.06 3029.18 2010.37 3029.2 2009.68 3029.2 2008.83 3029.2 2007.81L3029.2 2002.69 3007.21 2002.69 3007.21 1999.61C3011.09 1994.22 3014.94 1988.86 3018.77 1983.53 3022.6 1978.21 3026.46 1972.85 3030.34 1967.46Z" fill-rule="evenodd"/><text fill="#000000" fill-opacity="0" font-family="Arial,Arial_MSFontService,sans-serif" font-size="50.0391" x="3007.21" y="2011.24">4</text><path d="M2831.69 1959.09 2739.42 1959.09 2739.42 1949.92 2831.69 1949.93ZM2744 1968.25 2716.5 1954.5 2744 1940.75Z"/><path d="M0-4.58333 352.171-4.58333 352.171 769.894 347.587 765.31 610.08 765.31 605.497 769.894 605.497 707.036 614.664 707.036 614.664 774.477 343.004 774.477 343.004 0 347.587 4.58333 0 4.58333ZM596.33 711.619 610.08 684.119 623.83 711.619Z" transform="matrix(1 0 0 -1 2062.5 2188.62)"/><path d="M0-4.58333 352.171-4.58333 352.171 769.894 347.587 765.31 610.08 765.31 605.497 769.894 605.497 707.036 614.664 707.036 614.664 774.477 343.004 774.477 343.004 0 347.587 4.58333 0 4.58333ZM596.33 711.619 610.08 684.119 623.83 711.619Z" transform="matrix(1 0 0 -1 586.5 2188.62)"/><path d="M0-4.58333 352.171-4.58333 352.171 769.894 347.587 765.31 610.08 765.31 605.497 769.894 605.497 707.036 614.664 707.036 614.664 774.477 343.004 774.477 343.004 0 347.587 4.58333 0 4.58333ZM596.33 711.619 610.08 684.119 623.83 711.619Z" transform="matrix(1 0 0 -1 1315.5 2188.62)"/></g></svg>