<svg width="2728" height="839" xmlns="http://www.w3.org/2000/svg" xmlns:xlink="http://www.w3.org/1999/xlink" xml:space="preserve" overflow="hidden"><g transform="translate(-263 -1343)"><path d="M2207.5 1722.5 2427.5 1872.61 2427.5 2022.39 2207.5 2172.5Z" stroke="#000000" stroke-width="9.16667" fill="#FFFFFF" fill-rule="evenodd"/><path d="M2260.01 1919.49 2277.98 1919.49 2277.48 1921.7C2276.35 1921.93 2275.53 1922.2 2275.04 1922.5 2274.54 1922.8 2274.1 1923.25 2273.71 1923.85 2273.32 1924.45 2272.92 1925.39 2272.5 1926.66 2272.08 1927.93 2271.55 1930.01 2270.93 1932.88L2267.87 1946.63 2291.99 1946.63 2295.05 1932.84C2295.32 1931.61 2295.55 1930.3 2295.74 1928.91 2295.94 1927.51 2296.04 1926.41 2296.04 1925.6 2296.04 1924.2 2295.68 1923.21 2294.98 1922.66 2294.28 1922.11 2293.16 1921.78 2291.63 1921.7L2292.13 1919.49 2310.1 1919.49 2309.6 1921.7C2308.47 1921.93 2307.65 1922.2 2307.15 1922.5 2306.66 1922.8 2306.22 1923.25 2305.83 1923.85 2305.44 1924.45 2305.04 1925.39 2304.62 1926.66 2304.2 1927.93 2303.67 1930.01 2303.04 1932.88L2295.36 1967.74C2294.97 1969.51 2294.72 1970.91 2294.6 1971.94 2294.48 1972.97 2294.42 1973.91 2294.42 1974.75 2294.42 1976.1 2294.76 1977.05 2295.43 1977.6 2296.1 1978.15 2297.23 1978.49 2298.82 1978.61L2298.33 1980.81 2280.36 1980.81 2280.85 1978.61C2281.99 1978.43 2282.84 1978.14 2283.41 1977.74 2283.98 1977.33 2284.46 1976.77 2284.85 1976.05 2285.24 1975.33 2285.6 1974.46 2285.93 1973.42 2286.26 1972.39 2286.75 1970.39 2287.41 1967.43L2291.1 1950.76 2266.97 1950.76 2263.24 1967.74C2262.91 1969.24 2262.67 1970.47 2262.52 1971.45 2262.38 1972.42 2262.3 1973.52 2262.3 1974.75 2262.3 1976.04 2262.6 1976.96 2263.2 1977.53 2263.8 1978.1 2264.97 1978.46 2266.7 1978.61L2266.21 1980.81 2248.24 1980.81 2248.73 1978.61C2249.87 1978.43 2250.73 1978.14 2251.29 1977.74 2251.86 1977.33 2252.34 1976.77 2252.73 1976.05 2253.12 1975.33 2253.48 1974.46 2253.81 1973.42 2254.14 1972.39 2254.63 1970.39 2255.29 1967.43L2262.93 1932.84C2263.2 1931.61 2263.43 1930.3 2263.63 1928.91 2263.82 1927.51 2263.92 1926.41 2263.92 1925.6 2263.92 1924.2 2263.57 1923.21 2262.86 1922.66 2262.16 1922.11 2261.04 1921.78 2259.52 1921.7Z" fill-rule="evenodd"/><text fill="#000000" fill-opacity="0" font-family="Arial,Arial_MSFontService,sans-serif" font-size="61.3184" x="2248.24" y="1973.15">𝐻</text><path d="M2097.5 1942.92 2184.58 1942.92 2184.58 1952.08 2097.5 1952.08ZM2180 1933.75 2207.5 1947.5 2180 1961.25Z"/><rect x="2537.5" y="1847.5" width="449" height="199" stroke="#000000" stroke-width="9.16667" fill="#FFFFFF"/><path d="M2727.25 1919.49 2774.15 1919.49 2770.64 1935.31 2766.33 1935.31C2766.33 1932.4 2766.25 1930.22 2766.1 1928.77 2765.95 1927.32 2765.67 1926.21 2765.25 1925.45 2764.83 1924.68 2764.31 1924.16 2763.7 1923.87 2763.09 1923.59 2762 1923.45 2760.44 1923.45L2753.8 1923.45 2744.05 1967.74C2743.78 1968.91 2743.59 1969.84 2743.49 1970.52 2743.38 1971.21 2743.29 1971.94 2743.22 1972.7 2743.14 1973.47 2743.1 1974.15 2743.1 1974.75 2743.1 1975.68 2743.25 1976.4 2743.55 1976.93 2743.85 1977.45 2744.3 1977.83 2744.9 1978.07 2745.5 1978.31 2746.53 1978.49 2748 1978.61L2747.51 1980.81 2728.59 1980.81 2729.09 1978.61C2730.29 1978.43 2731.17 1978.19 2731.74 1977.89 2732.31 1977.59 2732.81 1977.13 2733.24 1976.5 2733.68 1975.87 2734.11 1974.88 2734.55 1973.53 2734.98 1972.19 2735.5 1970.15 2736.1 1967.43L2745.71 1923.45 2740 1923.45C2738.15 1923.45 2736.67 1923.72 2735.56 1924.26 2734.45 1924.79 2733.34 1925.8 2732.23 1927.27 2731.12 1928.73 2729.78 1931.19 2728.19 1934.63L2723.88 1934.63Z" fill-rule="evenodd"/><text fill="#000000" fill-opacity="0" font-family="Arial,Arial_MSFontService,sans-serif" font-size="61.3184" x="2723.88" y="1973.15">𝑇</text><path d="M1.50373e-05-4.58333 87.0823-4.58305 87.0823 4.58362-1.50373e-05 4.58333ZM82.499-13.7497 109.999 0.000360892 82.4989 13.7503Z" transform="matrix(1 0 0 -1 2427.5 1947.5)"/><path d="M1540.5 1352.5 1760.5 1502.61 1760.5 1652.39 1540.5 1802.5Z" stroke="#000000" stroke-width="9.16667" fill="#FFFFFF" fill-rule="evenodd"/><path d="M1593.05 1549.72 1611.02 1549.72 1610.52 1551.92C1609.38 1552.16 1608.57 1552.43 1608.07 1552.73 1607.58 1553.03 1607.14 1553.48 1606.75 1554.08 1606.36 1554.68 1605.95 1555.61 1605.54 1556.88 1605.12 1558.16 1604.59 1560.23 1603.96 1563.11L1600.91 1576.85 1625.03 1576.85 1628.09 1563.06C1628.36 1561.83 1628.59 1560.52 1628.78 1559.13 1628.98 1557.74 1629.07 1556.64 1629.07 1555.83 1629.07 1554.42 1628.72 1553.44 1628.02 1552.89 1627.31 1552.33 1626.2 1552.01 1624.67 1551.92L1625.17 1549.72 1643.13 1549.72 1642.64 1551.92C1641.5 1552.16 1640.69 1552.43 1640.19 1552.73 1639.7 1553.03 1639.26 1553.48 1638.87 1554.08 1638.48 1554.68 1638.07 1555.61 1637.65 1556.88 1637.23 1558.16 1636.71 1560.23 1636.08 1563.11L1628.4 1597.96C1628.01 1599.73 1627.76 1601.13 1627.64 1602.17 1627.52 1603.2 1627.46 1604.13 1627.46 1604.97 1627.46 1606.32 1627.79 1607.27 1628.47 1607.83 1629.14 1608.38 1630.27 1608.72 1631.86 1608.84L1631.37 1611.04 1613.4 1611.04 1613.89 1608.84C1615.03 1608.66 1615.88 1608.36 1616.45 1607.96 1617.02 1607.56 1617.5 1606.99 1617.89 1606.28 1618.28 1605.56 1618.64 1604.68 1618.97 1603.65 1619.3 1602.61 1619.79 1600.62 1620.45 1597.65L1624.13 1580.98 1600.01 1580.98 1596.28 1597.96C1595.95 1599.46 1595.71 1600.7 1595.56 1601.67 1595.41 1602.64 1595.34 1603.74 1595.34 1604.97 1595.34 1606.26 1595.64 1607.19 1596.24 1607.76 1596.84 1608.33 1598 1608.69 1599.74 1608.84L1599.25 1611.04 1581.28 1611.04 1581.77 1608.84C1582.91 1608.66 1583.76 1608.36 1584.33 1607.96 1584.9 1607.56 1585.38 1606.99 1585.77 1606.28 1586.16 1605.56 1586.52 1604.68 1586.85 1603.65 1587.18 1602.61 1587.67 1600.62 1588.33 1597.65L1595.97 1563.06C1596.24 1561.83 1596.47 1560.52 1596.66 1559.13 1596.86 1557.74 1596.96 1556.64 1596.96 1555.83 1596.96 1554.42 1596.6 1553.44 1595.9 1552.89 1595.2 1552.33 1594.08 1552.01 1592.55 1551.92Z" fill-rule="evenodd"/><text fill="#000000" fill-opacity="0" font-family="Arial,Arial_MSFontService,sans-serif" font-size="61.3184" x="1581.28" y="1603.37">𝐻</text><rect x="749.5" y="1478.5" width="652" height="198" stroke="#000000" stroke-width="9.16667" fill="#FFFFFF"/><path d="M1036.5 1549.72 1052.54 1549.72 1057.66 1593.29 1083.85 1549.72 1098 1549.72 1097.51 1551.92C1096.37 1552.16 1095.55 1552.43 1095.06 1552.73 1094.56 1553.03 1094.12 1553.48 1093.71 1554.08 1093.31 1554.67 1092.9 1555.61 1092.5 1556.88 1092.09 1558.16 1091.58 1560.23 1090.95 1563.1L1083.27 1597.96C1082.88 1599.73 1082.62 1601.13 1082.5 1602.16 1082.38 1603.2 1082.32 1604.13 1082.32 1604.97 1082.32 1606.32 1082.66 1607.27 1083.33 1607.82 1084.01 1608.38 1085.14 1608.72 1086.73 1608.84L1086.23 1611.04 1068.26 1611.04 1068.76 1608.84C1069.89 1608.66 1070.75 1608.36 1071.32 1607.96 1071.89 1607.56 1072.37 1606.99 1072.75 1606.27 1073.14 1605.56 1073.5 1604.68 1073.83 1603.65 1074.16 1602.61 1074.66 1600.61 1075.32 1597.65L1081.29 1570.56C1082.13 1566.82 1083.09 1563.09 1084.16 1559.38L1083.54 1559.38C1082.61 1561.14 1080.51 1564.74 1077.25 1570.16L1056.81 1603.89 1051.91 1603.89 1048.18 1575.01C1047.64 1570.94 1047.04 1565.46 1046.39 1558.57L1045.49 1558.57C1044.47 1565.28 1043.33 1571.49 1042.07 1577.21L1037.49 1597.96C1036.86 1600.81 1036.55 1603.15 1036.55 1604.97 1036.55 1606.32 1036.88 1607.27 1037.56 1607.82 1038.23 1608.38 1039.36 1608.72 1040.95 1608.84L1040.46 1611.04 1024.73 1611.04 1025.23 1608.84C1026.37 1608.66 1027.22 1608.36 1027.79 1607.96 1028.36 1607.56 1028.84 1606.99 1029.23 1606.27 1029.61 1605.56 1029.97 1604.68 1030.3 1603.65 1030.63 1602.61 1031.13 1600.61 1031.79 1597.65L1039.42 1563.06C1039.72 1561.77 1039.96 1560.54 1040.14 1559.38 1040.32 1558.21 1040.41 1557.03 1040.41 1555.83 1040.41 1554.42 1040.06 1553.44 1039.36 1552.89 1038.65 1552.33 1037.54 1552.01 1036.01 1551.92Z" fill-rule="evenodd"/><text fill="#000000" fill-opacity="0" font-family="Arial,Arial_MSFontService,sans-serif" font-size="61.3184" x="1024.73" y="1603.37">𝑀</text><path d="M1401.5 1572.92 1518.27 1572.92 1518.27 1582.08 1401.5 1582.08ZM1513.68 1563.75 1541.18 1577.5 1513.68 1591.25Z"/><rect x="267.5" y="1478.5" width="482" height="198" stroke="#000000" stroke-width="9.16667" fill="#FFFFFF"/><path d="M300.086 1549.72 318.054 1549.72 317.56 1551.92C316.422 1552.16 315.606 1552.43 315.112 1552.73 314.618 1553.03 314.176 1553.48 313.787 1554.08 313.397 1554.67 312.993 1555.61 312.574 1556.88 312.155 1558.16 311.63 1560.23 311.002 1563.1L307.812 1577.43 309.295 1577.43C310.552 1577.43 311.698 1577.23 312.731 1576.81 313.764 1576.39 314.97 1575.62 316.347 1574.52 317.725 1573.41 319.919 1571.37 322.928 1568.41 325.938 1565.44 328.079 1563.19 329.352 1561.64 330.625 1560.1 331.553 1558.77 332.137 1557.65 332.721 1556.52 333.013 1555.5 333.013 1554.57 333.013 1553.82 332.714 1553.21 332.115 1552.75 331.516 1552.29 330.662 1552.01 329.554 1551.92L330.048 1549.72 349.32 1549.72 348.826 1551.92C347.628 1552.1 346.273 1552.72 344.76 1553.78 343.248 1554.85 340.935 1556.92 337.82 1560.01L320.39 1576.99 329.959 1599.99C330.947 1602.35 331.763 1604.06 332.407 1605.11 333.051 1606.16 333.822 1606.99 334.72 1607.6 335.619 1608.21 336.727 1608.63 338.045 1608.84L337.55 1611.04 320.211 1611.04 320.705 1608.84C322.322 1608.69 323.13 1607.97 323.13 1606.68 323.13 1605.87 322.966 1604.95 322.636 1603.92 322.307 1602.88 321.918 1601.81 321.468 1600.7L315.629 1586.42C314.94 1584.71 314.341 1583.51 313.832 1582.83 313.323 1582.14 312.783 1581.66 312.214 1581.39 311.645 1581.12 310.762 1580.98 309.564 1580.98L307.048 1580.98 303.32 1597.96C302.931 1599.76 302.676 1601.18 302.556 1602.21 302.436 1603.24 302.377 1604.16 302.377 1604.97 302.377 1606.32 302.714 1607.27 303.387 1607.82 304.061 1608.38 305.192 1608.72 306.779 1608.84L306.285 1611.04 288.316 1611.04 288.81 1608.84C289.948 1608.66 290.802 1608.36 291.371 1607.96 291.94 1607.56 292.419 1606.99 292.808 1606.27 293.198 1605.56 293.557 1604.68 293.886 1603.65 294.216 1602.61 294.71 1600.61 295.369 1597.65L303.005 1563.06C303.664 1560.07 303.994 1557.65 303.994 1555.83 303.994 1554.42 303.642 1553.44 302.938 1552.89 302.234 1552.33 301.119 1552.01 299.591 1551.92Z" fill-rule="evenodd"/><text fill="#000000" fill-opacity="0" font-family="Arial,Arial_MSFontService,sans-serif" font-size="61.3184" x="288.316" y="1603.37">𝐾</text><path d="M361.989 1590.54C360.462 1590.54 359.186 1590.94 358.161 1591.74 357.136 1592.53 356.324 1593.7 355.724 1595.24 355.124 1596.78 354.699 1598.65 354.448 1600.87 354.197 1603.08 354.072 1605.59 354.072 1608.41 354.072 1611.66 354.23 1614.46 354.546 1616.83 354.862 1619.2 355.353 1621.14 356.018 1622.67 356.683 1624.2 357.518 1625.32 358.521 1626.04 359.524 1626.76 360.724 1627.12 362.12 1627.12 363.428 1627.12 364.573 1626.78 365.555 1626.11 366.536 1625.43 367.348 1624.38 367.992 1622.95 368.635 1621.52 369.121 1619.71 369.448 1617.52 369.775 1615.33 369.938 1612.74 369.938 1609.75 369.938 1606.39 369.758 1603.5 369.399 1601.08 369.039 1598.66 368.532 1596.67 367.877 1595.11 367.223 1593.55 366.4 1592.4 365.407 1591.66 364.415 1590.91 363.275 1590.54 361.989 1590.54ZM362.12 1587.37C364.715 1587.37 366.934 1587.86 368.777 1588.83 370.62 1589.8 372.125 1591.18 373.292 1592.98 374.459 1594.78 375.315 1596.98 375.86 1599.57 376.405 1602.17 376.678 1605.1 376.678 1608.37 376.678 1615.64 375.391 1621.13 372.817 1624.85 370.244 1628.56 366.514 1630.42 361.629 1630.42 356.787 1630.42 353.188 1628.67 350.833 1625.16 348.477 1621.65 347.3 1616.32 347.3 1609.19 347.3 1605.46 347.665 1602.23 348.396 1599.51 349.126 1596.78 350.151 1594.52 351.471 1592.72 352.79 1590.92 354.355 1589.58 356.165 1588.7 357.976 1587.81 359.96 1587.37 362.12 1587.37Z" fill-rule="evenodd"/><text fill="#000000" fill-opacity="0" font-family="Arial,Arial_MSFontService,sans-serif" font-size="43.0527" x="347.3" y="1625.04">0</text><path d="M454.195 1587.41 454.195 1617.55C459.196 1617.16 463.778 1615.77 467.941 1613.37 472.882 1610.56 476.716 1606.62 479.441 1601.56 481.747 1597.22 483.08 1592.5 483.439 1587.41ZM419.56 1587.41C419.89 1592.56 421.237 1597.29 423.603 1601.6 426.358 1606.63 430.222 1610.56 435.193 1613.37 439.326 1615.74 443.743 1617.12 448.445 1617.51L448.445 1587.41ZM454.195 1552.01 454.195 1582.02 483.439 1582.02C483.08 1576.75 481.717 1571.95 479.351 1567.64 476.566 1562.58 472.703 1558.69 467.761 1555.96 463.629 1553.69 459.106 1552.37 454.195 1552.01ZM448.445 1552.01C443.773 1552.4 439.386 1553.73 435.283 1556.01 430.341 1558.73 426.463 1562.63 423.648 1567.69 421.252 1572.03 419.89 1576.81 419.56 1582.02L448.445 1582.02ZM451.455 1546.12C458.552 1546.12 465.066 1547.75 470.996 1551 476.925 1554.25 481.575 1558.83 484.944 1564.74 488.313 1570.66 489.998 1577.33 489.998 1584.76 489.998 1592.03 488.358 1598.62 485.079 1604.5 481.799 1610.39 477.187 1615 471.243 1618.36 465.298 1621.71 458.702 1623.39 451.455 1623.39 444.297 1623.39 437.746 1621.74 431.801 1618.43 425.857 1615.12 421.237 1610.5 417.943 1604.57 414.649 1598.64 413.002 1592.03 413.002 1584.76 413.002 1577.42 414.686 1570.79 418.055 1564.86 421.424 1558.93 426.059 1554.32 431.959 1551.04 437.858 1547.76 444.357 1546.12 451.455 1546.12Z" fill-rule="evenodd"/><text fill="#000000" fill-opacity="0" font-family="Arial,Arial_MSFontService,sans-serif" font-size="77.2656" x="413.002" y="1613.73">⊕</text><path d="M579.253 1572.63C577.726 1572.63 576.221 1573.14 574.739 1574.18 573.256 1575.21 571.632 1576.87 569.865 1579.14 568.098 1581.42 566.72 1583.66 565.732 1585.88 564.744 1588.1 563.965 1590.64 563.396 1593.52L563.037 1595.4C562.737 1596.99 562.55 1598.2 562.475 1599.04 562.4 1599.88 562.363 1600.7 562.363 1601.51 562.363 1603.85 562.864 1605.55 563.868 1606.61 564.871 1607.67 566.6 1608.21 569.056 1608.21 570.583 1608.21 571.991 1607.91 573.279 1607.31 574.567 1606.71 575.787 1605.84 576.94 1604.7 578.093 1603.56 579.134 1602.19 580.062 1600.57 580.99 1598.95 581.821 1597.07 582.555 1594.93 583.289 1592.79 583.843 1590.59 584.217 1588.33 584.592 1586.07 584.779 1583.95 584.779 1581.97 584.779 1578.83 584.337 1576.48 583.454 1574.94 582.57 1573.4 581.17 1572.63 579.253 1572.63ZM676.896 1570.88C673.841 1570.88 671.101 1572.11 668.675 1574.58 666.25 1577.05 664.34 1580.38 662.948 1584.58 661.555 1588.77 660.859 1592.95 660.859 1597.11 660.859 1600.23 661.286 1602.55 662.139 1604.1 662.993 1605.64 664.423 1606.41 666.429 1606.41 667.358 1606.41 668.301 1606.21 669.259 1605.8 670.218 1605.4 671.213 1604.75 672.247 1603.85 673.28 1602.95 674.298 1601.86 675.301 1600.57 676.305 1599.28 677.225 1597.99 678.064 1596.68 678.902 1595.38 679.681 1593.84 680.4 1592.06 681.119 1590.28 681.733 1588.13 682.242 1585.61L682.646 1583.68C683.095 1581.52 683.32 1579.49 683.32 1577.57 683.32 1575.23 682.826 1573.53 681.837 1572.47 680.849 1571.41 679.202 1570.88 676.896 1570.88ZM625.986 1570.88C622.901 1570.88 620.131 1572.12 617.675 1574.6 615.22 1577.09 613.303 1580.42 611.925 1584.6 610.548 1588.78 609.859 1592.95 609.859 1597.11 609.859 1600.23 610.286 1602.55 611.139 1604.1 611.993 1605.64 613.423 1606.41 615.429 1606.41 617.406 1606.41 619.345 1605.56 621.247 1603.85 623.148 1602.14 625.11 1599.71 627.131 1596.55 629.153 1593.39 630.583 1589.74 631.421 1585.61L631.826 1583.68C632.095 1582.45 632.275 1581.39 632.365 1580.49 632.455 1579.59 632.5 1578.62 632.5 1577.57 632.5 1575.26 632.005 1573.57 631.017 1572.49 630.029 1571.42 628.352 1570.88 625.986 1570.88ZM535.833 1567.69 538.484 1567.69 532.015 1596.53C531.356 1599.46 531.027 1601.68 531.027 1603.18 531.027 1604.37 531.221 1605.24 531.611 1605.78 532 1606.32 532.614 1606.59 533.453 1606.59 534.351 1606.59 535.309 1606.22 536.328 1605.49 537.346 1604.75 538.783 1603.35 540.64 1601.29L543.201 1603.8C540.266 1606.89 537.885 1608.99 536.058 1610.09 534.231 1611.2 532.18 1611.76 529.904 1611.76 527.957 1611.76 526.4 1611.04 525.232 1609.62 524.064 1608.2 523.48 1606.38 523.48 1604.16 523.48 1601.89 523.899 1598.98 524.738 1595.45L528.107 1580.76C528.796 1577.76 529.14 1575.52 529.14 1574.02 529.14 1572.67 528.818 1571.76 528.174 1571.28 527.53 1570.8 526.265 1570.53 524.378 1570.47L524.873 1568.09ZM625.087 1567.33C627.034 1567.33 628.853 1567.54 630.545 1567.98 632.237 1568.41 633.982 1569.18 635.779 1570.29L639.912 1567.33 642.787 1568.05 636.183 1596.53C635.524 1599.37 635.195 1601.59 635.195 1603.18 635.195 1604.37 635.389 1605.24 635.779 1605.78 636.168 1606.32 636.782 1606.59 637.621 1606.59 638.519 1606.59 639.477 1606.22 640.496 1605.49 641.514 1604.75 642.951 1603.35 644.808 1601.29L647.369 1603.8C644.673 1606.68 642.375 1608.72 640.473 1609.94 638.571 1611.15 636.513 1611.76 634.296 1611.76 632.44 1611.76 630.957 1611.14 629.849 1609.91 628.741 1608.69 628.187 1607.05 628.187 1605.02 628.187 1603.37 628.531 1601.62 629.22 1599.76L628.636 1599.58C625.761 1603.77 623.036 1606.84 620.46 1608.79 617.885 1610.74 615.16 1611.71 612.285 1611.71 608.99 1611.71 606.437 1610.47 604.625 1607.98 602.814 1605.5 601.908 1602.01 601.908 1597.52 601.908 1592.36 602.918 1587.42 604.94 1582.67 606.961 1577.92 609.739 1574.18 613.273 1571.44 616.807 1568.7 620.745 1567.33 625.087 1567.33ZM560.341 1567.33C562.198 1567.33 563.673 1567.94 564.766 1569.17 565.859 1570.4 566.406 1572.03 566.406 1574.07 566.406 1575.74 566.061 1577.51 565.373 1579.37L565.912 1579.55C571.452 1571.43 576.962 1567.37 582.443 1567.37 585.707 1567.37 588.245 1568.62 590.057 1571.1 591.869 1573.59 592.775 1577.09 592.775 1581.61 592.775 1586.55 591.779 1591.41 589.788 1596.19 587.796 1600.97 585.033 1604.75 581.5 1607.56 577.966 1610.36 574.013 1611.76 569.64 1611.76 565.657 1611.76 562.348 1610.89 559.712 1609.15L557.646 1618.99C557.197 1621.11 556.972 1622.87 556.972 1624.24 556.972 1625.56 557.309 1626.5 557.983 1627.05 558.657 1627.61 559.967 1627.97 561.914 1628.15L561.554 1630.35 547.673 1630.35 558.5 1582.69C559.128 1579.94 559.443 1577.67 559.443 1575.91 559.443 1574.71 559.248 1573.84 558.859 1573.3 558.47 1572.76 557.856 1572.49 557.017 1572.49 556.089 1572.49 555.108 1572.88 554.075 1573.64 553.042 1574.4 551.626 1575.79 549.83 1577.79L547.269 1575.28C549.964 1572.46 552.248 1570.43 554.12 1569.19 555.991 1567.95 558.065 1567.33 560.341 1567.33ZM534.621 1550.48 542.572 1550.48 540.505 1559.2 532.554 1559.2ZM695.718 1546.8 698.369 1546.8 687.183 1596.53C686.524 1599.46 686.195 1601.68 686.195 1603.18 686.195 1604.37 686.389 1605.24 686.779 1605.78 687.168 1606.32 687.782 1606.59 688.621 1606.59 689.519 1606.59 690.477 1606.22 691.496 1605.49 692.514 1604.75 693.951 1603.35 695.808 1601.29L698.369 1603.8C695.613 1606.71 693.292 1608.76 691.406 1609.96 689.519 1611.16 687.483 1611.76 685.296 1611.76 683.44 1611.76 681.957 1611.14 680.849 1609.91 679.741 1608.69 679.187 1607.05 679.187 1605.02 679.187 1603.37 679.531 1601.62 680.22 1599.76L679.636 1599.58C676.761 1603.77 674.036 1606.84 671.46 1608.79 668.885 1610.74 666.16 1611.71 663.285 1611.71 659.99 1611.71 657.437 1610.47 655.625 1607.98 653.814 1605.5 652.908 1602.01 652.908 1597.52 652.908 1592.36 653.918 1587.42 655.94 1582.67 657.961 1577.92 660.739 1574.18 664.273 1571.44 667.807 1568.7 671.745 1567.33 676.087 1567.33 677.914 1567.33 679.599 1567.51 681.141 1567.89 682.683 1568.26 684.263 1568.91 685.88 1569.84L688.216 1559.47C688.456 1558.48 688.666 1557.38 688.845 1556.19 689.025 1554.99 689.115 1553.94 689.115 1553.04 689.115 1552.14 688.95 1551.46 688.621 1551 688.291 1550.53 687.819 1550.2 687.206 1549.99 686.592 1549.78 685.491 1549.63 683.904 1549.54L684.443 1547.2Z" fill-rule="evenodd"/><text fill="#000000" fill-opacity="0" font-family="Arial,Arial_MSFontService,sans-serif" font-size="83.5547" x="523.48" y="1619.91">𝑖𝑝𝑎𝑑</text><rect x="1167.5" y="1847.5" width="482" height="199" stroke="#000000" stroke-width="9.16667" fill="#FFFFFF"/><path d="M1190.58 1919.49 1208.54 1919.49 1208.05 1921.7C1206.91 1921.93 1206.1 1922.2 1205.6 1922.5 1205.11 1922.8 1204.67 1923.25 1204.28 1923.85 1203.89 1924.45 1203.48 1925.39 1203.06 1926.66 1202.64 1927.93 1202.12 1930.01 1201.49 1932.88L1198.3 1947.21 1199.78 1947.21C1201.04 1947.21 1202.19 1947 1203.22 1946.58 1204.25 1946.16 1205.46 1945.4 1206.84 1944.29 1208.22 1943.18 1210.41 1941.15 1213.42 1938.18 1216.43 1935.22 1218.57 1932.96 1219.84 1931.42 1221.12 1929.88 1222.04 1928.55 1222.63 1927.42 1223.21 1926.3 1223.5 1925.27 1223.5 1924.35 1223.5 1923.6 1223.2 1922.99 1222.61 1922.53 1222.01 1922.06 1221.15 1921.78 1220.04 1921.7L1220.54 1919.49 1239.81 1919.49 1239.32 1921.7C1238.12 1921.87 1236.76 1922.5 1235.25 1923.56 1233.74 1924.62 1231.42 1926.7 1228.31 1929.78L1210.88 1946.76 1220.45 1969.76C1221.44 1972.13 1222.25 1973.83 1222.9 1974.88 1223.54 1975.93 1224.31 1976.76 1225.21 1977.38 1226.11 1977.99 1227.22 1978.4 1228.53 1978.61L1228.04 1980.81 1210.7 1980.81 1211.2 1978.61C1212.81 1978.46 1213.62 1977.74 1213.62 1976.45 1213.62 1975.65 1213.46 1974.73 1213.13 1973.69 1212.8 1972.66 1212.41 1971.59 1211.96 1970.48L1206.12 1956.2C1205.43 1954.49 1204.83 1953.29 1204.32 1952.6 1203.81 1951.91 1203.27 1951.43 1202.7 1951.16 1202.14 1950.89 1201.25 1950.76 1200.05 1950.76L1197.54 1950.76 1193.81 1967.74C1193.42 1969.54 1193.17 1970.95 1193.05 1971.99 1192.93 1973.02 1192.87 1973.94 1192.87 1974.75 1192.87 1976.1 1193.2 1977.05 1193.88 1977.6 1194.55 1978.15 1195.68 1978.49 1197.27 1978.61L1196.78 1980.81 1178.81 1980.81 1179.3 1978.61C1180.44 1978.43 1181.29 1978.14 1181.86 1977.74 1182.43 1977.33 1182.91 1976.77 1183.3 1976.05 1183.69 1975.33 1184.05 1974.46 1184.38 1973.42 1184.71 1972.39 1185.2 1970.39 1185.86 1967.43L1193.5 1932.84C1194.15 1929.84 1194.48 1927.43 1194.48 1925.6 1194.48 1924.2 1194.13 1923.21 1193.43 1922.66 1192.72 1922.11 1191.61 1921.78 1190.08 1921.7Z" fill-rule="evenodd"/><text fill="#000000" fill-opacity="0" font-family="Arial,Arial_MSFontService,sans-serif" font-size="61.3184" x="1178.81" y="1973.15">𝐾</text><path d="M1252.48 1960.32C1250.95 1960.32 1249.68 1960.72 1248.65 1961.51 1247.63 1962.31 1246.81 1963.48 1246.21 1965.01 1245.61 1966.55 1245.19 1968.43 1244.94 1970.64 1244.69 1972.86 1244.56 1975.37 1244.56 1978.18 1244.56 1981.43 1244.72 1984.24 1245.04 1986.61 1245.35 1988.97 1245.84 1990.92 1246.51 1992.45 1247.17 1993.97 1248.01 1995.1 1249.01 1995.82 1250.01 1996.54 1251.21 1996.9 1252.61 1996.9 1253.92 1996.9 1255.06 1996.56 1256.05 1995.88 1257.03 1995.2 1257.84 1994.15 1258.48 1992.72 1259.13 1991.3 1259.61 1989.49 1259.94 1987.29 1260.27 1985.1 1260.43 1982.51 1260.43 1979.52 1260.43 1976.16 1260.25 1973.27 1259.89 1970.85 1259.53 1968.43 1259.02 1966.44 1258.37 1964.88 1257.71 1963.32 1256.89 1962.17 1255.9 1961.43 1254.91 1960.69 1253.77 1960.32 1252.48 1960.32ZM1252.61 1957.15C1255.21 1957.15 1257.42 1957.63 1259.27 1958.6 1261.11 1959.57 1262.62 1960.96 1263.78 1962.76 1264.95 1964.56 1265.8 1966.75 1266.35 1969.35 1266.9 1971.94 1267.17 1974.88 1267.17 1978.15 1267.17 1985.41 1265.88 1990.9 1263.31 1994.62 1260.73 1998.34 1257 2000.2 1252.12 2000.2 1247.28 2000.2 1243.68 1998.44 1241.32 1994.93 1238.97 1991.42 1237.79 1986.1 1237.79 1978.97 1237.79 1975.24 1238.16 1972.01 1238.89 1969.28 1239.62 1966.56 1240.64 1964.29 1241.96 1962.5 1243.28 1960.7 1244.85 1959.35 1246.66 1958.47 1248.47 1957.59 1250.45 1957.15 1252.61 1957.15Z" fill-rule="evenodd"/><text fill="#000000" fill-opacity="0" font-family="Arial,Arial_MSFontService,sans-serif" font-size="43.0527" x="1237.79" y="1994.82">0</text><path d="M1344.69 1957.18 1344.69 1987.33C1349.69 1986.94 1354.27 1985.54 1358.43 1983.15 1363.37 1980.33 1367.21 1976.39 1369.93 1971.33 1372.24 1966.99 1373.57 1962.27 1373.93 1957.18ZM1310.05 1957.18C1310.38 1962.33 1311.73 1967.07 1314.09 1971.38 1316.85 1976.41 1320.71 1980.33 1325.68 1983.15 1329.82 1985.51 1334.23 1986.89 1338.94 1987.28L1338.94 1957.18ZM1344.69 1921.78 1344.69 1951.79 1373.93 1951.79C1373.57 1946.52 1372.21 1941.73 1369.84 1937.42 1367.06 1932.36 1363.19 1928.46 1358.25 1925.74 1354.12 1923.46 1349.6 1922.14 1344.69 1921.78ZM1338.94 1921.78C1334.26 1922.17 1329.88 1923.51 1325.77 1925.78 1320.83 1928.51 1316.95 1932.4 1314.14 1937.46 1311.74 1941.81 1310.38 1946.58 1310.05 1951.79L1338.94 1951.79ZM1341.95 1915.9C1349.04 1915.9 1355.56 1917.52 1361.49 1920.77 1367.42 1924.02 1372.07 1928.61 1375.43 1934.52 1378.8 1940.43 1380.49 1947.11 1380.49 1954.53 1380.49 1961.81 1378.85 1968.39 1375.57 1974.28 1372.29 1980.16 1367.68 1984.78 1361.73 1988.13 1355.79 1991.49 1349.19 1993.17 1341.95 1993.17 1334.79 1993.17 1328.24 1991.51 1322.29 1988.2 1316.35 1984.89 1311.73 1980.27 1308.43 1974.34 1305.14 1968.41 1303.49 1961.81 1303.49 1954.53 1303.49 1947.2 1305.18 1940.56 1308.55 1934.63 1311.91 1928.7 1316.55 1924.1 1322.45 1920.82 1328.35 1917.54 1334.85 1915.9 1341.95 1915.9Z" fill-rule="evenodd"/><text fill="#000000" fill-opacity="0" font-family="Arial,Arial_MSFontService,sans-serif" font-size="77.2656" x="1303.49" y="1983.51">⊕</text><path d="M1489.74 1942.4C1488.22 1942.4 1486.71 1942.92 1485.23 1943.95 1483.75 1944.99 1482.12 1946.64 1480.36 1948.92 1478.59 1951.19 1477.21 1953.44 1476.22 1955.66 1475.23 1957.87 1474.46 1960.42 1473.89 1963.29L1473.53 1965.18C1473.23 1966.77 1473.04 1967.98 1472.97 1968.82 1472.89 1969.66 1472.85 1970.48 1472.85 1971.29 1472.85 1973.62 1473.35 1975.32 1474.36 1976.39 1475.36 1977.45 1477.09 1977.98 1479.55 1977.98 1481.07 1977.98 1482.48 1977.68 1483.77 1977.08 1485.06 1976.48 1486.28 1975.62 1487.43 1974.48 1488.58 1973.34 1489.62 1971.96 1490.55 1970.35 1491.48 1968.73 1492.31 1966.85 1493.05 1964.71 1493.78 1962.57 1494.33 1960.37 1494.71 1958.1 1495.08 1955.84 1495.27 1953.72 1495.27 1951.75 1495.27 1948.6 1494.83 1946.26 1493.94 1944.72 1493.06 1943.18 1491.66 1942.4 1489.74 1942.4ZM1436.12 1940.74C1433 1940.74 1430.28 1942.04 1427.96 1944.65 1425.64 1947.26 1423.82 1950.98 1422.48 1955.84 1421.15 1960.69 1420.48 1964.86 1420.48 1968.37 1420.48 1971.66 1421.17 1974.1 1422.53 1975.67 1423.89 1977.24 1425.95 1978.03 1428.7 1978.03 1431.64 1978.03 1434.25 1976.71 1436.52 1974.07 1438.8 1971.44 1440.59 1967.75 1441.91 1963 1443.23 1958.25 1443.89 1954.08 1443.89 1950.49 1443.89 1947.26 1443.26 1944.82 1442 1943.19 1440.74 1941.56 1438.78 1940.74 1436.12 1940.74ZM1587.39 1940.65C1584.33 1940.65 1581.59 1941.89 1579.17 1944.36 1576.74 1946.83 1574.83 1950.16 1573.44 1954.35 1572.05 1958.55 1571.35 1962.72 1571.35 1966.89 1571.35 1970 1571.78 1972.33 1572.63 1973.87 1573.48 1975.41 1574.91 1976.19 1576.92 1976.19 1577.85 1976.19 1578.79 1975.98 1579.75 1975.58 1580.71 1975.17 1581.7 1974.52 1582.74 1973.62 1583.77 1972.73 1584.79 1971.63 1585.79 1970.35 1586.79 1969.06 1587.72 1967.76 1588.55 1966.46 1589.39 1965.16 1590.17 1963.61 1590.89 1961.83 1591.61 1960.05 1592.22 1957.9 1592.73 1955.39L1593.14 1953.45C1593.59 1951.3 1593.81 1949.26 1593.81 1947.35 1593.81 1945.01 1593.32 1943.31 1592.33 1942.25 1591.34 1941.18 1589.69 1940.65 1587.39 1940.65ZM1536.48 1940.65C1533.39 1940.65 1530.62 1941.89 1528.17 1944.38 1525.71 1946.87 1523.79 1950.2 1522.42 1954.38 1521.04 1958.55 1520.35 1962.72 1520.35 1966.89 1520.35 1970 1520.78 1972.33 1521.63 1973.87 1522.48 1975.41 1523.91 1976.19 1525.92 1976.19 1527.9 1976.19 1529.84 1975.33 1531.74 1973.62 1533.64 1971.92 1535.6 1969.48 1537.62 1966.32 1539.64 1963.17 1541.07 1959.52 1541.91 1955.39L1542.32 1953.45C1542.59 1952.23 1542.77 1951.16 1542.86 1950.27 1542.94 1949.37 1542.99 1948.39 1542.99 1947.35 1542.99 1945.04 1542.5 1943.35 1541.51 1942.27 1540.52 1941.19 1538.84 1940.65 1536.48 1940.65ZM1437.02 1937.15C1441.81 1937.15 1445.46 1938.46 1447.98 1941.08 1450.49 1943.7 1451.75 1947.45 1451.75 1952.33 1451.75 1955.81 1451.14 1959.52 1449.93 1963.47 1448.72 1967.43 1447.06 1970.75 1444.94 1973.45 1442.83 1976.14 1440.31 1978.17 1437.37 1979.53 1434.44 1980.89 1431.07 1981.58 1427.27 1981.58 1422.63 1981.58 1419.02 1980.27 1416.46 1977.67 1413.9 1975.06 1412.62 1971.32 1412.62 1966.44 1412.62 1964.04 1412.98 1961.27 1413.7 1958.13 1414.63 1953.87 1416.19 1950.16 1418.37 1946.99 1420.56 1943.81 1423.25 1941.38 1426.46 1939.69 1429.66 1937.99 1433.18 1937.15 1437.02 1937.15ZM1535.58 1937.1C1537.52 1937.1 1539.34 1937.32 1541.04 1937.75 1542.73 1938.19 1544.47 1938.96 1546.27 1940.07L1550.4 1937.1 1553.28 1937.82 1546.67 1966.3C1546.01 1969.15 1545.69 1971.36 1545.69 1972.95 1545.69 1974.15 1545.88 1975.02 1546.27 1975.56 1546.66 1976.1 1547.27 1976.36 1548.11 1976.36 1549.01 1976.36 1549.97 1976 1550.99 1975.26 1552 1974.53 1553.44 1973.13 1555.3 1971.06L1557.86 1973.58C1555.16 1976.45 1552.87 1978.5 1550.96 1979.71 1549.06 1980.92 1547 1981.53 1544.79 1981.53 1542.93 1981.53 1541.45 1980.92 1540.34 1979.69 1539.23 1978.46 1538.68 1976.83 1538.68 1974.79 1538.68 1973.15 1539.02 1971.39 1539.71 1969.54L1539.13 1969.36C1536.25 1973.55 1533.53 1976.62 1530.95 1978.57 1528.38 1980.51 1525.65 1981.49 1522.78 1981.49 1519.48 1981.49 1516.93 1980.24 1515.12 1977.76 1513.3 1975.27 1512.4 1971.78 1512.4 1967.29 1512.4 1962.14 1513.41 1957.19 1515.43 1952.44 1517.45 1947.7 1520.23 1943.95 1523.76 1941.21 1527.3 1938.47 1531.24 1937.1 1535.58 1937.1ZM1470.83 1937.1C1472.69 1937.1 1474.16 1937.72 1475.26 1938.95 1476.35 1940.17 1476.9 1941.81 1476.9 1943.84 1476.9 1945.52 1476.55 1947.29 1475.86 1949.14L1476.4 1949.32C1481.94 1941.21 1487.45 1937.15 1492.93 1937.15 1496.2 1937.15 1498.74 1938.39 1500.55 1940.88 1502.36 1943.36 1503.27 1946.87 1503.27 1951.39 1503.27 1956.33 1502.27 1961.19 1500.28 1965.97 1498.29 1970.74 1495.52 1974.53 1491.99 1977.33 1488.46 1980.13 1484.5 1981.53 1480.13 1981.53 1476.15 1981.53 1472.84 1980.66 1470.2 1978.93L1468.14 1988.76C1467.69 1990.89 1467.46 1992.64 1467.46 1994.02 1467.46 1995.34 1467.8 1996.27 1468.47 1996.83 1469.15 1997.38 1470.46 1997.75 1472.4 1997.93L1472.04 2000.13 1458.16 2000.13 1468.99 1952.47C1469.62 1949.71 1469.93 1947.45 1469.93 1945.68 1469.93 1944.49 1469.74 1943.62 1469.35 1943.08 1468.96 1942.54 1468.35 1942.27 1467.51 1942.27 1466.58 1942.27 1465.6 1942.65 1464.57 1943.41 1463.53 1944.18 1462.12 1945.56 1460.32 1947.57L1457.76 1945.05C1460.45 1942.24 1462.74 1940.21 1464.61 1938.97 1466.48 1937.72 1468.56 1937.1 1470.83 1937.1ZM1606.21 1916.57 1608.86 1916.57 1597.67 1966.3C1597.01 1969.24 1596.69 1971.45 1596.69 1972.95 1596.69 1974.15 1596.88 1975.02 1597.27 1975.56 1597.66 1976.1 1598.27 1976.36 1599.11 1976.36 1600.01 1976.36 1600.97 1976 1601.99 1975.26 1603 1974.53 1604.44 1973.13 1606.3 1971.06L1608.86 1973.58C1606.1 1976.48 1603.78 1978.54 1601.9 1979.73 1600.01 1980.93 1597.97 1981.53 1595.79 1981.53 1593.93 1981.53 1592.45 1980.92 1591.34 1979.69 1590.23 1978.46 1589.68 1976.83 1589.68 1974.79 1589.68 1973.15 1590.02 1971.39 1590.71 1969.54L1590.13 1969.36C1587.25 1973.55 1584.53 1976.62 1581.95 1978.57 1579.38 1980.51 1576.65 1981.49 1573.78 1981.49 1570.48 1981.49 1567.93 1980.24 1566.12 1977.76 1564.3 1975.27 1563.4 1971.78 1563.4 1967.29 1563.4 1962.14 1564.41 1957.19 1566.43 1952.44 1568.45 1947.7 1571.23 1943.95 1574.76 1941.21 1578.3 1938.47 1582.24 1937.1 1586.58 1937.1 1588.4 1937.1 1590.09 1937.29 1591.63 1937.66 1593.17 1938.04 1594.75 1938.69 1596.37 1939.62L1598.71 1929.24C1598.95 1928.25 1599.16 1927.16 1599.34 1925.96 1599.52 1924.76 1599.61 1923.72 1599.61 1922.82 1599.61 1921.92 1599.44 1921.24 1599.11 1920.77 1598.78 1920.31 1598.31 1919.97 1597.7 1919.76 1597.08 1919.55 1595.98 1919.4 1594.39 1919.31L1594.93 1916.98Z" fill-rule="evenodd"/><text fill="#000000" fill-opacity="0" font-family="Arial,Arial_MSFontService,sans-serif" font-size="83.5547" x="1412.62" y="1989.68">𝑜𝑝𝑎𝑑</text><rect x="1649.5" y="1847.5" width="448" height="199" stroke="#000000" stroke-width="9.16667" fill="#FFFFFF"/><path d="M1861.1 1940.65C1858.05 1940.65 1855.31 1941.89 1852.88 1944.36 1850.46 1946.83 1848.55 1950.16 1847.16 1954.35 1845.76 1958.55 1845.07 1962.72 1845.07 1966.89 1845.07 1970 1845.49 1972.33 1846.35 1973.87 1847.2 1975.41 1848.63 1976.18 1850.64 1976.18 1851.57 1976.18 1852.51 1975.98 1853.47 1975.58 1854.43 1975.17 1855.42 1974.52 1856.45 1973.62 1857.49 1972.73 1858.51 1971.63 1859.51 1970.35 1860.51 1969.06 1861.43 1967.76 1862.27 1966.46 1863.11 1965.16 1863.89 1963.61 1864.61 1961.83 1865.33 1960.05 1865.94 1957.9 1866.45 1955.39L1866.85 1953.45C1867.3 1951.3 1867.53 1949.26 1867.53 1947.35 1867.53 1945.01 1867.03 1943.31 1866.05 1942.25 1865.06 1941.18 1863.41 1940.65 1861.1 1940.65ZM1879.93 1916.57 1882.58 1916.57 1871.39 1966.3C1870.73 1969.24 1870.4 1971.45 1870.4 1972.95 1870.4 1974.15 1870.6 1975.02 1870.99 1975.56 1871.38 1976.1 1871.99 1976.36 1872.83 1976.36 1873.73 1976.36 1874.69 1976 1875.7 1975.26 1876.72 1974.53 1878.16 1973.13 1880.02 1971.06L1882.58 1973.58C1879.82 1976.48 1877.5 1978.54 1875.61 1979.73 1873.73 1980.93 1871.69 1981.53 1869.5 1981.53 1867.65 1981.53 1866.17 1980.92 1865.06 1979.69 1863.95 1978.46 1863.4 1976.83 1863.4 1974.79 1863.4 1973.15 1863.74 1971.39 1864.43 1969.54L1863.84 1969.36C1860.97 1973.55 1858.24 1976.62 1855.67 1978.57 1853.09 1980.51 1850.37 1981.49 1847.49 1981.49 1844.2 1981.49 1841.65 1980.24 1839.83 1977.76 1838.02 1975.27 1837.12 1971.78 1837.12 1967.29 1837.12 1962.14 1838.13 1957.19 1840.15 1952.44 1842.17 1947.7 1844.95 1943.95 1848.48 1941.21 1852.02 1938.47 1855.95 1937.1 1860.3 1937.1 1862.12 1937.1 1863.81 1937.29 1865.35 1937.66 1866.89 1938.04 1868.47 1938.69 1870.09 1939.62L1872.42 1929.24C1872.66 1928.25 1872.87 1927.16 1873.05 1925.96 1873.23 1924.76 1873.32 1923.72 1873.32 1922.82 1873.32 1921.92 1873.16 1921.24 1872.83 1920.77 1872.5 1920.31 1872.03 1919.97 1871.41 1919.76 1870.8 1919.55 1869.7 1919.4 1868.11 1919.31L1868.65 1916.98Z" fill-rule="evenodd"/><text fill="#000000" fill-opacity="0" font-family="Arial,Arial_MSFontService,sans-serif" font-size="64.957" x="1837.12" y="1973.41">𝑑</text><path d="M1760.5 1572.92 1877.2 1572.92 1877.2 1767.68 1872.62 1763.09 1877.82 1763.09 1877.82 1824.94 1868.65 1824.94 1868.65 1767.68 1873.23 1772.26 1868.03 1772.26 1868.03 1577.5 1872.62 1582.08 1760.5 1582.08ZM1886.98 1820.35 1873.23 1847.85 1859.48 1820.35Z"/></g></svg>